<svg version="1.1" viewBox="0.0 0.0 350.0 300.0" fill="none" stroke="none" stroke-linecap="square" stroke-miterlimit="10" xmlns:xlink="http://www.w3.org/1999/xlink" xmlns="http://www.w3.org/2000/svg"><clipPath id="g11ed2c24bca_0_0.0"><path d="m0 0l960.0 0l0 540.0l-960.0 0l0 -540.0z" clip-rule="nonzero"/></clipPath><g clip-path="url(#g11ed2c24bca_0_0.0)"><path fill="#fcfcfc" d="m0 0l960.0 0l0 540.0l-960.0 0z" fill-rule="evenodd"/><path fill="#e8f2fa" d="m37.632545 53.188976l90.803154 0l0 32.94488l-90.803154 0z" fill-rule="evenodd"/><path stroke="#6db1dc" stroke-width="1.0" stroke-linejoin="round" stroke-linecap="butt" d="m37.632545 53.188976l90.803154 0l0 32.94488l-90.803154 0z" fill-rule="evenodd"/><path fill="#404040" d="m70.00445 74.46142l0 -9.546875l4.234375 0q1.265625 0 1.921875 0.265625q0.671875 0.25 1.0625 0.90625q0.40625 0.65625 0.40625 1.4375q0 1.015625 -0.65625 1.71875q-0.65625 0.6875 -2.03125 0.875q0.5 0.25 0.765625 0.484375q0.546875 0.5 1.046875 1.265625l1.65625 2.59375l-1.578125 0l-1.265625 -1.984375q-0.5625 -0.859375 -0.921875 -1.3125q-0.34375 -0.453125 -0.640625 -0.640625q-0.28125 -0.1875 -0.5625 -0.25q-0.21875 -0.046875 -0.703125 -0.046875l-1.46875 0l0 4.234375l-1.265625 0zm1.265625 -5.328125l2.71875 0q0.859375 0 1.34375 -0.171875q0.484375 -0.1875 0.734375 -0.578125q0.265625 -0.390625 0.265625 -0.859375q0 -0.671875 -0.5 -1.109375q-0.484375 -0.4375 -1.546875 -0.4375l-3.015625 0l0 3.15625zm7.7501526 1.875q0 -1.921875 1.078125 -2.84375q0.890625 -0.765625 2.171875 -0.765625q1.421875 0 2.328125 0.9375q0.90625 0.921875 0.90625 2.578125q0 1.328125 -0.40625 2.09375q-0.390625 0.765625 -1.15625 1.1875q-0.765625 0.421875 -1.671875 0.421875q-1.453125 0 -2.359375 -0.921875q-0.890625 -0.9375 -0.890625 -2.6875zm1.203125 0q0 1.328125 0.578125 1.984375q0.59375 0.65625 1.46875 0.65625q0.875 0 1.453125 -0.65625q0.578125 -0.671875 0.578125 -2.03125q0 -1.28125 -0.59375 -1.9375q-0.578125 -0.65625 -1.4375 -0.65625q-0.875 0 -1.46875 0.65625q-0.578125 0.65625 -0.578125 1.984375zm6.2093506 0q0 -1.921875 1.078125 -2.84375q0.890625 -0.765625 2.171875 -0.765625q1.421875 0 2.328125 0.9375q0.90625 0.921875 0.90625 2.578125q0 1.328125 -0.40625 2.09375q-0.390625 0.765625 -1.15625 1.1875q-0.765625 0.421875 -1.671875 0.421875q-1.453125 0 -2.359375 -0.921875q-0.890625 -0.9375 -0.890625 -2.6875zm1.203125 0q0 1.328125 0.578125 1.984375q0.59375 0.65625 1.46875 0.65625q0.875 0 1.453125 -0.65625q0.578125 -0.671875 0.578125 -2.03125q0 -1.28125 -0.59375 -1.9375q-0.578125 -0.65625 -1.4375 -0.65625q-0.875 0 -1.46875 0.65625q-0.578125 0.65625 -0.578125 1.984375zm9.209351 2.40625l0.171875 1.03125q-0.5 0.109375 -0.890625 0.109375q-0.640625 0 -1.0 -0.203125q-0.34375 -0.203125 -0.484375 -0.53125q-0.140625 -0.328125 -0.140625 -1.390625l0 -3.96875l-0.859375 0l0 -0.90625l0.859375 0l0 -1.71875l1.171875 -0.703125l0 2.421875l1.171875 0l0 0.90625l-1.171875 0l0 4.046875q0 0.5 0.046875 0.640625q0.0625 0.140625 0.203125 0.234375q0.140625 0.078125 0.40625 0.078125q0.203125 0 0.515625 -0.046875z" fill-rule="nonzero"/><path fill="#000000" fill-opacity="0.0" d="m83.03412 86.13386l0 43.244102" fill-rule="evenodd"/><path stroke="#6db1dc" stroke-width="1.0" stroke-linejoin="round" stroke-linecap="butt" d="m83.03412 86.13386l0 37.244095" fill-rule="evenodd"/><path fill="#6db1dc" stroke="#6db1dc" stroke-width="1.0" stroke-linecap="butt" d="m81.382385 123.37795l1.6517334 4.538101l1.6517334 -4.538101z" fill-rule="evenodd"/><path fill="#000000" fill-opacity="0.0" d="m5.2086616 -1.8293964l155.65353 0l0 37.858265l-155.65353 0z" fill-rule="evenodd"/><path fill="#404040" d="m62.64481 18.311853l2.2343788 0.71875q-0.515625 1.875 -1.7187538 2.796875q-1.1875 0.90625 -3.03125 0.90625q-2.28125 0 -3.75 -1.5625q-1.46875 -1.5625 -1.46875 -4.265625q0 -2.859374 1.46875 -4.437499q1.484375 -1.59375 3.890625 -1.59375q2.09375 0 3.40625 1.25q0.7812538 0.734375 1.1718788 2.109375l-2.2812538 0.546875q-0.203125 -0.890625 -0.859375 -1.40625q-0.640625 -0.515625 -1.5625 -0.515625q-1.265625 0 -2.0625 0.921875q-0.796875 0.90625 -0.796875 2.953124q0 2.171875 0.78125 3.09375q0.78125 0.921875 2.03125 0.921875q0.921875 0 1.578125 -0.578125q0.671875 -0.59375 0.96875 -1.859375zm9.664066 4.21875l0 -1.25q-0.453125 0.671875 -1.1875 1.0625q-0.734375 0.375 -1.5625 0.375q-0.828125 0 -1.5 -0.359375q-0.65625 -0.375 -0.953125 -1.03125q-0.296875 -0.671875 -0.296875 -1.84375l0 -5.249999l2.1875 0l0 3.812499q0 1.75 0.125 2.140625q0.125 0.390625 0.4375 0.625q0.328125 0.234375 0.8125 0.234375q0.5625 0 1.0 -0.3125q0.453125 -0.3125 0.609375 -0.765625q0.171875 -0.453125 0.171875 -2.234375l0 -3.499999l2.203125 0l0 8.296874l-2.046875 0zm6.4140625 0l-2.1875 0l0 -8.296874l2.03125 0l0 1.171875q0.53125 -0.828125 0.9375 -1.09375q0.421875 -0.265625 0.953125 -0.265625q0.75 0 1.453125 0.40625l-0.6875 1.921874q-0.546875 -0.359375 -1.03125 -0.359375q-0.453125 0 -0.78125 0.25q-0.3125 0.25 -0.5 0.921875q-0.1875 0.65625 -0.1875 2.78125l0 2.5625zm6.2265625 0l-2.1875 0l0 -8.296874l2.03125 0l0 1.171875q0.53125 -0.828125 0.9375 -1.09375q0.421875 -0.265625 0.953125 -0.265625q0.75 0 1.453125 0.40625l-0.6875 1.921874q-0.546875 -0.359375 -1.03125 -0.359375q-0.453125 0 -0.78125 0.25q-0.3125 0.25 -0.5 0.921875q-0.1875 0.65625 -0.1875 2.78125l0 2.5625zm8.9296875 -2.640625l2.1875 0.359375q-0.421875 1.203125 -1.328125 1.84375q-0.90625 0.625 -2.28125 0.625q-2.15625 0 -3.203125 -1.421875q-0.8125 -1.125 -0.8125 -2.859375q0 -2.0625 1.078125 -3.218749q1.078125 -1.171875 2.71875 -1.171875q1.859375 0 2.921875 1.21875q1.078125 1.218749 1.03125 3.749999l-5.5 0q0.015625 0.96875 0.515625 1.515625q0.515625 0.546875 1.28125 0.546875q0.515625 0 0.859375 -0.28125q0.359375 -0.28125 0.53125 -0.90625zm0.125 -2.21875q-0.015625 -0.953125 -0.484375 -1.453125q-0.46875 -0.49999905 -1.140625 -0.49999905q-0.71875 0 -1.1875 0.53124905q-0.46875 0.515625 -0.46875 1.421875l3.28125 0zm11.5234375 4.859375l-2.203125 0l0 -4.234375q0 -1.34375 -0.140625 -1.734375q-0.140625 -0.40625 -0.453125 -0.62499905q-0.3125 -0.21875 -0.765625 -0.21875q-0.5625 0 -1.015625 0.31249905q-0.453125 0.3125 -0.625 0.828125q-0.171875 0.515625 -0.171875 1.90625l0 3.765625l-2.1875 0l0 -8.296874l2.03125 0l0 1.21875q1.09375 -1.40625 2.734375 -1.40625q0.734375 0 1.328125 0.265625q0.609375 0.25 0.90625 0.65625q0.3125 0.40625 0.4375 0.921875q0.125 0.51562405 0.125 1.484374l0 5.15625zm6.0234375 -8.296874l0 1.75l-1.5 0l0 3.343749q0 1.015625 0.046875 1.1875q0.046875 0.15625 0.1875 0.265625q0.15625 0.109375 0.375 0.109375q0.3125 0 0.890625 -0.203125l0.1875 1.703125q-0.765625 0.328125 -1.734375 0.328125q-0.59375 0 -1.078125 -0.203125q-0.46875 -0.203125 -0.703125 -0.515625q-0.21875 -0.3125 -0.296875 -0.859375q-0.078125 -0.375 -0.078125 -1.546875l0 -3.609374l-1.0 0l0 -1.75l1.0 0l0 -1.65625l2.203125 -1.28125l0 2.9375l1.5 0z" fill-rule="nonzero"/><path fill="#404040" d="m70.32841 41.530605l0 -9.515625l-3.40625 0l0 -1.9375019l9.109375 0l0 1.9375019l-3.390625 0l0 9.515625l-2.3125 0zm8.390625 0l-2.1875 0l0 -8.296875l2.03125 0l0 1.171875q0.53125 -0.828125 0.9375 -1.09375q0.421875 -0.265625 0.953125 -0.265625q0.75 0 1.453125 0.40625l-0.6875 1.921875q-0.546875 -0.359375 -1.03125 -0.359375q-0.453125 0 -0.78125 0.25q-0.3125 0.25 -0.5 0.921875q-0.1875 0.65625 -0.1875 2.78125l0 2.5625zm8.9296875 -2.640625l2.1875 0.359375q-0.421875 1.203125 -1.328125 1.84375q-0.90625 0.625 -2.28125 0.625q-2.15625 0 -3.203125 -1.421875q-0.8125 -1.125 -0.8125 -2.859375q0 -2.0625 1.078125 -3.21875q1.078125 -1.171875 2.71875 -1.171875q1.859375 0 2.921875 1.21875q1.078125 1.21875 1.03125 3.75l-5.5 0q0.015625 0.96875 0.515625 1.515625q0.515625 0.546875 1.28125 0.546875q0.515625 0 0.859375 -0.28125q0.359375 -0.28125 0.53125 -0.90625zm0.125 -2.21875q-0.015625 -0.953125 -0.484375 -1.453125q-0.46875 -0.5 -1.140625 -0.5q-0.71875 0 -1.1875 0.53125q-0.46875 0.515625 -0.46875 1.421875l3.28125 0zm8.7734375 2.21875l2.1875 0.359375q-0.421875 1.203125 -1.328125 1.84375q-0.90625 0.625 -2.28125 0.625q-2.15625 0 -3.203125 -1.421875q-0.8125 -1.125 -0.8125 -2.859375q0 -2.0625 1.078125 -3.21875q1.078125 -1.171875 2.71875 -1.171875q1.859375 0 2.921875 1.21875q1.078125 1.21875 1.03125 3.75l-5.5 0q0.015625 0.96875 0.515625 1.515625q0.515625 0.546875 1.28125 0.546875q0.515625 0 0.859375 -0.28125q0.359375 -0.28125 0.53125 -0.90625zm0.125 -2.21875q-0.015625 -0.953125 -0.484375 -1.453125q-0.46875 -0.5 -1.140625 -0.5q-0.71875 0 -1.1875 0.53125q-0.46875 0.515625 -0.46875 1.421875l3.28125 0z" fill-rule="nonzero"/><path fill="#e8f2fa" d="m73.255905 139.16405l0 0c0 -5.4010925 4.378441 -9.779526 9.779526 -9.779526l0 0c2.5936966 0 5.081154 1.0303345 6.915169 2.8643494c1.8340225 1.8340149 2.8643646 4.321472 2.8643646 6.9151764l0 0c0 5.4010773 -4.3784485 9.779526 -9.779533 9.779526l0 0c-5.401085 0 -9.779526 -4.3784485 -9.779526 -9.779526z" fill-rule="evenodd"/><path stroke="#6db1dc" stroke-width="1.0" stroke-linejoin="round" stroke-linecap="butt" d="m73.255905 139.16405l0 0c0 -5.4010925 4.378441 -9.779526 9.779526 -9.779526l0 0c2.5936966 0 5.081154 1.0303345 6.915169 2.8643494c1.8340225 1.8340149 2.8643646 4.321472 2.8643646 6.9151764l0 0c0 5.4010773 -4.3784485 9.779526 -9.779533 9.779526l0 0c-5.401085 0 -9.779526 -4.3784485 -9.779526 -9.779526z" fill-rule="evenodd"/><path fill="#000000" fill-opacity="0.0" d="m48.587997 85.002625l51.811028 0l0 24.377953l-51.811028 0z" fill-rule="evenodd"/><path fill="#404040" d="m57.587997 106.95888l2.765625 -9.859375l0.9375 0l-2.765625 9.859375l-0.9375 0zm4.2654877 -8.4375l0 -1.359375l1.265625 0l0 1.078125q0 0.875 -0.203125 1.25q-0.28125 0.53125 -0.875 0.796875l-0.28125 -0.453125q0.34375 -0.15625 0.515625 -0.453125q0.171875 -0.3125 0.1875 -0.859375l-0.609375 0zm2.015625 0l0 -1.359375l1.265625 0l0 1.078125q0 0.875 -0.203125 1.25q-0.28125 0.53125 -0.875 0.796875l-0.28125 -0.453125q0.34375 -0.15625 0.515625 -0.453125q0.171875 -0.3125 0.203125 -0.859375l-0.625 0zm7.2508698 7.421875q-0.65625 0.5625 -1.265625 0.796875q-0.59375 0.21875 -1.28125 0.21875q-1.140625 0 -1.75 -0.546875q-0.609375 -0.5625 -0.609375 -1.4375q0 -0.5 0.21875 -0.921875q0.234375 -0.421875 0.609375 -0.671875q0.375 -0.25 0.84375 -0.390625q0.34375 -0.078125 1.046875 -0.171875q1.421875 -0.171875 2.09375 -0.40625q0 -0.234375 0 -0.296875q0 -0.71875 -0.328125 -1.015625q-0.453125 -0.390625 -1.34375 -0.390625q-0.8125 0 -1.21875 0.296875q-0.390625 0.28125 -0.578125 1.015625l-1.140625 -0.15625q0.15625 -0.734375 0.515625 -1.1875q0.359375 -0.453125 1.03125 -0.6875q0.671875 -0.25 1.5625 -0.25q0.890625 0 1.4375 0.203125q0.5625 0.203125 0.8125 0.53125q0.265625 0.3125 0.375 0.796875q0.046875 0.296875 0.046875 1.078125l0 1.5625q0 1.625 0.078125 2.0625q0.078125 0.4375 0.296875 0.828125l-1.21875 0q-0.1875 -0.359375 -0.234375 -0.859375zm-0.09375 -2.609375q-0.640625 0.265625 -1.921875 0.4375q-0.71875 0.109375 -1.015625 0.25q-0.296875 0.125 -0.46875 0.375q-0.15625 0.25 -0.15625 0.546875q0 0.46875 0.34375 0.78125q0.359375 0.3125 1.046875 0.3125q0.671875 0 1.203125 -0.296875q0.53125 -0.296875 0.78125 -0.8125q0.1875 -0.390625 0.1875 -1.171875l0 -0.421875zm2.6781006 -4.8125l0 -1.359375l1.265625 0l0 1.078125q0 0.875 -0.203125 1.25q-0.28125 0.53125 -0.875 0.796875l-0.28125 -0.453125q0.34375 -0.15625 0.515625 -0.453125q0.171875 -0.3125 0.1875 -0.859375l-0.609375 0zm2.015625 0l0 -1.359375l1.265625 0l0 1.078125q0 0.875 -0.203125 1.25q-0.28125 0.53125 -0.875 0.796875l-0.28125 -0.453125q0.34375 -0.15625 0.515625 -0.453125q0.171875 -0.3125 0.203125 -0.859375l-0.625 0z" fill-rule="nonzero"/><path fill="#e8f2fa" d="m18.072178 201.71523l0 0c0 -5.4010925 4.3784447 -9.779526 9.779528 -9.779526l0 0c2.5936928 0 5.081152 1.0303345 6.9151707 2.8643494c1.8340187 1.8340149 2.864357 4.3214874 2.864357 6.9151764l0 0c0 5.4010773 -4.3784447 9.779526 -9.779528 9.779526l0 0c-5.401083 0 -9.779528 -4.3784485 -9.779528 -9.779526z" fill-rule="evenodd"/><path stroke="#6db1dc" stroke-width="1.0" stroke-linejoin="round" stroke-linecap="butt" d="m18.072178 201.71523l0 0c0 -5.4010925 4.3784447 -9.779526 9.779528 -9.779526l0 0c2.5936928 0 5.081152 1.0303345 6.9151707 2.8643494c1.8340187 1.8340149 2.864357 4.3214874 2.864357 6.9151764l0 0c0 5.4010773 -4.3784447 9.779526 -9.779528 9.779526l0 0c-5.401083 0 -9.779528 -4.3784485 -9.779528 -9.779526z" fill-rule="evenodd"/><path fill="#e8f2fa" d="m128.43439 201.71523l0 0c0 -5.4010925 4.378433 -9.779526 9.779526 -9.779526l0 0c2.593689 0 5.0811462 1.0303345 6.915161 2.8643494c1.8340302 1.8340149 2.8643646 4.3214874 2.8643646 6.9151764l0 0c0 5.4010773 -4.3784485 9.779526 -9.779526 9.779526l0 0c-5.4010925 0 -9.779526 -4.3784485 -9.779526 -9.779526z" fill-rule="evenodd"/><path stroke="#6db1dc" stroke-width="1.0" stroke-linejoin="round" stroke-linecap="butt" d="m128.43439 201.71523l0 0c0 -5.4010925 4.378433 -9.779526 9.779526 -9.779526l0 0c2.593689 0 5.0811462 1.0303345 6.915161 2.8643494c1.8340302 1.8340149 2.8643646 4.3214874 2.8643646 6.9151764l0 0c0 5.4010773 -4.3784485 9.779526 -9.779526 9.779526l0 0c-5.4010925 0 -9.779526 -4.3784485 -9.779526 -9.779526z" fill-rule="evenodd"/><path fill="#000000" fill-opacity="0.0" d="m76.12026 146.07921l-41.354332 48.72441" fill-rule="evenodd"/><path stroke="#6db1dc" stroke-width="1.0" stroke-linejoin="round" stroke-linecap="butt" d="m76.12026 146.07921l-37.47179 44.149933" fill-rule="evenodd"/><path fill="#6db1dc" stroke="#6db1dc" stroke-width="1.0" stroke-linecap="butt" d="m37.38917 189.16032l-1.6772575 4.528717l4.195862 -2.3910828z" fill-rule="evenodd"/><path fill="#000000" fill-opacity="0.0" d="m89.9506 146.07921l41.354332 48.72441" fill-rule="evenodd"/><path stroke="#6db1dc" stroke-width="1.0" stroke-linejoin="round" stroke-linecap="butt" d="m89.9506 146.07921l37.471786 44.149933" fill-rule="evenodd"/><path fill="#6db1dc" stroke="#6db1dc" stroke-width="1.0" stroke-linecap="butt" d="m126.163086 191.29796l4.195862 2.3910828l-1.6772461 -4.528717z" fill-rule="evenodd"/><path fill="#e8f2fa" d="m18.072178 281.7152l0 0c0 -5.401062 4.3784447 -9.7795105 9.779528 -9.7795105l0 0c2.5936928 0 5.081152 1.0303345 6.9151707 2.8643494c1.8340187 1.8340149 2.864357 4.321472 2.864357 6.915161l0 0c0 5.4010925 -4.3784447 9.779541 -9.779528 9.779541l0 0c-5.401083 0 -9.779528 -4.3784485 -9.779528 -9.779541z" fill-rule="evenodd"/><path stroke="#6db1dc" stroke-width="1.0" stroke-linejoin="round" stroke-linecap="butt" d="m18.072178 281.7152l0 0c0 -5.401062 4.3784447 -9.7795105 9.779528 -9.7795105l0 0c2.5936928 0 5.081152 1.0303345 6.9151707 2.8643494c1.8340187 1.8340149 2.864357 4.321472 2.864357 6.915161l0 0c0 5.4010925 -4.3784447 9.779541 -9.779528 9.779541l0 0c-5.401083 0 -9.779528 -4.3784485 -9.779528 -9.779541z" fill-rule="evenodd"/><path fill="#e8f2fa" d="m128.43439 281.7152l0 0c0 -5.401062 4.378433 -9.7795105 9.779526 -9.7795105l0 0c2.593689 0 5.0811462 1.0303345 6.915161 2.8643494c1.8340302 1.8340149 2.8643646 4.321472 2.8643646 6.915161l0 0c0 5.4010925 -4.3784485 9.779541 -9.779526 9.779541l0 0c-5.4010925 0 -9.779526 -4.3784485 -9.779526 -9.779541z" fill-rule="evenodd"/><path stroke="#6db1dc" stroke-width="1.0" stroke-linejoin="round" stroke-linecap="butt" d="m128.43439 281.7152l0 0c0 -5.401062 4.378433 -9.7795105 9.779526 -9.7795105l0 0c2.593689 0 5.0811462 1.0303345 6.915161 2.8643494c1.8340302 1.8340149 2.8643646 4.321472 2.8643646 6.915161l0 0c0 5.4010925 -4.3784485 9.779541 -9.779526 9.779541l0 0c-5.4010925 0 -9.779526 -4.3784485 -9.779526 -9.779541z" fill-rule="evenodd"/><path fill="#000000" fill-opacity="0.0" d="m27.851706 211.49475l0 60.44095" fill-rule="evenodd"/><path stroke="#6db1dc" stroke-width="1.0" stroke-linejoin="round" stroke-linecap="butt" d="m27.851706 211.49475l0 54.44095" fill-rule="evenodd"/><path fill="#6db1dc" stroke="#6db1dc" stroke-width="1.0" stroke-linecap="butt" d="m26.199974 265.9357l1.6517315 4.538086l1.6517334 -4.538086z" fill-rule="evenodd"/><path fill="#000000" fill-opacity="0.0" d="m138.21391 211.49475l0 60.44095" fill-rule="evenodd"/><path stroke="#6db1dc" stroke-width="1.0" stroke-linejoin="round" stroke-linecap="butt" d="m138.21391 211.49475l0 54.44095" fill-rule="evenodd"/><path fill="#6db1dc" stroke="#6db1dc" stroke-width="1.0" stroke-linecap="butt" d="m136.56218 265.9357l1.6517334 4.538086l1.6517334 -4.538086z" fill-rule="evenodd"/><path fill="#000000" fill-opacity="0.0" d="m5.209946 132.24934l72.661415 0l0 24.37796l-72.661415 0z" fill-rule="evenodd"/><path fill="#404040" d="m14.209947 154.2056l2.765624 -9.859375l0.9375 0l-2.765624 9.859375l-0.9375 0zm5.6561117 -0.15625l-1.078125 0l0 -9.546875l1.171875 0l0 3.40625q0.734375 -0.921875 1.890625 -0.921875q0.640625 0 1.203125 0.265625q0.578125 0.25 0.9375 0.71875q0.375 0.453125 0.578125 1.109375q0.203125 0.65625 0.203125 1.40625q0 1.78125 -0.875 2.75q-0.875 0.96875 -2.109375 0.96875q-1.21875 0 -1.921875 -1.015625l0 0.859375zm0 -3.5q0 1.234375 0.328125 1.78125q0.5625 0.90625 1.5 0.90625q0.765625 0 1.328125 -0.65625q0.5625 -0.671875 0.5625 -2.0q0 -1.34375 -0.546875 -1.984375q-0.53125 -0.65625 -1.296875 -0.65625q-0.765625 0 -1.328125 0.671875q-0.546875 0.671875 -0.546875 1.9375zm15.490463 2.375q-0.578125 0.640625 -1.265625 0.96875q-0.671875 0.3125 -1.46875 0.3125q-1.46875 0 -2.328125 -0.984375q-0.6875 -0.8125 -0.6875 -1.796875q0 -0.890625 0.5625 -1.59375q0.578125 -0.71875 1.703125 -1.265625q-0.640625 -0.734375 -0.859375 -1.1875q-0.21875 -0.46875 -0.21875 -0.90625q0 -0.859375 0.671875 -1.484375q0.6875 -0.640625 1.703125 -0.640625q0.96875 0 1.59375 0.609375q0.625 0.59375 0.625 1.421875q0 1.359375 -1.796875 2.328125l1.703125 2.1875q0.296875 -0.578125 0.453125 -1.328125l1.21875 0.25q-0.3125 1.25 -0.84375 2.0625q0.65625 0.875 1.484375 1.46875l-0.78125 0.921875q-0.703125 -0.453125 -1.46875 -1.34375zm-2.375 -4.96875q0.765625 -0.453125 0.984375 -0.78125q0.21875 -0.34375 0.21875 -0.765625q0 -0.484375 -0.3125 -0.78125q-0.296875 -0.3125 -0.765625 -0.3125q-0.46875 0 -0.796875 0.3125q-0.3125 0.296875 -0.3125 0.734375q0 0.21875 0.109375 0.46875q0.125 0.25 0.34375 0.515625l0.53125 0.609375zm1.640625 4.046875l-2.140625 -2.671875q-0.953125 0.578125 -1.296875 1.0625q-0.328125 0.484375 -0.328125 0.953125q0 0.578125 0.46875 1.203125q0.46875 0.625 1.3125 0.625q0.515625 0 1.078125 -0.328125q0.578125 -0.328125 0.90625 -0.84375z" fill-rule="nonzero"/><path fill="#404040" d="m17.522446 171.42435l0 -1.171875q-0.875 -0.109375 -1.421875 -0.390625q-0.54687405 -0.28125 -0.95312405 -0.90625q-0.390625 -0.640625 -0.46875 -1.5625l1.1875 -0.21875q0.14062405 0.953125 0.48437405 1.390625q0.484375 0.625 1.171875 0.703125l0 -3.734375q-0.71875 -0.140625 -1.46875 -0.5625q-0.56249905 -0.3125 -0.87499905 -0.859375q-0.296875 -0.5625 -0.296875 -1.265625q0 -1.25 0.890625 -2.015625q0.59374905 -0.53125 1.749999 -0.640625l0 -0.5625l0.703125 0l0 0.5625q1.015625 0.09375 1.609375 0.59375q0.765625 0.640625 0.921875 1.75l-1.203125 0.1875q-0.109375 -0.6875 -0.4375 -1.046875q-0.328125 -0.375 -0.890625 -0.5l0 3.375q0.875 0.234375 1.171875 0.359375q0.546875 0.234375 0.890625 0.578125q0.34375 0.34375 0.515625 0.828125q0.1875 0.46875 0.1875 1.015625q0 1.21875 -0.78125 2.03125q-0.765625 0.8125 -1.984375 0.875l0 1.1875l-0.703125 0zm0 -10.265625q-0.671875 0.109375 -1.078125 0.5625q-0.390625 0.4375 -0.390625 1.046875q0 0.59375 0.328125 1.0q0.34375 0.390625 1.140625 0.640625l0 -3.25zm0.703125 8.109375q0.671875 -0.09375 1.109375 -0.59375q0.453125 -0.515625 0.453125 -1.265625q0 -0.640625 -0.3125 -1.015625q-0.3125 -0.390625 -1.25 -0.703125l0 3.578125zm4.5531006 0.78125l0 -6.0l-1.03125 0l0 -0.90625l1.03125 0l0 -0.734375q0 -0.703125 0.125 -1.046875q0.171875 -0.453125 0.59375 -0.734375q0.421875 -0.28125 1.203125 -0.28125q0.484375 0 1.09375 0.109375l-0.1875 1.03125q-0.359375 -0.0625 -0.6875 -0.0625q-0.53125 0 -0.75 0.234375q-0.21875 0.21875 -0.21875 0.84375l0 0.640625l1.34375 0l0 0.90625l-1.34375 0l0 6.0l-1.171875 0zm3.4217377 0l0 -6.90625l1.0625 0l0 0.984375q0.75 -1.140625 2.1875 -1.140625q0.625 0 1.15625 0.21875q0.53125 0.21875 0.78125 0.59375q0.265625 0.359375 0.375 0.859375q0.0625 0.328125 0.0625 1.140625l0 4.25l-1.171875 0l0 -4.203125q0 -0.71875 -0.140625 -1.0625q-0.140625 -0.359375 -0.484375 -0.5625q-0.34375 -0.21875 -0.8125 -0.21875q-0.75 0 -1.296875 0.46875q-0.546875 0.46875 -0.546875 1.796875l0 3.78125l-1.171875 0zm11.506226 0l-1.171875 0l0 -7.46875q-0.421875 0.40625 -1.109375 0.8125q-0.6875 0.40625 -1.234375 0.609375l0 -1.140625q0.984375 -0.453125 1.71875 -1.109375q0.734375 -0.671875 1.03125 -1.28125l0.765625 0l0 9.578125zm5.5687256 2.8125q-0.984375 -1.234375 -1.65625 -2.875q-0.65625 -1.640625 -0.65625 -3.390625q0 -1.546875 0.5 -2.96875q0.578125 -1.640625 1.8125 -3.28125l0.828125 0q-0.78125 1.359375 -1.03125 1.9375q-0.40625 0.890625 -0.625 1.875q-0.28125 1.21875 -0.28125 2.4375q0 3.140625 1.9375 6.265625l-0.828125 0zm2.9539948 0l-0.828125 0q1.9375 -3.125 1.9375 -6.265625q0 -1.21875 -0.28125 -2.421875q-0.21875 -0.984375 -0.609375 -1.875q-0.265625 -0.59375 -1.046875 -1.953125l0.828125 0q1.234375 1.640625 1.8125 3.28125q0.5 1.421875 0.5 2.96875q0 1.75 -0.671875 3.390625q-0.671875 1.640625 -1.640625 2.875z" fill-rule="nonzero"/><path fill="#000000" fill-opacity="0.0" d="m101.209946 132.24934l72.66142 0l0 24.37796l-72.66142 0z" fill-rule="evenodd"/><path fill="#404040" d="m110.209946 154.2056l2.765625 -9.859375l0.9375 0l-2.765625 9.859375l-0.9375 0zm5.6561127 -0.15625l-1.078125 0l0 -9.546875l1.171875 0l0 3.40625q0.734375 -0.921875 1.890625 -0.921875q0.640625 0 1.203125 0.265625q0.578125 0.25 0.9375 0.71875q0.375 0.453125 0.578125 1.109375q0.203125 0.65625 0.203125 1.40625q0 1.78125 -0.875 2.75q-0.875 0.96875 -2.109375 0.96875q-1.21875 0 -1.921875 -1.015625l0 0.859375zm0 -3.5q0 1.234375 0.328125 1.78125q0.5625 0.90625 1.5 0.90625q0.765625 0 1.328125 -0.65625q0.5625 -0.671875 0.5625 -2.0q0 -1.34375 -0.546875 -1.984375q-0.53125 -0.65625 -1.296875 -0.65625q-0.765625 0 -1.328125 0.671875q-0.546875 0.671875 -0.546875 1.9375zm15.490463 2.375q-0.578125 0.640625 -1.265625 0.96875q-0.671875 0.3125 -1.46875 0.3125q-1.46875 0 -2.328125 -0.984375q-0.6875 -0.8125 -0.6875 -1.796875q0 -0.890625 0.5625 -1.59375q0.578125 -0.71875 1.703125 -1.265625q-0.640625 -0.734375 -0.859375 -1.1875q-0.21875 -0.46875 -0.21875 -0.90625q0 -0.859375 0.671875 -1.484375q0.6875 -0.640625 1.703125 -0.640625q0.96875 0 1.59375 0.609375q0.625 0.59375 0.625 1.421875q0 1.359375 -1.796875 2.328125l1.703125 2.1875q0.296875 -0.578125 0.453125 -1.328125l1.21875 0.25q-0.3125 1.25 -0.84375 2.0625q0.65625 0.875 1.484375 1.46875l-0.78125 0.921875q-0.703125 -0.453125 -1.46875 -1.34375zm-2.375 -4.96875q0.765625 -0.453125 0.984375 -0.78125q0.21875 -0.34375 0.21875 -0.765625q0 -0.484375 -0.3125 -0.78125q-0.296875 -0.3125 -0.765625 -0.3125q-0.46875 0 -0.796875 0.3125q-0.3125 0.296875 -0.3125 0.734375q0 0.21875 0.109375 0.46875q0.125 0.25 0.34375 0.515625l0.53125 0.609375zm1.640625 4.046875l-2.140625 -2.671875q-0.953125 0.578125 -1.296875 1.0625q-0.328125 0.484375 -0.328125 0.953125q0 0.578125 0.46875 1.203125q0.46875 0.625 1.3125 0.625q0.515625 0 1.078125 -0.328125q0.578125 -0.328125 0.90625 -0.84375z" fill-rule="nonzero"/><path fill="#404040" d="m113.522446 171.42435l0 -1.171875q-0.875 -0.109375 -1.421875 -0.390625q-0.546875 -0.28125 -0.953125 -0.90625q-0.390625 -0.640625 -0.46875 -1.5625l1.1875 -0.21875q0.140625 0.953125 0.484375 1.390625q0.484375 0.625 1.171875 0.703125l0 -3.734375q-0.71875 -0.140625 -1.46875 -0.5625q-0.5625 -0.3125 -0.875 -0.859375q-0.296875 -0.5625 -0.296875 -1.265625q0 -1.25 0.890625 -2.015625q0.59375 -0.53125 1.75 -0.640625l0 -0.5625l0.703125 0l0 0.5625q1.015625 0.09375 1.609375 0.59375q0.765625 0.640625 0.921875 1.75l-1.203125 0.1875q-0.109375 -0.6875 -0.4375 -1.046875q-0.328125 -0.375 -0.890625 -0.5l0 3.375q0.875 0.234375 1.171875 0.359375q0.546875 0.234375 0.890625 0.578125q0.34375 0.34375 0.515625 0.828125q0.1875 0.46875 0.1875 1.015625q0 1.21875 -0.78125 2.03125q-0.765625 0.8125 -1.984375 0.875l0 1.1875l-0.703125 0zm0 -10.265625q-0.671875 0.109375 -1.078125 0.5625q-0.390625 0.4375 -0.390625 1.046875q0 0.59375 0.328125 1.0q0.34375 0.390625 1.140625 0.640625l0 -3.25zm0.703125 8.109375q0.671875 -0.09375 1.109375 -0.59375q0.453125 -0.515625 0.453125 -1.265625q0 -0.640625 -0.3125 -1.015625q-0.3125 -0.390625 -1.25 -0.703125l0 3.578125zm4.5531006 0.78125l0 -6.0l-1.03125 0l0 -0.90625l1.03125 0l0 -0.734375q0 -0.703125 0.125 -1.046875q0.171875 -0.453125 0.59375 -0.734375q0.421875 -0.28125 1.203125 -0.28125q0.484375 0 1.09375 0.109375l-0.1875 1.03125q-0.359375 -0.0625 -0.6875 -0.0625q-0.53125 0 -0.75 0.234375q-0.21875 0.21875 -0.21875 0.84375l0 0.640625l1.34375 0l0 0.90625l-1.34375 0l0 6.0l-1.171875 0zm3.4217377 0l0 -6.90625l1.0625 0l0 0.984375q0.75 -1.140625 2.1875 -1.140625q0.625 0 1.15625 0.21875q0.53125 0.21875 0.78125 0.59375q0.265625 0.359375 0.375 0.859375q0.0625 0.328125 0.0625 1.140625l0 4.25l-1.171875 0l0 -4.203125q0 -0.71875 -0.140625 -1.0625q-0.140625 -0.359375 -0.484375 -0.5625q-0.34375 -0.21875 -0.8125 -0.21875q-0.75 0 -1.296875 0.46875q-0.546875 0.46875 -0.546875 1.796875l0 3.78125l-1.171875 0zm11.506226 0l-1.171875 0l0 -7.46875q-0.421875 0.40625 -1.109375 0.8125q-0.6875 0.40625 -1.234375 0.609375l0 -1.140625q0.984375 -0.453125 1.71875 -1.109375q0.734375 -0.671875 1.03125 -1.28125l0.765625 0l0 9.578125zm5.5687256 2.8125q-0.984375 -1.234375 -1.65625 -2.875q-0.65625 -1.640625 -0.65625 -3.390625q0 -1.546875 0.5 -2.96875q0.578125 -1.640625 1.8125 -3.28125l0.828125 0q-0.78125 1.359375 -1.03125 1.9375q-0.40625 0.890625 -0.625 1.875q-0.28125 1.21875 -0.28125 2.4375q0 3.140625 1.9375 6.265625l-0.828125 0zm2.9539948 0l-0.828125 0q1.9375 -3.125 1.9375 -6.265625q0 -1.21875 -0.28125 -2.421875q-0.21875 -0.984375 -0.609375 -1.875q-0.265625 -0.59375 -1.046875 -1.953125l0.828125 0q1.234375 1.640625 1.8125 3.28125q0.5 1.421875 0.5 2.96875q0 1.75 -0.671875 3.390625q-0.671875 1.640625 -1.640625 2.875z" fill-rule="nonzero"/><path fill="#000000" fill-opacity="0.0" d="m19.112833 203.49606l72.66142 0l0 24.377945l-72.66142 0z" fill-rule="evenodd"/><path fill="#404040" d="m28.112833 225.45232l2.765625 -9.859375l0.9375 0l-2.765625 9.859375l-0.9375 0zm9.093615 -2.6875l1.15625 0.15625q-0.1875 1.1875 -0.96875 1.859375q-0.78125 0.671875 -1.921875 0.671875q-1.40625 0 -2.28125 -0.921875q-0.859375 -0.9375 -0.859375 -2.65625q0 -1.125 0.375 -1.96875q0.375 -0.84375 1.125 -1.25q0.765625 -0.421875 1.65625 -0.421875q1.125 0 1.84375 0.578125q0.71875 0.5625 0.921875 1.609375l-1.140625 0.171875q-0.171875 -0.703125 -0.59375 -1.046875q-0.40625 -0.359375 -0.984375 -0.359375q-0.890625 0 -1.453125 0.640625q-0.546875 0.640625 -0.546875 2.0q0 1.40625 0.53125 2.03125q0.546875 0.625 1.40625 0.625q0.6875 0 1.140625 -0.421875q0.46875 -0.421875 0.59375 -1.296875zm11.30455 1.40625q-0.578125 0.640625 -1.265625 0.96875q-0.671875 0.3125 -1.46875 0.3125q-1.46875 0 -2.328125 -0.984375q-0.6875 -0.8125 -0.6875 -1.796875q0 -0.890625 0.5625 -1.59375q0.578125 -0.71875 1.703125 -1.265625q-0.640625 -0.734375 -0.859375 -1.1875q-0.21875 -0.46875 -0.21875 -0.90625q0 -0.859375 0.671875 -1.484375q0.6875 -0.640625 1.703125 -0.640625q0.96875 0 1.59375 0.609375q0.625 0.59375 0.625 1.421875q0 1.359375 -1.796875 2.328125l1.703125 2.1875q0.296875 -0.578125 0.453125 -1.328125l1.21875 0.25q-0.3125 1.25 -0.84375 2.0625q0.65625 0.875 1.484375 1.46875l-0.78125 0.921875q-0.703125 -0.453125 -1.46875 -1.34375zm-2.375 -4.96875q0.765625 -0.453125 0.984375 -0.78125q0.21875 -0.34375 0.21875 -0.765625q0 -0.484375 -0.3125 -0.78125q-0.296875 -0.3125 -0.765625 -0.3125q-0.46875 0 -0.796875 0.3125q-0.3125 0.296875 -0.3125 0.734375q0 0.21875 0.109375 0.46875q0.125 0.25 0.34375 0.515625l0.53125 0.609375zm1.640625 4.046875l-2.140625 -2.671875q-0.953125 0.578125 -1.296875 1.0625q-0.328125 0.484375 -0.328125 0.953125q0 0.578125 0.46875 1.203125q0.46875 0.625 1.3125 0.625q0.515625 0 1.078125 -0.328125q0.578125 -0.328125 0.90625 -0.84375z" fill-rule="nonzero"/><path fill="#404040" d="m31.425333 242.67107l0 -1.171875q-0.875 -0.109375 -1.421875 -0.390625q-0.546875 -0.28125 -0.953125 -0.90625q-0.390625 -0.640625 -0.46875 -1.5625l1.1875 -0.21875q0.140625 0.953125 0.484375 1.390625q0.484375 0.625 1.171875 0.703125l0 -3.734375q-0.71875 -0.140625 -1.46875 -0.5625q-0.5625 -0.3125 -0.875 -0.859375q-0.296875 -0.5625 -0.296875 -1.265625q0 -1.25 0.890625 -2.015625q0.59375 -0.53125 1.75 -0.640625l0 -0.5625l0.7031269 0l0 0.5625q1.015625 0.09375 1.609375 0.59375q0.765625 0.640625 0.921875 1.75l-1.203125 0.1875q-0.109375 -0.6875 -0.4375 -1.046875q-0.328125 -0.375 -0.890625 -0.5l0 3.375q0.875 0.234375 1.171875 0.359375q0.546875 0.234375 0.890625 0.578125q0.34375 0.34375 0.515625 0.828125q0.1875 0.46875 0.1875 1.015625q0 1.21875 -0.78125 2.03125q-0.765625 0.8125 -1.984375 0.875l0 1.1875l-0.7031269 0zm0 -10.265625q-0.671875 0.109375 -1.078125 0.5625q-0.390625 0.4375 -0.390625 1.046875q0 0.59375 0.328125 1.0q0.34375 0.390625 1.140625 0.640625l0 -3.25zm0.7031269 8.109375q0.671875 -0.09375 1.109375 -0.59375q0.453125 -0.515625 0.453125 -1.265625q0 -0.640625 -0.3125 -1.015625q-0.3125 -0.390625 -1.25 -0.703125l0 3.578125zm4.5531006 0.78125l0 -6.0l-1.03125 0l0 -0.90625l1.03125 0l0 -0.734375q0 -0.703125 0.125 -1.046875q0.171875 -0.453125 0.59375 -0.734375q0.421875 -0.28125 1.203125 -0.28125q0.484375 0 1.09375 0.109375l-0.1875 1.03125q-0.359375 -0.0625 -0.6875 -0.0625q-0.53125 0 -0.75 0.234375q-0.21875 0.21875 -0.21875 0.84375l0 0.640625l1.34375 0l0 0.90625l-1.34375 0l0 6.0l-1.171875 0zm3.4217377 0l0 -6.90625l1.0625 0l0 0.984375q0.75 -1.140625 2.1875 -1.140625q0.625 0 1.15625 0.21875q0.53125 0.21875 0.78125 0.59375q0.265625 0.359375 0.375 0.859375q0.0625 0.328125 0.0625 1.140625l0 4.25l-1.171875 0l0 -4.203125q0 -0.71875 -0.140625 -1.0625q-0.140625 -0.359375 -0.484375 -0.5625q-0.34375 -0.21875 -0.8125 -0.21875q-0.75 0 -1.296875 0.46875q-0.546875 0.46875 -0.546875 1.796875l0 3.78125l-1.171875 0zm13.240601 -1.125l0 1.125l-6.296875 0q-0.015625 -0.421875 0.140625 -0.8125q0.234375 -0.640625 0.765625 -1.265625q0.53125 -0.625 1.53125 -1.453125q1.5625 -1.265625 2.109375 -2.015625q0.546875 -0.75 0.546875 -1.40625q0 -0.703125 -0.5 -1.171875q-0.5 -0.484375 -1.296875 -0.484375q-0.859375 0 -1.375 0.515625q-0.5 0.5 -0.5 1.390625l-1.203125 -0.109375q0.125 -1.359375 0.921875 -2.0625q0.8125 -0.703125 2.171875 -0.703125q1.375 0 2.171875 0.765625q0.8125 0.75 0.8125 1.875q0 0.578125 -0.234375 1.140625q-0.234375 0.546875 -0.78125 1.15625q-0.546875 0.609375 -1.8125 1.671875q-1.046875 0.890625 -1.359375 1.21875q-0.296875 0.3125 -0.484375 0.625l4.671875 0zm3.8343506 3.9375q-0.984375 -1.234375 -1.65625 -2.875q-0.65625 -1.640625 -0.65625 -3.390625q0 -1.546875 0.5 -2.96875q0.578125 -1.640625 1.8125 -3.28125l0.828125 0q-0.78125 1.359375 -1.03125 1.9375q-0.40625 0.890625 -0.625 1.875q-0.28125 1.21875 -0.28125 2.4375q0 3.140625 1.9375 6.265625l-0.828125 0zm2.9539948 0l-0.828125 0q1.9375 -3.125 1.9375 -6.265625q0 -1.21875 -0.28125 -2.421875q-0.21875 -0.984375 -0.609375 -1.875q-0.265625 -0.59375 -1.046875 -1.953125l0.828125 0q1.234375 1.640625 1.8125 3.28125q0.5 1.421875 0.5 2.96875q0 1.75 -0.671875 3.390625q-0.671875 1.640625 -1.640625 2.875z" fill-rule="nonzero"/><path fill="#000000" fill-opacity="0.0" d="m131.11284 203.49606l72.66141 0l0 24.377945l-72.66141 0z" fill-rule="evenodd"/><path fill="#404040" d="m140.11284 225.45232l2.765625 -9.859375l0.9375 0l-2.765625 9.859375l-0.9375 0zm9.093613 -2.6875l1.15625 0.15625q-0.1875 1.1875 -0.96875 1.859375q-0.78125 0.671875 -1.921875 0.671875q-1.40625 0 -2.28125 -0.921875q-0.859375 -0.9375 -0.859375 -2.65625q0 -1.125 0.375 -1.96875q0.375 -0.84375 1.125 -1.25q0.765625 -0.421875 1.65625 -0.421875q1.125 0 1.84375 0.578125q0.71875 0.5625 0.921875 1.609375l-1.140625 0.171875q-0.171875 -0.703125 -0.59375 -1.046875q-0.40625 -0.359375 -0.984375 -0.359375q-0.890625 0 -1.453125 0.640625q-0.546875 0.640625 -0.546875 2.0q0 1.40625 0.53125 2.03125q0.546875 0.625 1.40625 0.625q0.6875 0 1.140625 -0.421875q0.46875 -0.421875 0.59375 -1.296875zm11.30455 1.40625q-0.578125 0.640625 -1.265625 0.96875q-0.671875 0.3125 -1.46875 0.3125q-1.46875 0 -2.328125 -0.984375q-0.6875 -0.8125 -0.6875 -1.796875q0 -0.890625 0.5625 -1.59375q0.578125 -0.71875 1.703125 -1.265625q-0.640625 -0.734375 -0.859375 -1.1875q-0.21875 -0.46875 -0.21875 -0.90625q0 -0.859375 0.671875 -1.484375q0.6875 -0.640625 1.703125 -0.640625q0.96875 0 1.59375 0.609375q0.625 0.59375 0.625 1.421875q0 1.359375 -1.796875 2.328125l1.703125 2.1875q0.296875 -0.578125 0.453125 -1.328125l1.21875 0.25q-0.3125 1.25 -0.84375 2.0625q0.65625 0.875 1.484375 1.46875l-0.78125 0.921875q-0.703125 -0.453125 -1.46875 -1.34375zm-2.375 -4.96875q0.765625 -0.453125 0.984375 -0.78125q0.21875 -0.34375 0.21875 -0.765625q0 -0.484375 -0.3125 -0.78125q-0.296875 -0.3125 -0.765625 -0.3125q-0.46875 0 -0.796875 0.3125q-0.3125 0.296875 -0.3125 0.734375q0 0.21875 0.109375 0.46875q0.125 0.25 0.34375 0.515625l0.53125 0.609375zm1.640625 4.046875l-2.140625 -2.671875q-0.953125 0.578125 -1.296875 1.0625q-0.328125 0.484375 -0.328125 0.953125q0 0.578125 0.46875 1.203125q0.46875 0.625 1.3125 0.625q0.515625 0 1.078125 -0.328125q0.578125 -0.328125 0.90625 -0.84375z" fill-rule="nonzero"/><path fill="#404040" d="m143.42534 242.67107l0 -1.171875q-0.875 -0.109375 -1.421875 -0.390625q-0.546875 -0.28125 -0.953125 -0.90625q-0.390625 -0.640625 -0.46875 -1.5625l1.1875 -0.21875q0.140625 0.953125 0.484375 1.390625q0.484375 0.625 1.171875 0.703125l0 -3.734375q-0.71875 -0.140625 -1.46875 -0.5625q-0.5625 -0.3125 -0.875 -0.859375q-0.296875 -0.5625 -0.296875 -1.265625q0 -1.25 0.890625 -2.015625q0.59375 -0.53125 1.75 -0.640625l0 -0.5625l0.703125 0l0 0.5625q1.015625 0.09375 1.609375 0.59375q0.765625 0.640625 0.921875 1.75l-1.203125 0.1875q-0.109375 -0.6875 -0.4375 -1.046875q-0.328125 -0.375 -0.890625 -0.5l0 3.375q0.875 0.234375 1.171875 0.359375q0.546875 0.234375 0.890625 0.578125q0.34375 0.34375 0.515625 0.828125q0.1875 0.46875 0.1875 1.015625q0 1.21875 -0.78125 2.03125q-0.765625 0.8125 -1.984375 0.875l0 1.1875l-0.703125 0zm0 -10.265625q-0.671875 0.109375 -1.078125 0.5625q-0.390625 0.4375 -0.390625 1.046875q0 0.59375 0.328125 1.0q0.34375 0.390625 1.140625 0.640625l0 -3.25zm0.703125 8.109375q0.671875 -0.09375 1.109375 -0.59375q0.453125 -0.515625 0.453125 -1.265625q0 -0.640625 -0.3125 -1.015625q-0.3125 -0.390625 -1.25 -0.703125l0 3.578125zm4.5531006 0.78125l0 -6.0l-1.03125 0l0 -0.90625l1.03125 0l0 -0.734375q0 -0.703125 0.125 -1.046875q0.171875 -0.453125 0.59375 -0.734375q0.421875 -0.28125 1.203125 -0.28125q0.484375 0 1.09375 0.109375l-0.1875 1.03125q-0.359375 -0.0625 -0.6875 -0.0625q-0.53125 0 -0.75 0.234375q-0.21875 0.21875 -0.21875 0.84375l0 0.640625l1.34375 0l0 0.90625l-1.34375 0l0 6.0l-1.171875 0zm3.4217377 0l0 -6.90625l1.0625 0l0 0.984375q0.75 -1.140625 2.1875 -1.140625q0.625 0 1.15625 0.21875q0.53125 0.21875 0.78125 0.59375q0.265625 0.359375 0.375 0.859375q0.0625 0.328125 0.0625 1.140625l0 4.25l-1.171875 0l0 -4.203125q0 -0.71875 -0.140625 -1.0625q-0.140625 -0.359375 -0.484375 -0.5625q-0.34375 -0.21875 -0.8125 -0.21875q-0.75 0 -1.296875 0.46875q-0.546875 0.46875 -0.546875 1.796875l0 3.78125l-1.171875 0zm7.0999756 -2.515625l1.171875 -0.15625q0.203125 1.0 0.6875 1.4375q0.484375 0.4375 1.171875 0.4375q0.828125 0 1.390625 -0.578125q0.578125 -0.578125 0.578125 -1.421875q0 -0.796875 -0.53125 -1.3125q-0.515625 -0.53125 -1.328125 -0.53125q-0.34375 0 -0.828125 0.125l0.125 -1.03125q0.125 0.015625 0.1875 0.015625q0.75 0 1.34375 -0.390625q0.609375 -0.390625 0.609375 -1.203125q0 -0.640625 -0.4375 -1.0625q-0.4375 -0.421875 -1.125 -0.421875q-0.6875 0 -1.140625 0.4375q-0.453125 0.421875 -0.59375 1.28125l-1.171875 -0.21875q0.21875 -1.171875 0.984375 -1.8125q0.765625 -0.65625 1.890625 -0.65625q0.78125 0 1.4375 0.34375q0.65625 0.328125 1.0 0.90625q0.359375 0.578125 0.359375 1.234375q0 0.609375 -0.34375 1.125q-0.328125 0.5 -0.96875 0.796875q0.84375 0.203125 1.3125 0.828125q0.46875 0.609375 0.46875 1.53125q0 1.25 -0.921875 2.125q-0.90625 0.859375 -2.296875 0.859375q-1.25 0 -2.09375 -0.75q-0.828125 -0.75 -0.9375 -1.9375zm9.974976 5.328125q-0.984375 -1.234375 -1.65625 -2.875q-0.65625 -1.640625 -0.65625 -3.390625q0 -1.546875 0.5 -2.96875q0.578125 -1.640625 1.8125 -3.28125l0.828125 0q-0.78125 1.359375 -1.03125 1.9375q-0.40625 0.890625 -0.625 1.875q-0.28125 1.21875 -0.28125 2.4375q0 3.140625 1.9375 6.265625l-0.828125 0zm2.9539948 0l-0.828125 0q1.9375 -3.125 1.9375 -6.265625q0 -1.21875 -0.28125 -2.421875q-0.21875 -0.984375 -0.609375 -1.875q-0.265625 -0.59375 -1.046875 -1.953125l0.828125 0q1.234375 1.640625 1.8125 3.28125q0.5 1.421875 0.5 2.96875q0 1.75 -0.671875 3.390625q-0.671875 1.640625 -1.640625 2.875z" fill-rule="nonzero"/><path fill="#e8f2fa" d="m221.63255 53.188976l90.80315 0l0 32.94488l-90.80315 0z" fill-rule="evenodd"/><path stroke="#6db1dc" stroke-width="1.0" stroke-linejoin="round" stroke-linecap="butt" d="m221.63255 53.188976l90.80315 0l0 32.94488l-90.80315 0z" fill-rule="evenodd"/><path fill="#404040" d="m254.00446 74.46142l0 -9.546875l4.234375 0q1.265625 0 1.921875 0.265625q0.671875 0.25 1.0625 0.90625q0.40625 0.65625 0.40625 1.4375q0 1.015625 -0.65625 1.71875q-0.65625 0.6875 -2.03125 0.875q0.5 0.25 0.765625 0.484375q0.546875 0.5 1.046875 1.265625l1.65625 2.59375l-1.578125 0l-1.265625 -1.984375q-0.5625 -0.859375 -0.921875 -1.3125q-0.34375 -0.453125 -0.640625 -0.640625q-0.28125 -0.1875 -0.5625 -0.25q-0.21875 -0.046875 -0.703125 -0.046875l-1.46875 0l0 4.234375l-1.265625 0zm1.265625 -5.328125l2.71875 0q0.859375 0 1.34375 -0.171875q0.484375 -0.1875 0.734375 -0.578125q0.265625 -0.390625 0.265625 -0.859375q0 -0.671875 -0.5 -1.109375q-0.484375 -0.4375 -1.546875 -0.4375l-3.015625 0l0 3.15625zm7.7501526 1.875q0 -1.921875 1.078125 -2.84375q0.890625 -0.765625 2.171875 -0.765625q1.421875 0 2.328125 0.9375q0.90625 0.921875 0.90625 2.578125q0 1.328125 -0.40625 2.09375q-0.390625 0.765625 -1.15625 1.1875q-0.765625 0.421875 -1.671875 0.421875q-1.453125 0 -2.359375 -0.921875q-0.890625 -0.9375 -0.890625 -2.6875zm1.203125 0q0 1.328125 0.578125 1.984375q0.59375 0.65625 1.46875 0.65625q0.875 0 1.453125 -0.65625q0.578125 -0.671875 0.578125 -2.03125q0 -1.28125 -0.59375 -1.9375q-0.578125 -0.65625 -1.4375 -0.65625q-0.875 0 -1.46875 0.65625q-0.578125 0.65625 -0.578125 1.984375zm6.2093506 0q0 -1.921875 1.078125 -2.84375q0.890625 -0.765625 2.171875 -0.765625q1.421875 0 2.328125 0.9375q0.90625 0.921875 0.90625 2.578125q0 1.328125 -0.40625 2.09375q-0.390625 0.765625 -1.15625 1.1875q-0.765625 0.421875 -1.671875 0.421875q-1.453125 0 -2.359375 -0.921875q-0.890625 -0.9375 -0.890625 -2.6875zm1.203125 0q0 1.328125 0.578125 1.984375q0.59375 0.65625 1.46875 0.65625q0.875 0 1.453125 -0.65625q0.578125 -0.671875 0.578125 -2.03125q0 -1.28125 -0.59375 -1.9375q-0.578125 -0.65625 -1.4375 -0.65625q-0.875 0 -1.46875 0.65625q-0.578125 0.65625 -0.578125 1.984375zm9.209351 2.40625l0.171875 1.03125q-0.5 0.109375 -0.890625 0.109375q-0.640625 0 -1.0 -0.203125q-0.34375 -0.203125 -0.484375 -0.53125q-0.140625 -0.328125 -0.140625 -1.390625l0 -3.96875l-0.859375 0l0 -0.90625l0.859375 0l0 -1.71875l1.171875 -0.703125l0 2.421875l1.171875 0l0 0.90625l-1.171875 0l0 4.046875q0 0.5 0.046875 0.640625q0.0625 0.140625 0.203125 0.234375q0.140625 0.078125 0.40625 0.078125q0.203125 0 0.515625 -0.046875z" fill-rule="nonzero"/><path fill="#000000" fill-opacity="0.0" d="m267.03412 86.13386l0 43.244102" fill-rule="evenodd"/><path stroke="#6db1dc" stroke-width="1.0" stroke-linejoin="round" stroke-linecap="butt" d="m267.03412 86.13386l0 37.244095" fill-rule="evenodd"/><path fill="#6db1dc" stroke="#6db1dc" stroke-width="1.0" stroke-linecap="butt" d="m265.3824 123.37795l1.6517334 4.538101l1.6517334 -4.538101z" fill-rule="evenodd"/><path fill="#000000" fill-opacity="0.0" d="m189.20866 -1.8293964l155.65355 0l0 37.858265l-155.65355 0z" fill-rule="evenodd"/><path fill="#404040" d="m229.07059 16.874353q0 -1.749999 0.515625 -2.937499q0.390625 -0.875 1.0625 -1.5625q0.6875 -0.703125 1.484375 -1.046875q1.078125 -0.453125 2.46875 -0.453125q2.53125 0 4.046875 1.578125q1.53125 1.5625 1.53125 4.359374q0 2.78125 -1.515625 4.359375q-1.5 1.5625 -4.03125 1.5625q-2.546875 0 -4.0625 -1.5625q-1.5 -1.5625 -1.5 -4.296875zm2.375 -0.078125q0 1.9375 0.890625 2.953125q0.90625 1.0 2.296875 1.0q1.375 0 2.265625 -1.0q0.890625 -1.0 0.890625 -2.984375q0 -1.968749 -0.875 -2.937499q-0.859375 -0.96875 -2.28125 -0.96875q-1.4375 0 -2.3125 0.984375q-0.875 0.96875 -0.875 2.953124zm10.4609375 -2.562499l2.046875 0l0 1.21875q0.390625 -0.625 1.0625 -1.015625q0.6875 -0.390625 1.515625 -0.390625q1.453125 0 2.453125 1.140625q1.015625 1.124999 1.015625 3.140624q0 2.078125 -1.015625 3.234375q-1.015625 1.15625 -2.46875 1.15625q-0.6875 0 -1.25 -0.265625q-0.546875 -0.28125 -1.171875 -0.953125l0 4.1875l-2.1875 0l0 -11.453124zm2.171875 3.999999q0 1.40625 0.546875 2.078125q0.5625 0.65625 1.359375 0.65625q0.765625 0 1.265625 -0.609375q0.515625 -0.609375 0.515625 -2.015625q0 -1.296875 -0.53125 -1.921875q-0.515625 -0.64062405 -1.296875 -0.64062405q-0.796875 0 -1.328125 0.62499905q-0.53125 0.609375 -0.53125 1.828125zm11.4609375 -3.999999l0 1.75l-1.5 0l0 3.343749q0 1.015625 0.046875 1.1875q0.046875 0.15625 0.1875 0.265625q0.15625 0.109375 0.375 0.109375q0.3125 0 0.890625 -0.203125l0.1875 1.703125q-0.765625 0.328125 -1.734375 0.328125q-0.59375 0 -1.078125 -0.203125q-0.46875 -0.203125 -0.703125 -0.515625q-0.21875 -0.3125 -0.296875 -0.859375q-0.078125 -0.375 -0.078125 -1.546875l0 -3.609374l-1.0 0l0 -1.75l1.0 0l0 -1.65625l2.203125 -1.28125l0 2.9375l1.5 0zm1.53125 -1.125l0 -2.03125l2.1875 0l0 2.03125l-2.1875 0zm0 9.421874l0 -8.296874l2.1875 0l0 8.296874l-2.1875 0zm4.2734375 -8.296874l2.03125 0l0 1.125q1.078125 -1.3125 2.578125 -1.3125q0.796875 0 1.375 0.328125q0.59375 0.328125 0.96875 0.984375q0.546875 -0.65625 1.171875 -0.984375q0.640625 -0.328125 1.359375 -0.328125q0.921875 0 1.546875 0.375q0.640625 0.359375 0.953125 1.078125q0.21875 0.53124905 0.21875 1.718749l0 5.3125l-2.1875 0l0 -4.75q0 -1.234375 -0.234375 -1.59375q-0.296875 -0.46874905 -0.9375 -0.46874905q-0.453125 0 -0.859375 0.28125q-0.40625 0.28124905 -0.59375 0.82812405q-0.171875 0.546875 -0.171875 1.71875l0 3.984375l-2.203125 0l0 -4.546875q0 -1.21875 -0.125 -1.5625q-0.109375 -0.359375 -0.359375 -0.53124905q-0.234375 -0.171875 -0.65625 -0.171875q-0.515625 0 -0.921875 0.28125q-0.40625 0.26562405 -0.578125 0.78124905q-0.171875 0.515625 -0.171875 1.71875l0 4.03125l-2.203125 0l0 -8.296874zm14.3984375 -1.125l0 -2.03125l2.1875 0l0 2.03125l-2.1875 0zm0 9.421874l0 -8.296874l2.1875 0l0 8.296874l-2.1875 0zm3.5546875 0l0 -1.71875l3.109375 -3.5625q0.765625 -0.875 1.140625 -1.249999q-0.390625 0.031249046 -1.015625 0.031249046l-2.921875 0.015625l0 -1.812499l6.859375 0l0 1.546875l-3.171875 3.656249l-1.125 1.21875q0.921875 -0.0625 1.140625 -0.0625l3.390625 0l0 1.9375l-7.40625 0zm13.6875 -2.640625l2.1875 0.359375q-0.421875 1.203125 -1.328125 1.84375q-0.90625 0.625 -2.28125 0.625q-2.15625 0 -3.203125 -1.421875q-0.8125 -1.125 -0.8125 -2.859375q0 -2.0625 1.078125 -3.218749q1.078125 -1.171875 2.71875 -1.171875q1.859375 0 2.921875 1.21875q1.078125 1.218749 1.03125 3.749999l-5.5 0q0.015625 0.96875 0.515625 1.515625q0.515625 0.546875 1.28125 0.546875q0.515625 0 0.859375 -0.28125q0.359375 -0.28125 0.53125 -0.90625zm0.125 -2.21875q-0.015625 -0.953125 -0.484375 -1.453125q-0.46875 -0.49999905 -1.140625 -0.49999905q-0.71875 0 -1.1875 0.53124905q-0.46875 0.515625 -0.46875 1.421875l3.28125 0zm11.5859375 4.859375l-2.046875 0l0 -1.21875q-0.5 0.703125 -1.203125 1.0625q-0.6875 0.34375 -1.390625 0.34375q-1.421875 0 -2.453125 -1.15625q-1.015625 -1.15625 -1.015625 -3.21875q0 -2.109375 0.984375 -3.203124q1.0 -1.09375 2.515625 -1.09375q1.390625 0 2.40625 1.15625l0 -4.125l2.203125 0l0 11.453124zm-5.859375 -4.328125q0 1.328125 0.359375 1.921875q0.53125 0.859375 1.484375 0.859375q0.765625 0 1.296875 -0.640625q0.53125 -0.65625 0.53125 -1.9375q0 -1.421875 -0.515625 -2.046875q-0.515625 -0.64062405 -1.328125 -0.64062405q-0.78125 0 -1.3125 0.62499905q-0.515625 0.625 -0.515625 1.859375z" fill-rule="nonzero"/><path fill="#404040" d="m243.75809 41.530605l0 -11.453127l4.875 0q1.828125 0 2.65625 0.3125q0.84375 0.296875 1.34375 1.09375q0.5 0.7812519 0.5 1.7968769q0 1.296875 -0.765625 2.140625q-0.75 0.828125 -2.265625 1.046875q0.75 0.4375 1.234375 0.96875q0.5 0.515625 1.328125 1.859375l1.390625 2.234375l-2.765625 0l-1.671875 -2.5q-0.890625 -1.328125 -1.21875 -1.671875q-0.328125 -0.359375 -0.703125 -0.484375q-0.359375 -0.125 -1.15625 -0.125l-0.46875 0l0 4.78125l-2.3125 0zm2.3125 -6.609375l1.71875 0q1.65625 0 2.0625 -0.140625q0.421875 -0.140625 0.65625 -0.484375q0.234375 -0.34375 0.234375 -0.859375q0 -0.578125 -0.3125 -0.9375q-0.296875 -0.359375 -0.859375 -0.453125q-0.28125 -0.03125 -1.6875 -0.03125l-1.8125 0l0 2.90625zm14.0234375 3.96875l2.1875 0.359375q-0.421875 1.203125 -1.328125 1.84375q-0.90625 0.625 -2.28125 0.625q-2.15625 0 -3.203125 -1.421875q-0.8125 -1.125 -0.8125 -2.859375q0 -2.0625 1.078125 -3.21875q1.078125 -1.171875 2.71875 -1.171875q1.859375 0 2.921875 1.21875q1.078125 1.21875 1.03125 3.75l-5.5 0q0.015625 0.96875 0.515625 1.515625q0.515625 0.546875 1.28125 0.546875q0.515625 0 0.859375 -0.28125q0.359375 -0.28125 0.53125 -0.90625zm0.125 -2.21875q-0.015625 -0.953125 -0.484375 -1.453125q-0.46875 -0.5 -1.140625 -0.5q-0.71875 0 -1.1875 0.53125q-0.46875 0.515625 -0.46875 1.421875l3.28125 0zm3.1953125 2.484375l2.203125 -0.328125q0.140625 0.640625 0.5625 0.96875q0.4375 0.328125 1.21875 0.328125q0.84375 0 1.28125 -0.3125q0.28125 -0.21875 0.28125 -0.578125q0 -0.25 -0.15625 -0.421875q-0.15625 -0.15625 -0.734375 -0.28125q-2.65625 -0.59375 -3.359375 -1.078125q-0.984375 -0.671875 -0.984375 -1.859375q0 -1.078125 0.84375 -1.8125q0.859375 -0.734375 2.640625 -0.734375q1.703125 0 2.53125 0.5625q0.828125 0.546875 1.140625 1.625l-2.0625 0.390625q-0.140625 -0.484375 -0.515625 -0.734375q-0.359375 -0.265625 -1.046875 -0.265625q-0.875 0 -1.25 0.234375q-0.25 0.171875 -0.25 0.453125q0 0.234375 0.21875 0.390625q0.296875 0.21875 2.046875 0.625q1.765625 0.390625 2.453125 0.96875q0.6875 0.59375 0.6875 1.640625q0 1.140625 -0.953125 1.96875q-0.953125 0.8125 -2.8125 0.8125q-1.703125 0 -2.6875 -0.6875q-0.984375 -0.6875 -1.296875 -1.875zm15.1328125 2.375l0 -1.25q-0.453125 0.671875 -1.1875 1.0625q-0.734375 0.375 -1.5625 0.375q-0.828125 0 -1.5 -0.359375q-0.65625 -0.375 -0.953125 -1.03125q-0.296875 -0.671875 -0.296875 -1.84375l0 -5.25l2.1875 0l0 3.8125q0 1.75 0.125 2.140625q0.125 0.390625 0.4375 0.625q0.328125 0.234375 0.8125 0.234375q0.5625 0 1.0 -0.3125q0.453125 -0.3125 0.609375 -0.765625q0.171875 -0.453125 0.171875 -2.234375l0 -3.5l2.203125 0l0 8.296875l-2.046875 0zm4.3203125 0l0 -11.453127l2.1875 0l0 11.453127l-2.1875 0zm8.2421875 -8.296875l0 1.75l-1.5 0l0 3.34375q0 1.015625 0.046875 1.1875q0.046875 0.15625 0.1875 0.265625q0.15625 0.109375 0.375 0.109375q0.3125 0 0.890625 -0.203125l0.1875 1.703125q-0.765625 0.328125 -1.734375 0.328125q-0.59375 0 -1.078125 -0.203125q-0.46875 -0.203125 -0.703125 -0.515625q-0.21875 -0.3125 -0.296875 -0.859375q-0.078125 -0.375 -0.078125 -1.546875l0 -3.609375l-1.0 0l0 -1.75l1.0 0l0 -1.6562519l2.203125 -1.28125l0 2.937502l1.5 0z" fill-rule="nonzero"/><path fill="#e8f2fa" d="m257.25592 139.16405l0 0c0 -5.4010925 4.378418 -9.779526 9.7795105 -9.779526l0 0c2.593689 0 5.0811462 1.0303345 6.915161 2.8643494c1.8340149 1.8340149 2.86438 4.321472 2.86438 6.9151764l0 0c0 5.4010773 -4.3784485 9.779526 -9.779541 9.779526l0 0c-5.4010925 0 -9.7795105 -4.3784485 -9.7795105 -9.779526z" fill-rule="evenodd"/><path stroke="#6db1dc" stroke-width="1.0" stroke-linejoin="round" stroke-linecap="butt" d="m257.25592 139.16405l0 0c0 -5.4010925 4.378418 -9.779526 9.7795105 -9.779526l0 0c2.593689 0 5.0811462 1.0303345 6.915161 2.8643494c1.8340149 1.8340149 2.86438 4.321472 2.86438 6.9151764l0 0c0 5.4010773 -4.3784485 9.779526 -9.779541 9.779526l0 0c-5.4010925 0 -9.7795105 -4.3784485 -9.7795105 -9.779526z" fill-rule="evenodd"/><path fill="#000000" fill-opacity="0.0" d="m232.588 85.002625l51.81102 0l0 24.377953l-51.81102 0z" fill-rule="evenodd"/><path fill="#404040" d="m241.588 106.95888l2.765625 -9.859375l0.9375 0l-2.765625 9.859375l-0.9375 0zm4.2654877 -8.4375l0 -1.359375l1.265625 0l0 1.078125q0 0.875 -0.203125 1.25q-0.28125 0.53125 -0.875 0.796875l-0.28125 -0.453125q0.34375 -0.15625 0.515625 -0.453125q0.171875 -0.3125 0.1875 -0.859375l-0.609375 0zm2.015625 0l0 -1.359375l1.265625 0l0 1.078125q0 0.875 -0.203125 1.25q-0.28125 0.53125 -0.875 0.796875l-0.28125 -0.453125q0.34375 -0.15625 0.515625 -0.453125q0.171875 -0.3125 0.203125 -0.859375l-0.625 0zm7.2508698 7.421875q-0.65625 0.5625 -1.265625 0.796875q-0.59375 0.21875 -1.28125 0.21875q-1.140625 0 -1.75 -0.546875q-0.609375 -0.5625 -0.609375 -1.4375q0 -0.5 0.21875 -0.921875q0.234375 -0.421875 0.609375 -0.671875q0.375 -0.25 0.84375 -0.390625q0.34375 -0.078125 1.046875 -0.171875q1.421875 -0.171875 2.09375 -0.40625q0 -0.234375 0 -0.296875q0 -0.71875 -0.328125 -1.015625q-0.453125 -0.390625 -1.34375 -0.390625q-0.8125 0 -1.21875 0.296875q-0.390625 0.28125 -0.578125 1.015625l-1.140625 -0.15625q0.15625 -0.734375 0.515625 -1.1875q0.359375 -0.453125 1.03125 -0.6875q0.671875 -0.25 1.5625 -0.25q0.890625 0 1.4375 0.203125q0.5625 0.203125 0.8125 0.53125q0.26564026 0.3125 0.37501526 0.796875q0.046875 0.296875 0.046875 1.078125l0 1.5625q0 1.625 0.078125 2.0625q0.078125 0.4375 0.296875 0.828125l-1.2187653 0q-0.1875 -0.359375 -0.234375 -0.859375zm-0.09375 -2.609375q-0.640625 0.265625 -1.921875 0.4375q-0.71875 0.109375 -1.015625 0.25q-0.296875 0.125 -0.46875 0.375q-0.15625 0.25 -0.15625 0.546875q0 0.46875 0.34375 0.78125q0.359375 0.3125 1.046875 0.3125q0.671875 0 1.203125 -0.296875q0.53125 -0.296875 0.78125 -0.8125q0.1875 -0.390625 0.1875 -1.171875l0 -0.421875zm2.6781158 -4.8125l0 -1.359375l1.265625 0l0 1.078125q0 0.875 -0.203125 1.25q-0.28125 0.53125 -0.875 0.796875l-0.28125 -0.453125q0.34375 -0.15625 0.515625 -0.453125q0.171875 -0.3125 0.1875 -0.859375l-0.609375 0zm2.015625 0l0 -1.359375l1.265625 0l0 1.078125q0 0.875 -0.203125 1.25q-0.28125 0.53125 -0.875 0.796875l-0.28125 -0.453125q0.34375 -0.15625 0.515625 -0.453125q0.171875 -0.3125 0.203125 -0.859375l-0.625 0z" fill-rule="nonzero"/><path fill="#e8f2fa" d="m256.4344 201.71523l0 0c0 -5.4010925 4.3784485 -9.779526 9.7795105 -9.779526l0 0c2.5937195 0 5.0811768 1.0303345 6.9151917 2.8643494c1.8340149 1.8340149 2.8643494 4.3214874 2.8643494 6.9151764l0 0c0 5.4010773 -4.3784485 9.779526 -9.779541 9.779526l0 0c-5.401062 0 -9.7795105 -4.3784485 -9.7795105 -9.779526z" fill-rule="evenodd"/><path stroke="#6db1dc" stroke-width="1.0" stroke-linejoin="round" stroke-linecap="butt" d="m256.4344 201.71523l0 0c0 -5.4010925 4.3784485 -9.779526 9.7795105 -9.779526l0 0c2.5937195 0 5.0811768 1.0303345 6.9151917 2.8643494c1.8340149 1.8340149 2.8643494 4.3214874 2.8643494 6.9151764l0 0c0 5.4010773 -4.3784485 9.779526 -9.779541 9.779526l0 0c-5.401062 0 -9.7795105 -4.3784485 -9.7795105 -9.779526z" fill-rule="evenodd"/><path fill="#000000" fill-opacity="0.0" d="m267.03543 148.94357l-0.8189087 42.992126" fill-rule="evenodd"/><path stroke="#6db1dc" stroke-width="1.0" stroke-linejoin="round" stroke-linecap="butt" d="m267.03543 148.94357l-0.7046509 36.99321" fill-rule="evenodd"/><path fill="#6db1dc" stroke="#6db1dc" stroke-width="1.0" stroke-linecap="butt" d="m264.67938 185.90533l1.5650024 4.5687256l1.737854 -4.5058136z" fill-rule="evenodd"/><path fill="#e8f2fa" d="m202.07217 281.7152l0 0c0 -5.401062 4.3784485 -9.7795105 9.779526 -9.7795105l0 0c2.5937042 0 5.0811615 1.0303345 6.9151764 2.8643494c1.8340149 1.8340149 2.8643646 4.321472 2.8643646 6.915161l0 0c0 5.4010925 -4.3784485 9.779541 -9.779541 9.779541l0 0c-5.4010773 0 -9.779526 -4.3784485 -9.779526 -9.779541z" fill-rule="evenodd"/><path stroke="#6db1dc" stroke-width="1.0" stroke-linejoin="round" stroke-linecap="butt" d="m202.07217 281.7152l0 0c0 -5.401062 4.3784485 -9.7795105 9.779526 -9.7795105l0 0c2.5937042 0 5.0811615 1.0303345 6.9151764 2.8643494c1.8340149 1.8340149 2.8643646 4.321472 2.8643646 6.915161l0 0c0 5.4010925 -4.3784485 9.779541 -9.779541 9.779541l0 0c-5.4010773 0 -9.779526 -4.3784485 -9.779526 -9.779541z" fill-rule="evenodd"/><path fill="#e8f2fa" d="m312.4344 281.7152l0 0c0 -5.401062 4.3784485 -9.7795105 9.7795105 -9.7795105l0 0c2.5937195 0 5.0811768 1.0303345 6.9151917 2.8643494c1.8340149 1.8340149 2.8643494 4.321472 2.8643494 6.915161l0 0c0 5.4010925 -4.3784485 9.779541 -9.779541 9.779541l0 0c-5.401062 0 -9.7795105 -4.3784485 -9.7795105 -9.779541z" fill-rule="evenodd"/><path stroke="#6db1dc" stroke-width="1.0" stroke-linejoin="round" stroke-linecap="butt" d="m312.4344 281.7152l0 0c0 -5.401062 4.3784485 -9.7795105 9.7795105 -9.7795105l0 0c2.5937195 0 5.0811768 1.0303345 6.9151917 2.8643494c1.8340149 1.8340149 2.8643494 4.321472 2.8643494 6.915161l0 0c0 5.4010925 -4.3784485 9.779541 -9.779541 9.779541l0 0c-5.401062 0 -9.7795105 -4.3784485 -9.7795105 -9.779541z" fill-rule="evenodd"/><path fill="#000000" fill-opacity="0.0" d="m266.2139 211.49475l-54.362198 60.44095" fill-rule="evenodd"/><path stroke="#6db1dc" stroke-width="1.0" stroke-linejoin="round" stroke-linecap="butt" d="m266.2139 211.49475l-50.349808 55.97992" fill-rule="evenodd"/><path fill="#6db1dc" stroke="#6db1dc" stroke-width="1.0" stroke-linecap="butt" d="m214.636 266.3701l-1.8066711 4.478668l4.2628174 -2.2695312z" fill-rule="evenodd"/><path fill="#000000" fill-opacity="0.0" d="m266.2139 211.49475l56.0 60.44095" fill-rule="evenodd"/><path stroke="#6db1dc" stroke-width="1.0" stroke-linejoin="round" stroke-linecap="butt" d="m266.2139 211.49475l51.92215 56.039703" fill-rule="evenodd"/><path fill="#6db1dc" stroke="#6db1dc" stroke-width="1.0" stroke-linecap="butt" d="m316.92444 268.65704l4.2958984 2.2062988l-1.8726807 -4.451477z" fill-rule="evenodd"/><path fill="#000000" fill-opacity="0.0" d="m261.20996 140.24934l72.66141 0l0 24.37796l-72.66141 0z" fill-rule="evenodd"/><path fill="#404040" d="m270.20996 162.2056l2.765625 -9.859375l0.9375 0l-2.765625 9.859375l-0.9375 0zm5.6560974 -0.15625l-1.078125 0l0 -9.546875l1.171875 0l0 3.40625q0.734375 -0.921875 1.890625 -0.921875q0.640625 0 1.203125 0.265625q0.578125 0.25 0.9375 0.71875q0.375 0.453125 0.578125 1.109375q0.203125 0.65625 0.203125 1.40625q0 1.78125 -0.875 2.75q-0.875 0.96875 -2.109375 0.96875q-1.21875 0 -1.921875 -1.015625l0 0.859375zm0 -3.5q0 1.234375 0.328125 1.78125q0.5625 0.90625 1.5 0.90625q0.765625 0 1.328125 -0.65625q0.5625 -0.671875 0.5625 -2.0q0 -1.34375 -0.546875 -1.984375q-0.53125 -0.65625 -1.296875 -0.65625q-0.765625 0 -1.328125 0.671875q-0.546875 0.671875 -0.546875 1.9375zm15.4904785 2.375q-0.578125 0.640625 -1.265625 0.96875q-0.671875 0.3125 -1.46875 0.3125q-1.46875 0 -2.328125 -0.984375q-0.6875 -0.8125 -0.6875 -1.796875q0 -0.890625 0.5625 -1.59375q0.578125 -0.71875 1.703125 -1.265625q-0.640625 -0.734375 -0.859375 -1.1875q-0.21875 -0.46875 -0.21875 -0.90625q0 -0.859375 0.671875 -1.484375q0.6875 -0.640625 1.703125 -0.640625q0.96875 0 1.59375 0.609375q0.625 0.59375 0.625 1.421875q0 1.359375 -1.796875 2.328125l1.703125 2.1875q0.296875 -0.578125 0.453125 -1.328125l1.21875 0.25q-0.3125 1.25 -0.84375 2.0625q0.65625 0.875 1.484375 1.46875l-0.78125 0.921875q-0.703125 -0.453125 -1.46875 -1.34375zm-2.375 -4.96875q0.765625 -0.453125 0.984375 -0.78125q0.21875 -0.34375 0.21875 -0.765625q0 -0.484375 -0.3125 -0.78125q-0.296875 -0.3125 -0.765625 -0.3125q-0.46875 0 -0.796875 0.3125q-0.3125 0.296875 -0.3125 0.734375q0 0.21875 0.109375 0.46875q0.125 0.25 0.34375 0.515625l0.53125 0.609375zm1.640625 4.046875l-2.140625 -2.671875q-0.953125 0.578125 -1.296875 1.0625q-0.328125 0.484375 -0.328125 0.953125q0 0.578125 0.46875 1.203125q0.46875 0.625 1.3125 0.625q0.515625 0 1.078125 -0.328125q0.578125 -0.328125 0.90625 -0.84375z" fill-rule="nonzero"/><path fill="#404040" d="m273.52246 179.42435l0 -1.171875q-0.875 -0.109375 -1.421875 -0.390625q-0.546875 -0.28125 -0.953125 -0.90625q-0.390625 -0.640625 -0.46875 -1.5625l1.1875 -0.21875q0.140625 0.953125 0.484375 1.390625q0.484375 0.625 1.171875 0.703125l0 -3.734375q-0.71875 -0.140625 -1.46875 -0.5625q-0.5625 -0.3125 -0.875 -0.859375q-0.296875 -0.5625 -0.296875 -1.265625q0 -1.25 0.890625 -2.015625q0.59375 -0.53125 1.75 -0.640625l0 -0.5625l0.703125 0l0 0.5625q1.015625 0.09375 1.609375 0.59375q0.765625 0.640625 0.921875 1.75l-1.203125 0.1875q-0.109375 -0.6875 -0.4375 -1.046875q-0.328125 -0.375 -0.890625 -0.5l0 3.375q0.875 0.234375 1.171875 0.359375q0.546875 0.234375 0.890625 0.578125q0.34375 0.34375 0.515625 0.828125q0.1875 0.46875 0.1875 1.015625q0 1.21875 -0.78125 2.03125q-0.765625 0.8125 -1.984375 0.875l0 1.1875l-0.703125 0zm0 -10.265625q-0.671875 0.109375 -1.078125 0.5625q-0.390625 0.4375 -0.390625 1.046875q0 0.59375 0.328125 1.0q0.34375 0.390625 1.140625 0.640625l0 -3.25zm0.703125 8.109375q0.671875 -0.09375 1.109375 -0.59375q0.453125 -0.515625 0.453125 -1.265625q0 -0.640625 -0.3125 -1.015625q-0.3125 -0.390625 -1.25 -0.703125l0 3.578125zm4.5531006 0.78125l0 -6.0l-1.03125 0l0 -0.90625l1.03125 0l0 -0.734375q0 -0.703125 0.125 -1.046875q0.171875 -0.453125 0.59375 -0.734375q0.421875 -0.28125 1.203125 -0.28125q0.484375 0 1.09375 0.109375l-0.1875 1.03125q-0.359375 -0.0625 -0.6875 -0.0625q-0.53125 0 -0.75 0.234375q-0.21875 0.21875 -0.21875 0.84375l0 0.640625l1.34375 0l0 0.90625l-1.34375 0l0 6.0l-1.171875 0zm3.4217224 0l0 -6.90625l1.0625 0l0 0.984375q0.75 -1.140625 2.1875 -1.140625q0.625 0 1.15625 0.21875q0.53125 0.21875 0.78125 0.59375q0.265625 0.359375 0.375 0.859375q0.0625 0.328125 0.0625 1.140625l0 4.25l-1.171875 0l0 -4.203125q0 -0.71875 -0.140625 -1.0625q-0.140625 -0.359375 -0.484375 -0.5625q-0.34375 -0.21875 -0.8125 -0.21875q-0.75 0 -1.296875 0.46875q-0.546875 0.46875 -0.546875 1.796875l0 3.78125l-1.171875 0zm11.506226 0l-1.171875 0l0 -7.46875q-0.421875 0.40625 -1.109375 0.8125q-0.6875 0.40625 -1.234375 0.609375l0 -1.140625q0.984375 -0.453125 1.71875 -1.109375q0.734375 -0.671875 1.03125 -1.28125l0.765625 0l0 9.578125zm5.5687256 2.8125q-0.984375 -1.234375 -1.65625 -2.875q-0.65625 -1.640625 -0.65625 -3.390625q0 -1.546875 0.5 -2.96875q0.578125 -1.640625 1.8125 -3.28125l0.828125 0q-0.78125 1.359375 -1.03125 1.9375q-0.40625 0.890625 -0.625 1.875q-0.28125 1.21875 -0.28125 2.4375q0 3.140625 1.9375 6.265625l-0.828125 0zm2.95401 0l-0.828125 0q1.9375 -3.125 1.9375 -6.265625q0 -1.21875 -0.28125 -2.421875q-0.21875 -0.984375 -0.609375 -1.875q-0.265625 -0.59375 -1.046875 -1.953125l0.828125 0q1.234375 1.640625 1.8125 3.28125q0.5 1.421875 0.5 2.96875q0 1.75 -0.671875 3.390625q-0.671875 1.640625 -1.640625 2.875z" fill-rule="nonzero"/><path fill="#000000" fill-opacity="0.0" d="m203.11284 203.49606l72.66142 0l0 24.377945l-72.66142 0z" fill-rule="evenodd"/><path fill="#404040" d="m212.11284 225.45232l2.765625 -9.859375l0.9375 0l-2.765625 9.859375l-0.9375 0zm9.093613 -2.6875l1.15625 0.15625q-0.1875 1.1875 -0.96875 1.859375q-0.78125 0.671875 -1.921875 0.671875q-1.40625 0 -2.28125 -0.921875q-0.859375 -0.9375 -0.859375 -2.65625q0 -1.125 0.375 -1.96875q0.375 -0.84375 1.125 -1.25q0.765625 -0.421875 1.65625 -0.421875q1.125 0 1.84375 0.578125q0.71875 0.5625 0.921875 1.609375l-1.140625 0.171875q-0.171875 -0.703125 -0.59375 -1.046875q-0.40625 -0.359375 -0.984375 -0.359375q-0.890625 0 -1.453125 0.640625q-0.546875 0.640625 -0.546875 2.0q0 1.40625 0.53125 2.03125q0.546875 0.625 1.40625 0.625q0.6875 0 1.140625 -0.421875q0.46875 -0.421875 0.59375 -1.296875zm11.30455 1.40625q-0.578125 0.640625 -1.265625 0.96875q-0.671875 0.3125 -1.46875 0.3125q-1.46875 0 -2.328125 -0.984375q-0.6875 -0.8125 -0.6875 -1.796875q0 -0.890625 0.5625 -1.59375q0.578125 -0.71875 1.703125 -1.265625q-0.640625 -0.734375 -0.859375 -1.1875q-0.21875 -0.46875 -0.21875 -0.90625q0 -0.859375 0.671875 -1.484375q0.6875 -0.640625 1.703125 -0.640625q0.96875 0 1.59375 0.609375q0.625 0.59375 0.625 1.421875q0 1.359375 -1.796875 2.328125l1.703125 2.1875q0.296875 -0.578125 0.453125 -1.328125l1.21875 0.25q-0.3125 1.25 -0.84375 2.0625q0.65625 0.875 1.484375 1.46875l-0.78125 0.921875q-0.703125 -0.453125 -1.46875 -1.34375zm-2.375 -4.96875q0.765625 -0.453125 0.984375 -0.78125q0.21875 -0.34375 0.21875 -0.765625q0 -0.484375 -0.3125 -0.78125q-0.296875 -0.3125 -0.765625 -0.3125q-0.46875 0 -0.796875 0.3125q-0.3125 0.296875 -0.3125 0.734375q0 0.21875 0.109375 0.46875q0.125 0.25 0.34375 0.515625l0.53125 0.609375zm1.640625 4.046875l-2.140625 -2.671875q-0.953125 0.578125 -1.296875 1.0625q-0.328125 0.484375 -0.328125 0.953125q0 0.578125 0.46875 1.203125q0.46875 0.625 1.3125 0.625q0.515625 0 1.078125 -0.328125q0.578125 -0.328125 0.90625 -0.84375z" fill-rule="nonzero"/><path fill="#404040" d="m215.42534 242.67107l0 -1.171875q-0.875 -0.109375 -1.421875 -0.390625q-0.546875 -0.28125 -0.953125 -0.90625q-0.390625 -0.640625 -0.46875 -1.5625l1.1875 -0.21875q0.140625 0.953125 0.484375 1.390625q0.484375 0.625 1.171875 0.703125l0 -3.734375q-0.71875 -0.140625 -1.46875 -0.5625q-0.5625 -0.3125 -0.875 -0.859375q-0.296875 -0.5625 -0.296875 -1.265625q0 -1.25 0.890625 -2.015625q0.59375 -0.53125 1.75 -0.640625l0 -0.5625l0.703125 0l0 0.5625q1.015625 0.09375 1.609375 0.59375q0.765625 0.640625 0.921875 1.75l-1.203125 0.1875q-0.109375 -0.6875 -0.4375 -1.046875q-0.328125 -0.375 -0.890625 -0.5l0 3.375q0.875 0.234375 1.171875 0.359375q0.546875 0.234375 0.890625 0.578125q0.34375 0.34375 0.515625 0.828125q0.1875 0.46875 0.1875 1.015625q0 1.21875 -0.78125 2.03125q-0.765625 0.8125 -1.984375 0.875l0 1.1875l-0.703125 0zm0 -10.265625q-0.671875 0.109375 -1.078125 0.5625q-0.390625 0.4375 -0.390625 1.046875q0 0.59375 0.328125 1.0q0.34375 0.390625 1.140625 0.640625l0 -3.25zm0.703125 8.109375q0.671875 -0.09375 1.109375 -0.59375q0.453125 -0.515625 0.453125 -1.265625q0 -0.640625 -0.3125 -1.015625q-0.3125 -0.390625 -1.25 -0.703125l0 3.578125zm4.5531006 0.78125l0 -6.0l-1.03125 0l0 -0.90625l1.03125 0l0 -0.734375q0 -0.703125 0.125 -1.046875q0.171875 -0.453125 0.59375 -0.734375q0.421875 -0.28125 1.203125 -0.28125q0.484375 0 1.09375 0.109375l-0.1875 1.03125q-0.359375 -0.0625 -0.6875 -0.0625q-0.53125 0 -0.75 0.234375q-0.21875 0.21875 -0.21875 0.84375l0 0.640625l1.34375 0l0 0.90625l-1.34375 0l0 6.0l-1.171875 0zm3.4217377 0l0 -6.90625l1.0625 0l0 0.984375q0.75 -1.140625 2.1875 -1.140625q0.625 0 1.15625 0.21875q0.53125 0.21875 0.78125 0.59375q0.265625 0.359375 0.375 0.859375q0.0625 0.328125 0.0625 1.140625l0 4.25l-1.171875 0l0 -4.203125q0 -0.71875 -0.140625 -1.0625q-0.140625 -0.359375 -0.484375 -0.5625q-0.34375 -0.21875 -0.8125 -0.21875q-0.75 0 -1.296875 0.46875q-0.546875 0.46875 -0.546875 1.796875l0 3.78125l-1.171875 0zm13.240601 -1.125l0 1.125l-6.296875 0q-0.015625 -0.421875 0.140625 -0.8125q0.234375 -0.640625 0.765625 -1.265625q0.53125 -0.625 1.53125 -1.453125q1.5625 -1.265625 2.109375 -2.015625q0.546875 -0.75 0.546875 -1.40625q0 -0.703125 -0.5 -1.171875q-0.5 -0.484375 -1.296875 -0.484375q-0.859375 0 -1.375 0.515625q-0.5 0.5 -0.5 1.390625l-1.203125 -0.109375q0.125 -1.359375 0.921875 -2.0625q0.8125 -0.703125 2.171875 -0.703125q1.375 0 2.171875 0.765625q0.8125 0.75 0.8125 1.875q0 0.578125 -0.234375 1.140625q-0.234375 0.546875 -0.78125 1.15625q-0.546875 0.609375 -1.8125 1.671875q-1.046875 0.890625 -1.359375 1.21875q-0.296875 0.3125 -0.484375 0.625l4.671875 0zm3.8343506 3.9375q-0.984375 -1.234375 -1.65625 -2.875q-0.65625 -1.640625 -0.65625 -3.390625q0 -1.546875 0.5 -2.96875q0.578125 -1.640625 1.8125 -3.28125l0.828125 0q-0.78125 1.359375 -1.03125 1.9375q-0.40625 0.890625 -0.625 1.875q-0.28125 1.21875 -0.28125 2.4375q0 3.140625 1.9375 6.265625l-0.828125 0zm2.9539948 0l-0.828125 0q1.9375 -3.125 1.9375 -6.265625q0 -1.21875 -0.28125 -2.421875q-0.21875 -0.984375 -0.609375 -1.875q-0.265625 -0.59375 -1.046875 -1.953125l0.828125 0q1.234375 1.640625 1.8125 3.28125q0.5 1.421875 0.5 2.96875q0 1.75 -0.671875 3.390625q-0.671875 1.640625 -1.640625 2.875z" fill-rule="nonzero"/><path fill="#000000" fill-opacity="0.0" d="m283.11282 203.49606l72.66144 0l0 24.377945l-72.66144 0z" fill-rule="evenodd"/><path fill="#404040" d="m292.11282 225.45232l2.765625 -9.859375l0.9375 0l-2.765625 9.859375l-0.9375 0zm9.093628 -2.6875l1.15625 0.15625q-0.1875 1.1875 -0.96875 1.859375q-0.78125 0.671875 -1.921875 0.671875q-1.40625 0 -2.28125 -0.921875q-0.859375 -0.9375 -0.859375 -2.65625q0 -1.125 0.375 -1.96875q0.375 -0.84375 1.125 -1.25q0.765625 -0.421875 1.65625 -0.421875q1.125 0 1.84375 0.578125q0.71875 0.5625 0.921875 1.609375l-1.140625 0.171875q-0.171875 -0.703125 -0.59375 -1.046875q-0.40625 -0.359375 -0.984375 -0.359375q-0.890625 0 -1.453125 0.640625q-0.546875 0.640625 -0.546875 2.0q0 1.40625 0.53125 2.03125q0.546875 0.625 1.40625 0.625q0.6875 0 1.140625 -0.421875q0.46875 -0.421875 0.59375 -1.296875zm11.304535 1.40625q-0.578125 0.640625 -1.265625 0.96875q-0.671875 0.3125 -1.46875 0.3125q-1.46875 0 -2.328125 -0.984375q-0.6875 -0.8125 -0.6875 -1.796875q0 -0.890625 0.5625 -1.59375q0.578125 -0.71875 1.703125 -1.265625q-0.640625 -0.734375 -0.859375 -1.1875q-0.21875 -0.46875 -0.21875 -0.90625q0 -0.859375 0.671875 -1.484375q0.6875 -0.640625 1.703125 -0.640625q0.96875 0 1.59375 0.609375q0.625 0.59375 0.625 1.421875q0 1.359375 -1.796875 2.328125l1.703125 2.1875q0.296875 -0.578125 0.453125 -1.328125l1.21875 0.25q-0.3125 1.25 -0.84375 2.0625q0.65625 0.875 1.484375 1.46875l-0.78125 0.921875q-0.703125 -0.453125 -1.46875 -1.34375zm-2.375 -4.96875q0.765625 -0.453125 0.984375 -0.78125q0.21875 -0.34375 0.21875 -0.765625q0 -0.484375 -0.3125 -0.78125q-0.296875 -0.3125 -0.765625 -0.3125q-0.46875 0 -0.796875 0.3125q-0.3125 0.296875 -0.3125 0.734375q0 0.21875 0.109375 0.46875q0.125 0.25 0.34375 0.515625l0.53125 0.609375zm1.640625 4.046875l-2.140625 -2.671875q-0.953125 0.578125 -1.296875 1.0625q-0.328125 0.484375 -0.328125 0.953125q0 0.578125 0.46875 1.203125q0.46875 0.625 1.3125 0.625q0.515625 0 1.078125 -0.328125q0.578125 -0.328125 0.90625 -0.84375z" fill-rule="nonzero"/><path fill="#404040" d="m295.42532 242.67107l0 -1.171875q-0.875 -0.109375 -1.421875 -0.390625q-0.546875 -0.28125 -0.953125 -0.90625q-0.390625 -0.640625 -0.46875 -1.5625l1.1875 -0.21875q0.140625 0.953125 0.484375 1.390625q0.484375 0.625 1.171875 0.703125l0 -3.734375q-0.71875 -0.140625 -1.46875 -0.5625q-0.5625 -0.3125 -0.875 -0.859375q-0.296875 -0.5625 -0.296875 -1.265625q0 -1.25 0.890625 -2.015625q0.59375 -0.53125 1.75 -0.640625l0 -0.5625l0.703125 0l0 0.5625q1.015625 0.09375 1.609375 0.59375q0.765625 0.640625 0.921875 1.75l-1.203125 0.1875q-0.109375 -0.6875 -0.4375 -1.046875q-0.328125 -0.375 -0.890625 -0.5l0 3.375q0.875 0.234375 1.171875 0.359375q0.546875 0.234375 0.890625 0.578125q0.34375 0.34375 0.515625 0.828125q0.1875 0.46875 0.1875 1.015625q0 1.21875 -0.78125 2.03125q-0.765625 0.8125 -1.984375 0.875l0 1.1875l-0.703125 0zm0 -10.265625q-0.671875 0.109375 -1.078125 0.5625q-0.390625 0.4375 -0.390625 1.046875q0 0.59375 0.328125 1.0q0.34375 0.390625 1.140625 0.640625l0 -3.25zm0.703125 8.109375q0.671875 -0.09375 1.109375 -0.59375q0.453125 -0.515625 0.453125 -1.265625q0 -0.640625 -0.3125 -1.015625q-0.3125 -0.390625 -1.25 -0.703125l0 3.578125zm4.5531006 0.78125l0 -6.0l-1.03125 0l0 -0.90625l1.03125 0l0 -0.734375q0 -0.703125 0.125 -1.046875q0.171875 -0.453125 0.59375 -0.734375q0.421875 -0.28125 1.203125 -0.28125q0.484375 0 1.09375 0.109375l-0.1875 1.03125q-0.359375 -0.0625 -0.6875 -0.0625q-0.53125 0 -0.75 0.234375q-0.21875 0.21875 -0.21875 0.84375l0 0.640625l1.34375 0l0 0.90625l-1.34375 0l0 6.0l-1.171875 0zm3.421753 0l0 -6.90625l1.0625 0l0 0.984375q0.75 -1.140625 2.1875 -1.140625q0.625 0 1.15625 0.21875q0.53125 0.21875 0.78125 0.59375q0.265625 0.359375 0.375 0.859375q0.0625 0.328125 0.0625 1.140625l0 4.25l-1.171875 0l0 -4.203125q0 -0.71875 -0.140625 -1.0625q-0.140625 -0.359375 -0.484375 -0.5625q-0.34375 -0.21875 -0.8125 -0.21875q-0.75 0 -1.296875 0.46875q-0.546875 0.46875 -0.546875 1.796875l0 3.78125l-1.171875 0zm7.0999756 -2.515625l1.171875 -0.15625q0.203125 1.0 0.6875 1.4375q0.484375 0.4375 1.171875 0.4375q0.828125 0 1.390625 -0.578125q0.578125 -0.578125 0.578125 -1.421875q0 -0.796875 -0.53125 -1.3125q-0.515625 -0.53125 -1.328125 -0.53125q-0.34375 0 -0.828125 0.125l0.125 -1.03125q0.125 0.015625 0.1875 0.015625q0.75 0 1.34375 -0.390625q0.609375 -0.390625 0.609375 -1.203125q0 -0.640625 -0.4375 -1.0625q-0.4375 -0.421875 -1.125 -0.421875q-0.6875 0 -1.140625 0.4375q-0.453125 0.421875 -0.59375 1.28125l-1.171875 -0.21875q0.21875 -1.171875 0.984375 -1.8125q0.765625 -0.65625 1.890625 -0.65625q0.78125 0 1.4375 0.34375q0.65625 0.328125 1.0 0.90625q0.359375 0.578125 0.359375 1.234375q0 0.609375 -0.34375 1.125q-0.328125 0.5 -0.96875 0.796875q0.84375 0.203125 1.3125 0.828125q0.46875 0.609375 0.46875 1.53125q0 1.25 -0.921875 2.125q-0.90625 0.859375 -2.296875 0.859375q-1.25 0 -2.09375 -0.75q-0.828125 -0.75 -0.9375 -1.9375zm9.974976 5.328125q-0.984375 -1.234375 -1.65625 -2.875q-0.65625 -1.640625 -0.65625 -3.390625q0 -1.546875 0.5 -2.96875q0.578125 -1.640625 1.8125 -3.28125l0.828125 0q-0.78125 1.359375 -1.03125 1.9375q-0.40625 0.890625 -0.625 1.875q-0.28125 1.21875 -0.28125 2.4375q0 3.140625 1.9375 6.265625l-0.828125 0zm2.9539795 0l-0.828125 0q1.9375 -3.125 1.9375 -6.265625q0 -1.21875 -0.28125 -2.421875q-0.21875 -0.984375 -0.609375 -1.875q-0.265625 -0.59375 -1.046875 -1.953125l0.828125 0q1.234375 1.640625 1.8125 3.28125q0.5 1.421875 0.5 2.96875q0 1.75 -0.671875 3.390625q-0.671875 1.640625 -1.640625 2.875z" fill-rule="nonzero"/></g></svg>