<svg version="1.1" viewBox="0.0 120.0 860.0 350.0" fill="none" stroke="none" stroke-linecap="square" stroke-miterlimit="10" xmlns:xlink="http://www.w3.org/1999/xlink" xmlns="http://www.w3.org/2000/svg"><clipPath id="g11f41468c15_0_74.0"><path d="m0 0l960.0 0l0 540.0l-960.0 0l0 -540.0z" clip-rule="nonzero"/></clipPath><g clip-path="url(#g11f41468c15_0_74.0)"><path fill="#fcfcfc" d="m0 0l960.0 0l0 540.0l-960.0 0z" fill-rule="evenodd"/><path fill="#e8f2fa" d="m94.55118 247.01575l64.81889 0l0 24.37796l-64.81889 0z" fill-rule="evenodd"/><path stroke="#6db1dc" stroke-width="1.0" stroke-linejoin="round" stroke-linecap="butt" d="m94.55118 247.01575l64.81889 0l0 24.37796l-64.81889 0z" fill-rule="evenodd"/><path fill="#404040" d="m113.93096 264.00473l0 -9.546875l4.234375 0q1.265625 0 1.921875 0.265625q0.671875 0.25 1.0625 0.90625q0.40625 0.65625 0.40625 1.4375q0 1.015625 -0.65625 1.71875q-0.65625 0.6875 -2.03125 0.875q0.5 0.25 0.765625 0.484375q0.546875 0.5 1.046875 1.265625l1.65625 2.59375l-1.578125 0l-1.265625 -1.984375q-0.5625 -0.859375 -0.921875 -1.3125q-0.34375 -0.453125 -0.640625 -0.640625q-0.28125 -0.1875 -0.5625 -0.25q-0.21875 -0.046875 -0.703125 -0.046875l-1.46875 0l0 4.234375l-1.265625 0zm1.265625 -5.328125l2.71875 0q0.859375 0 1.34375 -0.171875q0.484375 -0.1875 0.734375 -0.578125q0.265625 -0.390625 0.265625 -0.859375q0 -0.671875 -0.5 -1.109375q-0.484375 -0.4375 -1.546875 -0.4375l-3.015625 0l0 3.15625zm7.7501526 1.875q0 -1.921875 1.078125 -2.84375q0.890625 -0.765625 2.171875 -0.765625q1.4218674 0 2.3281174 0.9375q0.90625 0.921875 0.90625 2.578125q0 1.328125 -0.40625 2.09375q-0.390625 0.765625 -1.15625 1.1875q-0.765625 0.421875 -1.6718674 0.421875q-1.453125 0 -2.359375 -0.921875q-0.890625 -0.9375 -0.890625 -2.6875zm1.203125 0q0 1.328125 0.578125 1.984375q0.59375 0.65625 1.46875 0.65625q0.8749924 0 1.4531174 -0.65625q0.578125 -0.671875 0.578125 -2.03125q0 -1.28125 -0.59375 -1.9375q-0.578125 -0.65625 -1.4374924 -0.65625q-0.875 0 -1.46875 0.65625q-0.578125 0.65625 -0.578125 1.984375zm6.209343 0q0 -1.921875 1.078125 -2.84375q0.890625 -0.765625 2.171875 -0.765625q1.421875 0 2.328125 0.9375q0.90625 0.921875 0.90625 2.578125q0 1.328125 -0.40625 2.09375q-0.390625 0.765625 -1.15625 1.1875q-0.765625 0.421875 -1.671875 0.421875q-1.453125 0 -2.359375 -0.921875q-0.890625 -0.9375 -0.890625 -2.6875zm1.203125 0q0 1.328125 0.578125 1.984375q0.59375 0.65625 1.46875 0.65625q0.875 0 1.453125 -0.65625q0.578125 -0.671875 0.578125 -2.03125q0 -1.28125 -0.59375 -1.9375q-0.578125 -0.65625 -1.4375 -0.65625q-0.875 0 -1.46875 0.65625q-0.578125 0.65625 -0.578125 1.984375zm9.209351 2.40625l0.171875 1.03125q-0.5 0.109375 -0.890625 0.109375q-0.640625 0 -1.0 -0.203125q-0.34375 -0.203125 -0.484375 -0.53125q-0.140625 -0.328125 -0.140625 -1.390625l0 -3.96875l-0.859375 0l0 -0.90625l0.859375 0l0 -1.71875l1.171875 -0.703125l0 2.421875l1.171875 0l0 0.90625l-1.171875 0l0 4.046875q0 0.5 0.046875 0.640625q0.0625 0.140625 0.203125 0.234375q0.140625 0.078125 0.40625 0.078125q0.203125 0 0.515625 -0.046875z" fill-rule="nonzero"/><path fill="#000000" fill-opacity="0.0" d="m69.414696 273.71652l122.77166 0l0 50.33072l-122.77166 0z" fill-rule="evenodd"/><path fill="#404040" d="m80.4138 298.07654l0 -11.453125l2.25 0l4.6875 7.640625l0 -7.640625l2.15625 0l0 11.453125l-2.328125 0l-4.609375 -7.46875l0 7.46875l-2.15625 0zm13.1640625 -5.765625l-2.0 -0.359375q0.34375 -1.203125 1.15625 -1.78125q0.828125 -0.578125 2.4375 -0.578125q1.46875 0 2.1875 0.34375q0.71875 0.34375 1.015625 0.890625q0.296875 0.53125 0.296875 1.953125l-0.03125 2.5625q0 1.09375 0.109375 1.625q0.109375 0.515625 0.390625 1.109375l-2.171875 0q-0.078125 -0.21875 -0.203125 -0.65625q-0.0625 -0.1875 -0.078125 -0.25q-0.5625 0.546875 -1.203125 0.828125q-0.640625 0.265625 -1.375 0.265625q-1.28125 0 -2.015625 -0.6875q-0.734375 -0.703125 -0.734375 -1.765625q0 -0.703125 0.328125 -1.25q0.34375 -0.5625 0.9375 -0.84375q0.609375 -0.296875 1.75 -0.515625q1.546875 -0.296875 2.140625 -0.546875l0 -0.21875q0 -0.625 -0.3125 -0.890625q-0.3125 -0.28125 -1.1875 -0.28125q-0.578125 0 -0.90625 0.234375q-0.328125 0.234375 -0.53125 0.8125zm2.9375 1.78125q-0.421875 0.140625 -1.34375 0.34375q-0.90625 0.1875 -1.1875 0.375q-0.4375 0.296875 -0.4375 0.765625q0 0.46875 0.34375 0.8125q0.34375 0.328125 0.875 0.328125q0.59375 0 1.140625 -0.390625q0.390625 -0.296875 0.515625 -0.734375q0.09375 -0.28125 0.09375 -1.0625l0 -0.4375zm4.1484375 -4.3125l2.03125 0l0 1.125q1.078125 -1.3125 2.578125 -1.3125q0.796875 0 1.375 0.328125q0.59375 0.328125 0.96875 0.984375q0.546875 -0.65625 1.171875 -0.984375q0.640625 -0.328125 1.359375 -0.328125q0.921875 0 1.546875 0.375q0.640625 0.359375 0.953125 1.078125q0.21875 0.53125 0.21875 1.71875l0 5.3125l-2.1875 0l0 -4.75q0 -1.234375 -0.234375 -1.59375q-0.296875 -0.46875 -0.9375 -0.46875q-0.453125 0 -0.859375 0.28125q-0.40625 0.28125 -0.59375 0.828125q-0.171875 0.546875 -0.171875 1.71875l0 3.984375l-2.203125 0l0 -4.546875q0 -1.21875 -0.125 -1.5625q-0.109375 -0.359375 -0.359375 -0.53125q-0.234375 -0.171875 -0.65625 -0.171875q-0.515625 0 -0.921875 0.28125q-0.40625 0.265625 -0.578125 0.78125q-0.171875 0.515625 -0.171875 1.71875l0 4.03125l-2.203125 0l0 -8.296875zm19.195312 5.65625l2.1875 0.359375q-0.421875 1.203125 -1.328125 1.84375q-0.90625 0.625 -2.28125 0.625q-2.15625 0 -3.203125 -1.421875q-0.8125 -1.125 -0.8125 -2.859375q0 -2.0625 1.078125 -3.21875q1.078125 -1.171875 2.71875 -1.171875q1.859375 0 2.921875 1.21875q1.078125 1.21875 1.03125 3.75l-5.5 0q0.015625 0.96875 0.515625 1.515625q0.515625 0.546875 1.28125 0.546875q0.515625 0 0.859375 -0.28125q0.359375 -0.28125 0.53125 -0.90625zm0.125 -2.21875q-0.015625 -0.953125 -0.484375 -1.453125q-0.46875 -0.5 -1.140625 -0.5q-0.71875 0 -1.1875 0.53125q-0.46875 0.515625 -0.46875 1.421875l3.28125 0zm8.4375 4.859375l0 -11.453125l3.703125 0q2.109375 0 2.75 0.171875q0.984375 0.25 1.640625 1.125q0.671875 0.859375 0.671875 2.21875q0 1.0625 -0.390625 1.78125q-0.375 0.71875 -0.96875 1.125q-0.578125 0.40625 -1.1875 0.546875q-0.828125 0.15625 -2.40625 0.15625l-1.5 0l0 4.328125l-2.3125 0zm2.3125 -9.515625l0 3.25l1.265625 0q1.359375 0 1.8125 -0.171875q0.46875 -0.1875 0.734375 -0.5625q0.265625 -0.390625 0.265625 -0.90625q0 -0.625 -0.375 -1.03125q-0.359375 -0.40625 -0.921875 -0.5q-0.421875 -0.078125 -1.671875 -0.078125l-1.109375 0zm9.984375 3.75l-2.0 -0.359375q0.34375 -1.203125 1.15625 -1.78125q0.828125 -0.578125 2.4375 -0.578125q1.46875 0 2.1875 0.34375q0.71875 0.34375 1.015625 0.890625q0.296875 0.53125 0.296875 1.953125l-0.03125 2.5625q0 1.09375 0.109375 1.625q0.109375 0.515625 0.390625 1.109375l-2.171875 0q-0.078125 -0.21875 -0.203125 -0.65625q-0.0625 -0.1875 -0.078125 -0.25q-0.5625 0.546875 -1.203125 0.828125q-0.640625 0.265625 -1.375 0.265625q-1.28125 0 -2.015625 -0.6875q-0.734375 -0.703125 -0.734375 -1.765625q0 -0.703125 0.328125 -1.25q0.34375 -0.5625 0.9375 -0.84375q0.609375 -0.296875 1.75 -0.515625q1.546875 -0.296875 2.140625 -0.546875l0 -0.21875q0 -0.625 -0.3125 -0.890625q-0.3125 -0.28125 -1.1875 -0.28125q-0.578125 0 -0.90625 0.234375q-0.328125 0.234375 -0.53125 0.8125zm2.9375 1.78125q-0.421875 0.140625 -1.34375 0.34375q-0.90625 0.1875 -1.1875 0.375q-0.4375 0.296875 -0.4375 0.765625q0 0.46875 0.34375 0.8125q0.34375 0.328125 0.875 0.328125q0.59375 0 1.140625 -0.390625q0.390625 -0.296875 0.515625 -0.734375q0.09375 -0.28125 0.09375 -1.0625l0 -0.4375zm8.1171875 -4.3125l0 1.75l-1.5 0l0 3.34375q0 1.015625 0.046875 1.1875q0.046875 0.15625 0.1875 0.265625q0.15625 0.109375 0.375 0.109375q0.3125 0 0.890625 -0.203125l0.1875 1.703125q-0.765625 0.328125 -1.734375 0.328125q-0.59375 0 -1.078125 -0.203125q-0.46875 -0.203125 -0.703125 -0.515625q-0.21875 -0.3125 -0.296875 -0.859375q-0.078125 -0.375 -0.078125 -1.546875l0 -3.609375l-1.0 0l0 -1.75l1.0 0l0 -1.65625l2.203125 -1.28125l0 2.9375l1.5 0zm5.328125 0l0 1.75l-1.5 0l0 3.34375q0 1.015625 0.046875 1.1875q0.046875 0.15625 0.1875 0.265625q0.15625 0.109375 0.375 0.109375q0.3125 0 0.890625 -0.203125l0.1875 1.703125q-0.765625 0.328125 -1.734375 0.328125q-0.59375 0 -1.078125 -0.203125q-0.46875 -0.203125 -0.703125 -0.515625q-0.21875 -0.3125 -0.296875 -0.859375q-0.078125 -0.375 -0.078125 -1.546875l0 -3.609375l-1.0 0l0 -1.75l1.0 0l0 -1.65625l2.203125 -1.28125l0 2.9375l1.5 0zm6.328125 5.65625l2.1875 0.359375q-0.421875 1.203125 -1.328125 1.84375q-0.90625 0.625 -2.28125 0.625q-2.15625 0 -3.203125 -1.421875q-0.8125 -1.125 -0.8125 -2.859375q0 -2.0625 1.078125 -3.21875q1.078125 -1.171875 2.71875 -1.171875q1.859375 0 2.921875 1.21875q1.078125 1.21875 1.03125 3.75l-5.5 0q0.015625 0.96875 0.515625 1.515625q0.515625 0.546875 1.28125 0.546875q0.515625 0 0.859375 -0.28125q0.359375 -0.28125 0.53125 -0.90625zm0.125 -2.21875q-0.015625 -0.953125 -0.484375 -1.453125q-0.46875 -0.5 -1.140625 -0.5q-0.71875 0 -1.1875 0.53125q-0.46875 0.515625 -0.46875 1.421875l3.28125 0zm6.0703125 4.859375l-2.1875 0l0 -8.296875l2.03125 0l0 1.171875q0.53125 -0.828125 0.9375 -1.09375q0.421875 -0.265625 0.953125 -0.265625q0.75 0 1.453125 0.40625l-0.6875 1.921875q-0.546875 -0.359375 -1.03125 -0.359375q-0.453125 0 -0.78125 0.25q-0.3125 0.25 -0.5 0.921875q-0.1875 0.65625 -0.1875 2.78125l0 2.5625zm11.6796875 0l-2.203125 0l0 -4.234375q0 -1.34375 -0.140625 -1.734375q-0.140625 -0.40625 -0.453125 -0.625q-0.3125 -0.21875 -0.765625 -0.21875q-0.5625 0 -1.015625 0.3125q-0.453125 0.3125 -0.625 0.828125q-0.171875 0.515625 -0.171875 1.90625l0 3.765625l-2.1875 0l0 -8.296875l2.03125 0l0 1.21875q1.09375 -1.40625 2.734375 -1.40625q0.734375 0 1.328125 0.265625q0.609375 0.25 0.90625 0.65625q0.3125 0.40625 0.4375 0.921875q0.125 0.515625 0.125 1.484375l0 5.15625z" fill-rule="nonzero"/><path fill="#404040" d="m118.09349 317.07654l0 -9.515625l-3.40625 0l0 -1.9375l9.109375 0l0 1.9375l-3.390625 0l0 9.515625l-2.3125 0zm8.390625 0l-2.1875 0l0 -8.296875l2.03125 0l0 1.171875q0.53125 -0.828125 0.9375 -1.09375q0.421875 -0.265625 0.953125 -0.265625q0.75 0 1.453125 0.40625l-0.6875 1.921875q-0.546875 -0.359375 -1.03125 -0.359375q-0.453125 0 -0.78125 0.25q-0.3125 0.25 -0.5 0.921875q-0.1875 0.65625 -0.1875 2.78125l0 2.5625zm8.9296875 -2.640625l2.1875 0.359375q-0.421875 1.203125 -1.328125 1.84375q-0.90625 0.625 -2.28125 0.625q-2.15625 0 -3.203125 -1.421875q-0.8125 -1.125 -0.8125 -2.859375q0 -2.0625 1.078125 -3.21875q1.078125 -1.171875 2.71875 -1.171875q1.859375 0 2.921875 1.21875q1.078125 1.21875 1.03125 3.75l-5.5 0q0.015625 0.96875 0.515625 1.515625q0.515625 0.546875 1.28125 0.546875q0.515625 0 0.859375 -0.28125q0.359375 -0.28125 0.53125 -0.90625zm0.125 -2.21875q-0.015625 -0.953125 -0.484375 -1.453125q-0.46875 -0.5 -1.140625 -0.5q-0.71875 0 -1.1875 0.53125q-0.46875 0.515625 -0.46875 1.421875l3.28125 0zm8.7734375 2.21875l2.1875 0.359375q-0.421875 1.203125 -1.328125 1.84375q-0.90625 0.625 -2.28125 0.625q-2.15625 0 -3.203125 -1.421875q-0.8125 -1.125 -0.8125 -2.859375q0 -2.0625 1.078125 -3.21875q1.078125 -1.171875 2.71875 -1.171875q1.859375 0 2.921875 1.21875q1.078125 1.21875 1.03125 3.75l-5.5 0q0.015625 0.96875 0.515625 1.515625q0.515625 0.546875 1.28125 0.546875q0.515625 0 0.859375 -0.28125q0.359375 -0.28125 0.53125 -0.90625zm0.125 -2.21875q-0.015625 -0.953125 -0.484375 -1.453125q-0.46875 -0.5 -1.140625 -0.5q-0.71875 0 -1.1875 0.53125q-0.46875 0.515625 -0.46875 1.421875l3.28125 0z" fill-rule="nonzero"/><path fill="#e8f2fa" d="m224.16405 259.2047l0 0c0 -5.4010773 4.378433 -9.7795105 9.779526 -9.7795105l0 0c2.593689 0 5.0811462 1.0303345 6.915161 2.8643494c1.8340302 1.8340149 2.8643646 4.321472 2.8643646 6.915161l0 0c0 5.4010925 -4.3784485 9.779541 -9.779526 9.779541l0 0c-5.4010925 0 -9.779526 -4.3784485 -9.779526 -9.779541z" fill-rule="evenodd"/><path stroke="#6db1dc" stroke-width="1.0" stroke-linejoin="round" stroke-linecap="butt" d="m224.16405 259.2047l0 0c0 -5.4010773 4.378433 -9.7795105 9.779526 -9.7795105l0 0c2.593689 0 5.0811462 1.0303345 6.915161 2.8643494c1.8340302 1.8340149 2.8643646 4.321472 2.8643646 6.915161l0 0c0 5.4010925 -4.3784485 9.779541 -9.779526 9.779541l0 0c-5.4010925 0 -9.779526 -4.3784485 -9.779526 -9.779541z" fill-rule="evenodd"/><path fill="#000000" fill-opacity="0.0" d="m159.37007 259.2047l64.787415 0" fill-rule="evenodd"/><path stroke="#6db1dc" stroke-width="1.0" stroke-linejoin="round" stroke-linecap="butt" d="m159.37007 259.2047l58.787415 0" fill-rule="evenodd"/><path fill="#6db1dc" stroke="#6db1dc" stroke-width="1.0" stroke-linecap="butt" d="m218.15749 260.85645l4.538086 -1.6517334l-4.538086 -1.6517334z" fill-rule="evenodd"/><path fill="#e8f2fa" d="m292.40552 159.00262l0 0c0 -5.4010773 4.3784485 -9.779526 9.7795105 -9.779526l0 0c2.593689 0 5.0811768 1.0303345 6.9151917 2.8643494c1.8340149 1.8340302 2.8643494 4.3214874 2.8643494 6.9151764l0 0c0 5.4010773 -4.3784485 9.779526 -9.779541 9.779526l0 0c-5.401062 0 -9.7795105 -4.3784485 -9.7795105 -9.779526z" fill-rule="evenodd"/><path stroke="#6db1dc" stroke-width="1.0" stroke-linejoin="round" stroke-linecap="butt" d="m292.40552 159.00262l0 0c0 -5.4010773 4.3784485 -9.779526 9.7795105 -9.779526l0 0c2.593689 0 5.0811768 1.0303345 6.9151917 2.8643494c1.8340149 1.8340302 2.8643494 4.3214874 2.8643494 6.9151764l0 0c0 5.4010773 -4.3784485 9.779526 -9.779541 9.779526l0 0c-5.401062 0 -9.7795105 -4.3784485 -9.7795105 -9.779526z" fill-rule="evenodd"/><path fill="#e8f2fa" d="m298.16928 228.94226l0 0c0 -5.4010925 4.3784485 -9.779526 9.779541 -9.779526l0 0c2.593689 0 5.0811462 1.0303345 6.915161 2.8643494c1.8340149 1.8340149 2.8643494 4.3214874 2.8643494 6.9151764l0 0c0 5.4010773 -4.378418 9.779526 -9.7795105 9.779526l0 0c-5.4010925 0 -9.779541 -4.3784485 -9.779541 -9.779526z" fill-rule="evenodd"/><path stroke="#6db1dc" stroke-width="1.0" stroke-linejoin="round" stroke-linecap="butt" d="m298.16928 228.94226l0 0c0 -5.4010925 4.3784485 -9.779526 9.779541 -9.779526l0 0c2.593689 0 5.0811462 1.0303345 6.915161 2.8643494c1.8340149 1.8340149 2.8643494 4.3214874 2.8643494 6.9151764l0 0c0 5.4010773 -4.378418 9.779526 -9.7795105 9.779526l0 0c-5.4010925 0 -9.779541 -4.3784485 -9.779541 -9.779526z" fill-rule="evenodd"/><path fill="#e8f2fa" d="m297.04593 298.8819l0 0c0 -5.4010925 4.3784485 -9.779541 9.779541 -9.779541l0 0c2.593689 0 5.0811462 1.0303345 6.915161 2.8643494c1.8340149 1.8340454 2.8643494 4.3215027 2.8643494 6.9151917l0 0c0 5.401062 -4.3784485 9.7795105 -9.7795105 9.7795105l0 0c-5.4010925 0 -9.779541 -4.3784485 -9.779541 -9.7795105z" fill-rule="evenodd"/><path stroke="#6db1dc" stroke-width="1.0" stroke-linejoin="round" stroke-linecap="butt" d="m297.04593 298.8819l0 0c0 -5.4010925 4.3784485 -9.779541 9.779541 -9.779541l0 0c2.593689 0 5.0811462 1.0303345 6.915161 2.8643494c1.8340149 1.8340454 2.8643494 4.3215027 2.8643494 6.9151917l0 0c0 5.401062 -4.3784485 9.7795105 -9.7795105 9.7795105l0 0c-5.4010925 0 -9.779541 -4.3784485 -9.779541 -9.7795105z" fill-rule="evenodd"/><path fill="#e8f2fa" d="m292.40552 373.063l0 0c0 -5.4010925 4.3784485 -9.7795105 9.7795105 -9.7795105l0 0c2.593689 0 5.0811768 1.0303345 6.9151917 2.8643494c1.8340149 1.8340149 2.8643494 4.321472 2.8643494 6.915161l0 0c0 5.4010925 -4.3784485 9.779541 -9.779541 9.779541l0 0c-5.401062 0 -9.7795105 -4.3784485 -9.7795105 -9.779541z" fill-rule="evenodd"/><path stroke="#6db1dc" stroke-width="1.0" stroke-linejoin="round" stroke-linecap="butt" d="m292.40552 373.063l0 0c0 -5.4010925 4.3784485 -9.7795105 9.7795105 -9.7795105l0 0c2.593689 0 5.0811768 1.0303345 6.9151917 2.8643494c1.8340149 1.8340149 2.8643494 4.321472 2.8643494 6.915161l0 0c0 5.4010925 -4.3784485 9.779541 -9.779541 9.779541l0 0c-5.401062 0 -9.7795105 -4.3784485 -9.7795105 -9.779541z" fill-rule="evenodd"/><path fill="#e8f2fa" d="m388.01575 159.61417l0 0c0 -5.4010773 4.3784485 -9.779526 9.779541 -9.779526l0 0c2.593689 0 5.0811462 1.0303497 6.915161 2.8643646c1.8340149 1.8340149 2.8643494 4.321472 2.8643494 6.915161l0 0c0 5.4010925 -4.3784485 9.779541 -9.7795105 9.779541l0 0c-5.4010925 0 -9.779541 -4.3784485 -9.779541 -9.779541z" fill-rule="evenodd"/><path stroke="#6db1dc" stroke-width="1.0" stroke-linejoin="round" stroke-linecap="butt" d="m388.01575 159.61417l0 0c0 -5.4010773 4.3784485 -9.779526 9.779541 -9.779526l0 0c2.593689 0 5.0811462 1.0303497 6.915161 2.8643646c1.8340149 1.8340149 2.8643494 4.321472 2.8643494 6.915161l0 0c0 5.4010925 -4.3784485 9.779541 -9.7795105 9.779541l0 0c-5.4010925 0 -9.779541 -4.3784485 -9.779541 -9.779541z" fill-rule="evenodd"/><path fill="#e8f2fa" d="m387.4895 228.9462l0 0c0 -5.4010925 4.3784485 -9.779526 9.779541 -9.779526l0 0c2.593689 0 5.0811462 1.0303345 6.915161 2.8643494c1.8340149 1.8340149 2.8643494 4.3214874 2.8643494 6.9151764l0 0c0 5.4010773 -4.3784485 9.779526 -9.7795105 9.779526l0 0c-5.4010925 0 -9.779541 -4.3784485 -9.779541 -9.779526z" fill-rule="evenodd"/><path stroke="#6db1dc" stroke-width="1.0" stroke-linejoin="round" stroke-linecap="butt" d="m387.4895 228.9462l0 0c0 -5.4010925 4.3784485 -9.779526 9.779541 -9.779526l0 0c2.593689 0 5.0811462 1.0303345 6.915161 2.8643494c1.8340149 1.8340149 2.8643494 4.3214874 2.8643494 6.9151764l0 0c0 5.4010773 -4.3784485 9.779526 -9.7795105 9.779526l0 0c-5.4010925 0 -9.779541 -4.3784485 -9.779541 -9.779526z" fill-rule="evenodd"/><path fill="#e8f2fa" d="m386.3294 298.88977l0 0c0 -5.4010925 4.378418 -9.779541 9.7795105 -9.779541l0 0c2.593689 0 5.0811462 1.0303345 6.9151917 2.8643494c1.8340149 1.8340454 2.8643494 4.3215027 2.8643494 6.9151917l0 0c0 5.401062 -4.3784485 9.7795105 -9.779541 9.7795105l0 0c-5.4010925 0 -9.7795105 -4.3784485 -9.7795105 -9.7795105z" fill-rule="evenodd"/><path stroke="#6db1dc" stroke-width="1.0" stroke-linejoin="round" stroke-linecap="butt" d="m386.3294 298.88977l0 0c0 -5.4010925 4.378418 -9.779541 9.7795105 -9.779541l0 0c2.593689 0 5.0811462 1.0303345 6.9151917 2.8643494c1.8340149 1.8340454 2.8643494 4.3215027 2.8643494 6.9151917l0 0c0 5.401062 -4.3784485 9.7795105 -9.779541 9.7795105l0 0c-5.4010925 0 -9.7795105 -4.3784485 -9.7795105 -9.7795105z" fill-rule="evenodd"/><path fill="#e8f2fa" d="m388.90552 373.063l0 0c0 -5.4010925 4.3784485 -9.7795105 9.7795105 -9.7795105l0 0c2.593689 0 5.0811768 1.0303345 6.9151917 2.8643494c1.8340149 1.8340149 2.8643494 4.321472 2.8643494 6.915161l0 0c0 5.4010925 -4.3784485 9.779541 -9.779541 9.779541l0 0c-5.401062 0 -9.7795105 -4.3784485 -9.7795105 -9.779541z" fill-rule="evenodd"/><path stroke="#6db1dc" stroke-width="1.0" stroke-linejoin="round" stroke-linecap="butt" d="m388.90552 373.063l0 0c0 -5.4010925 4.3784485 -9.7795105 9.7795105 -9.7795105l0 0c2.593689 0 5.0811768 1.0303345 6.9151917 2.8643494c1.8340149 1.8340149 2.8643494 4.321472 2.8643494 6.915161l0 0c0 5.4010925 -4.3784485 9.779541 -9.779541 9.779541l0 0c-5.401062 0 -9.7795105 -4.3784485 -9.7795105 -9.779541z" fill-rule="evenodd"/><path fill="#e8f2fa" d="m480.15616 158.99869l0 0c0 -5.4010773 4.3784485 -9.779526 9.779541 -9.779526l0 0c2.593689 0 5.0811462 1.0303345 6.915161 2.8643494c1.8340149 1.8340302 2.8643494 4.3214874 2.8643494 6.9151764l0 0c0 5.4010773 -4.378418 9.779526 -9.7795105 9.779526l0 0c-5.4010925 0 -9.779541 -4.3784485 -9.779541 -9.779526z" fill-rule="evenodd"/><path stroke="#6db1dc" stroke-width="1.0" stroke-linejoin="round" stroke-linecap="butt" d="m480.15616 158.99869l0 0c0 -5.4010773 4.3784485 -9.779526 9.779541 -9.779526l0 0c2.593689 0 5.0811462 1.0303345 6.915161 2.8643494c1.8340149 1.8340302 2.8643494 4.3214874 2.8643494 6.9151764l0 0c0 5.4010773 -4.378418 9.779526 -9.7795105 9.779526l0 0c-5.4010925 0 -9.779541 -4.3784485 -9.779541 -9.779526z" fill-rule="evenodd"/><path fill="#e8f2fa" d="m480.15616 228.94489l0 0c0 -5.4010925 4.3784485 -9.779526 9.779541 -9.779526l0 0c2.593689 0 5.0811462 1.0303345 6.915161 2.8643494c1.8340149 1.8340149 2.8643494 4.3214874 2.8643494 6.9151764l0 0c0 5.4010773 -4.378418 9.779526 -9.7795105 9.779526l0 0c-5.4010925 0 -9.779541 -4.3784485 -9.779541 -9.779526z" fill-rule="evenodd"/><path stroke="#6db1dc" stroke-width="1.0" stroke-linejoin="round" stroke-linecap="butt" d="m480.15616 228.94489l0 0c0 -5.4010925 4.3784485 -9.779526 9.779541 -9.779526l0 0c2.593689 0 5.0811462 1.0303345 6.915161 2.8643494c1.8340149 1.8340149 2.8643494 4.3214874 2.8643494 6.9151764l0 0c0 5.4010773 -4.378418 9.779526 -9.7795105 9.779526l0 0c-5.4010925 0 -9.779541 -4.3784485 -9.779541 -9.779526z" fill-rule="evenodd"/><path fill="#e8f2fa" d="m487.3701 298.88846l0 0c0 -5.4010925 4.3784485 -9.779541 9.7795105 -9.779541l0 0c2.593689 0 5.0811768 1.0303345 6.9151917 2.8643494c1.8340149 1.8340454 2.8643494 4.3215027 2.8643494 6.9151917l0 0c0 5.401062 -4.3784485 9.7795105 -9.779541 9.7795105l0 0c-5.401062 0 -9.7795105 -4.3784485 -9.7795105 -9.7795105z" fill-rule="evenodd"/><path stroke="#6db1dc" stroke-width="1.0" stroke-linejoin="round" stroke-linecap="butt" d="m487.3701 298.88846l0 0c0 -5.4010925 4.3784485 -9.779541 9.7795105 -9.779541l0 0c2.593689 0 5.0811768 1.0303345 6.9151917 2.8643494c1.8340149 1.8340454 2.8643494 4.3215027 2.8643494 6.9151917l0 0c0 5.401062 -4.3784485 9.7795105 -9.779541 9.7795105l0 0c-5.401062 0 -9.7795105 -4.3784485 -9.7795105 -9.7795105z" fill-rule="evenodd"/><path fill="#e8f2fa" d="m483.6273 373.06168l0 0c0 -5.4010925 4.3784485 -9.7795105 9.779541 -9.7795105l0 0c2.593689 0 5.0811462 1.0303345 6.915161 2.8643494c1.8340149 1.8340149 2.8643494 4.321472 2.8643494 6.915161l0 0c0 5.4010925 -4.378418 9.779541 -9.7795105 9.779541l0 0c-5.4010925 0 -9.779541 -4.3784485 -9.779541 -9.779541z" fill-rule="evenodd"/><path stroke="#6db1dc" stroke-width="1.0" stroke-linejoin="round" stroke-linecap="butt" d="m483.6273 373.06168l0 0c0 -5.4010925 4.3784485 -9.7795105 9.779541 -9.7795105l0 0c2.593689 0 5.0811462 1.0303345 6.915161 2.8643494c1.8340149 1.8340149 2.8643494 4.321472 2.8643494 6.915161l0 0c0 5.4010925 -4.378418 9.779541 -9.7795105 9.779541l0 0c-5.4010925 0 -9.779541 -4.3784485 -9.779541 -9.779541z" fill-rule="evenodd"/><path fill="#e8f2fa" d="m665.87665 159.00131l0 0c0 -5.4010773 4.378418 -9.779526 9.779541 -9.779526l0 0c2.593689 0 5.0811157 1.0303345 6.915161 2.8643494c1.8339844 1.8340302 2.8643188 4.3214874 2.8643188 6.9151764l0 0c0 5.4010773 -4.378418 9.779526 -9.77948 9.779526l0 0c-5.401123 0 -9.779541 -4.3784485 -9.779541 -9.779526z" fill-rule="evenodd"/><path stroke="#6db1dc" stroke-width="1.0" stroke-linejoin="round" stroke-linecap="butt" d="m665.87665 159.00131l0 0c0 -5.4010773 4.378418 -9.779526 9.779541 -9.779526l0 0c2.593689 0 5.0811157 1.0303345 6.915161 2.8643494c1.8339844 1.8340302 2.8643188 4.3214874 2.8643188 6.9151764l0 0c0 5.4010773 -4.378418 9.779526 -9.77948 9.779526l0 0c-5.401123 0 -9.779541 -4.3784485 -9.779541 -9.779526z" fill-rule="evenodd"/><path fill="#e8f2fa" d="m572.979 228.94095l0 0c0 -5.4010925 4.378418 -9.779526 9.779541 -9.779526l0 0c2.593689 0 5.0811157 1.0303345 6.915161 2.8643494c1.8339844 1.8340149 2.86438 4.3214874 2.86438 6.9151764l0 0c0 5.4010773 -4.378479 9.779526 -9.779541 9.779526l0 0c-5.401123 0 -9.779541 -4.3784485 -9.779541 -9.779526z" fill-rule="evenodd"/><path stroke="#6db1dc" stroke-width="1.0" stroke-linejoin="round" stroke-linecap="butt" d="m572.979 228.94095l0 0c0 -5.4010925 4.378418 -9.779526 9.779541 -9.779526l0 0c2.593689 0 5.0811157 1.0303345 6.915161 2.8643494c1.8339844 1.8340149 2.86438 4.3214874 2.86438 6.9151764l0 0c0 5.4010773 -4.378479 9.779526 -9.779541 9.779526l0 0c-5.401123 0 -9.779541 -4.3784485 -9.779541 -9.779526z" fill-rule="evenodd"/><path fill="#e8f2fa" d="m576.6522 298.88058l0 0c0 -5.4010925 4.378479 -9.779541 9.779541 -9.779541l0 0c2.593689 0 5.0811768 1.0303345 6.915161 2.8643494c1.8340454 1.8340454 2.86438 4.3215027 2.86438 6.9151917l0 0c0 5.401062 -4.378479 9.7795105 -9.779541 9.7795105l0 0c-5.401062 0 -9.779541 -4.3784485 -9.779541 -9.7795105z" fill-rule="evenodd"/><path stroke="#6db1dc" stroke-width="1.0" stroke-linejoin="round" stroke-linecap="butt" d="m576.6522 298.88058l0 0c0 -5.4010925 4.378479 -9.779541 9.779541 -9.779541l0 0c2.593689 0 5.0811768 1.0303345 6.915161 2.8643494c1.8340454 1.8340454 2.86438 4.3215027 2.86438 6.9151917l0 0c0 5.401062 -4.378479 9.7795105 -9.779541 9.7795105l0 0c-5.401062 0 -9.779541 -4.3784485 -9.779541 -9.7795105z" fill-rule="evenodd"/><path fill="#e8f2fa" d="m573.0971 373.06168l0 0c0 -5.4010925 4.378479 -9.7795105 9.779541 -9.7795105l0 0c2.593689 0 5.0811157 1.0303345 6.915161 2.8643494c1.8340454 1.8340149 2.86438 4.321472 2.86438 6.915161l0 0c0 5.4010925 -4.378479 9.779541 -9.779541 9.779541l0 0c-5.401062 0 -9.779541 -4.3784485 -9.779541 -9.779541z" fill-rule="evenodd"/><path stroke="#6db1dc" stroke-width="1.0" stroke-linejoin="round" stroke-linecap="butt" d="m573.0971 373.06168l0 0c0 -5.4010925 4.378479 -9.7795105 9.779541 -9.7795105l0 0c2.593689 0 5.0811157 1.0303345 6.915161 2.8643494c1.8340454 1.8340149 2.86438 4.321472 2.86438 6.915161l0 0c0 5.4010925 -4.378479 9.779541 -9.779541 9.779541l0 0c-5.401062 0 -9.779541 -4.3784485 -9.779541 -9.779541z" fill-rule="evenodd"/><path fill="#e8f2fa" d="m665.87665 228.94095l0 0c0 -5.4010925 4.378418 -9.779526 9.779541 -9.779526l0 0c2.593689 0 5.0811157 1.0303345 6.915161 2.8643494c1.8339844 1.8340149 2.8643188 4.3214874 2.8643188 6.9151764l0 0c0 5.4010773 -4.378418 9.779526 -9.77948 9.779526l0 0c-5.401123 0 -9.779541 -4.3784485 -9.779541 -9.779526z" fill-rule="evenodd"/><path stroke="#6db1dc" stroke-width="1.0" stroke-linejoin="round" stroke-linecap="butt" d="m665.87665 228.94095l0 0c0 -5.4010925 4.378418 -9.779526 9.779541 -9.779526l0 0c2.593689 0 5.0811157 1.0303345 6.915161 2.8643494c1.8339844 1.8340149 2.8643188 4.3214874 2.8643188 6.9151764l0 0c0 5.4010773 -4.378418 9.779526 -9.77948 9.779526l0 0c-5.401123 0 -9.779541 -4.3784485 -9.779541 -9.779526z" fill-rule="evenodd"/><path fill="#e8f2fa" d="m667.7139 298.88058l0 0c0 -5.4010925 4.378418 -9.779541 9.77948 -9.779541l0 0c2.59375 0 5.0811768 1.0303345 6.915222 2.8643494c1.8339844 1.8340454 2.8643188 4.3215027 2.8643188 6.9151917l0 0c0 5.401062 -4.378418 9.7795105 -9.779541 9.7795105l0 0c-5.401062 0 -9.77948 -4.3784485 -9.77948 -9.7795105z" fill-rule="evenodd"/><path stroke="#6db1dc" stroke-width="1.0" stroke-linejoin="round" stroke-linecap="butt" d="m667.7139 298.88058l0 0c0 -5.4010925 4.378418 -9.779541 9.77948 -9.779541l0 0c2.59375 0 5.0811768 1.0303345 6.915222 2.8643494c1.8339844 1.8340454 2.8643188 4.3215027 2.8643188 6.9151917l0 0c0 5.401062 -4.378418 9.7795105 -9.779541 9.7795105l0 0c-5.401062 0 -9.77948 -4.3784485 -9.77948 -9.7795105z" fill-rule="evenodd"/><path fill="#e8f2fa" d="m758.7743 228.94095l0 0c0 -5.4010925 4.378418 -9.779526 9.779541 -9.779526l0 0c2.593689 0 5.0811157 1.0303345 6.915161 2.8643494c1.8339844 1.8340149 2.8643188 4.3214874 2.8643188 6.9151764l0 0c0 5.4010773 -4.378418 9.779526 -9.77948 9.779526l0 0c-5.401123 0 -9.779541 -4.3784485 -9.779541 -9.779526z" fill-rule="evenodd"/><path stroke="#6db1dc" stroke-width="1.0" stroke-linejoin="round" stroke-linecap="butt" d="m758.7743 228.94095l0 0c0 -5.4010925 4.378418 -9.779526 9.779541 -9.779526l0 0c2.593689 0 5.0811157 1.0303345 6.915161 2.8643494c1.8339844 1.8340149 2.8643188 4.3214874 2.8643188 6.9151764l0 0c0 5.4010773 -4.378418 9.779526 -9.77948 9.779526l0 0c-5.401123 0 -9.779541 -4.3784485 -9.779541 -9.779526z" fill-rule="evenodd"/><path fill="#e8f2fa" d="m758.7743 298.88846l0 0c0 -5.4010925 4.378418 -9.779541 9.779541 -9.779541l0 0c2.593689 0 5.0811157 1.0303345 6.915161 2.8643494c1.8339844 1.8340454 2.8643188 4.3215027 2.8643188 6.9151917l0 0c0 5.401062 -4.378418 9.7795105 -9.77948 9.7795105l0 0c-5.401123 0 -9.779541 -4.3784485 -9.779541 -9.7795105z" fill-rule="evenodd"/><path stroke="#6db1dc" stroke-width="1.0" stroke-linejoin="round" stroke-linecap="butt" d="m758.7743 298.88846l0 0c0 -5.4010925 4.378418 -9.779541 9.779541 -9.779541l0 0c2.593689 0 5.0811157 1.0303345 6.915161 2.8643494c1.8339844 1.8340454 2.8643188 4.3215027 2.8643188 6.9151917l0 0c0 5.401062 -4.378418 9.7795105 -9.77948 9.7795105l0 0c-5.401123 0 -9.779541 -4.3784485 -9.779541 -9.7795105z" fill-rule="evenodd"/><path fill="#000000" fill-opacity="0.0" d="m233.94357 249.4252l61.322845 -83.49606" fill-rule="evenodd"/><path stroke="#6db1dc" stroke-width="1.0" stroke-linejoin="round" stroke-linecap="butt" d="m233.94357 249.4252l57.77118 -78.66019" fill-rule="evenodd"/><path fill="#6db1dc" stroke="#6db1dc" stroke-width="1.0" stroke-linecap="butt" d="m293.04602 171.74274l1.355011 -4.6353455l-4.0175476 2.6798859z" fill-rule="evenodd"/><path fill="#000000" fill-opacity="0.0" d="m233.94357 268.98425l61.322845 97.165344" fill-rule="evenodd"/><path stroke="#6db1dc" stroke-width="1.0" stroke-linejoin="round" stroke-linecap="butt" d="m233.94357 268.98425l58.120544 92.09137" fill-rule="evenodd"/><path fill="#6db1dc" stroke="#6db1dc" stroke-width="1.0" stroke-linecap="butt" d="m290.6673 361.95718l3.8188782 2.9561462l-1.025238 -4.719269z" fill-rule="evenodd"/><path fill="#000000" fill-opacity="0.0" d="m240.85873 266.1199l56.188995 32.75589" fill-rule="evenodd"/><path stroke="#6db1dc" stroke-width="1.0" stroke-linejoin="round" stroke-linecap="butt" d="m240.85873 266.1199l51.005463 29.73413" fill-rule="evenodd"/><path fill="#6db1dc" stroke="#6db1dc" stroke-width="1.0" stroke-linecap="butt" d="m291.03235 297.28098l4.752411 0.85858154l-3.088684 -3.712494z" fill-rule="evenodd"/><path fill="#000000" fill-opacity="0.0" d="m240.85873 252.28955l57.322845 -23.338577" fill-rule="evenodd"/><path stroke="#6db1dc" stroke-width="1.0" stroke-linejoin="round" stroke-linecap="butt" d="m240.85873 252.28955l51.765778 -21.07605" fill-rule="evenodd"/><path fill="#6db1dc" stroke="#6db1dc" stroke-width="1.0" stroke-linecap="butt" d="m293.24734 232.74329l3.5802612 -3.241043l-4.8259583 0.18145752z" fill-rule="evenodd"/><path fill="#000000" fill-opacity="0.0" d="m311.96457 159.00262l76.06299 0.5984192" fill-rule="evenodd"/><path stroke="#6db1dc" stroke-width="1.0" stroke-linejoin="round" stroke-linecap="butt" d="m311.96457 159.00262l70.0632 0.55122375" fill-rule="evenodd"/><path fill="#6db1dc" stroke="#6db1dc" stroke-width="1.0" stroke-linecap="butt" d="m382.01474 161.20552l4.5509644 -1.6159668l-4.5249634 -1.6873932z" fill-rule="evenodd"/><path fill="#000000" fill-opacity="0.0" d="m407.5748 159.61417l72.566925 -0.62991333" fill-rule="evenodd"/><path stroke="#6db1dc" stroke-width="1.0" stroke-linejoin="round" stroke-linecap="butt" d="m407.5748 159.61417l66.56717 -0.5778351" fill-rule="evenodd"/><path fill="#6db1dc" stroke="#6db1dc" stroke-width="1.0" stroke-linecap="butt" d="m474.1563 160.688l4.5235596 -1.6910553l-4.552246 -1.6122894z" fill-rule="evenodd"/><path fill="#000000" fill-opacity="0.0" d="m499.7152 158.99869l166.17322 0" fill-rule="evenodd"/><path stroke="#6db1dc" stroke-width="1.0" stroke-linejoin="round" stroke-linecap="butt" d="m499.7152 158.99869l160.17322 0" fill-rule="evenodd"/><path fill="#6db1dc" stroke="#6db1dc" stroke-width="1.0" stroke-linecap="butt" d="m659.8884 160.65042l4.538147 -1.6517334l-4.538147 -1.6517334z" fill-rule="evenodd"/><path fill="#000000" fill-opacity="0.0" d="m317.72833 228.94226l69.763794 0" fill-rule="evenodd"/><path stroke="#6db1dc" stroke-width="1.0" stroke-linejoin="round" stroke-linecap="butt" d="m317.72833 228.94226l63.763794 0" fill-rule="evenodd"/><path fill="#6db1dc" stroke="#6db1dc" stroke-width="1.0" stroke-linecap="butt" d="m381.49213 230.594l4.538086 -1.6517334l-4.538086 -1.6517334z" fill-rule="evenodd"/><path fill="#000000" fill-opacity="0.0" d="m407.04855 228.9462l73.102356 0" fill-rule="evenodd"/><path stroke="#6db1dc" stroke-width="1.0" stroke-linejoin="round" stroke-linecap="butt" d="m407.04855 228.9462l67.102356 0" fill-rule="evenodd"/><path fill="#6db1dc" stroke="#6db1dc" stroke-width="1.0" stroke-linecap="butt" d="m474.1509 230.59793l4.5381165 -1.6517334l-4.5381165 -1.6517334z" fill-rule="evenodd"/><path fill="#000000" fill-opacity="0.0" d="m499.7152 228.94489l73.25983 0" fill-rule="evenodd"/><path stroke="#6db1dc" stroke-width="1.0" stroke-linejoin="round" stroke-linecap="butt" d="m499.7152 228.94489l67.25983 0" fill-rule="evenodd"/><path fill="#6db1dc" stroke="#6db1dc" stroke-width="1.0" stroke-linecap="butt" d="m566.97504 230.59662l4.538147 -1.6517334l-4.538147 -1.6517334z" fill-rule="evenodd"/><path fill="#000000" fill-opacity="0.0" d="m592.5381 228.94095l73.35431 0" fill-rule="evenodd"/><path stroke="#6db1dc" stroke-width="1.0" stroke-linejoin="round" stroke-linecap="butt" d="m592.5381 228.94095l67.35431 0" fill-rule="evenodd"/><path fill="#6db1dc" stroke="#6db1dc" stroke-width="1.0" stroke-linecap="butt" d="m659.8924 230.59268l4.538086 -1.6517334l-4.538086 -1.6517334z" fill-rule="evenodd"/><path fill="#000000" fill-opacity="0.0" d="m685.43567 228.94095l73.35437 0" fill-rule="evenodd"/><path stroke="#6db1dc" stroke-width="1.0" stroke-linejoin="round" stroke-linecap="butt" d="m685.43567 228.94095l67.35437 0" fill-rule="evenodd"/><path fill="#6db1dc" stroke="#6db1dc" stroke-width="1.0" stroke-linecap="butt" d="m752.79004 230.59268l4.538086 -1.6517334l-4.538086 -1.6517334z" fill-rule="evenodd"/><path fill="#000000" fill-opacity="0.0" d="m316.60498 298.8819l69.7323 0" fill-rule="evenodd"/><path stroke="#6db1dc" stroke-width="1.0" stroke-linejoin="round" stroke-linecap="butt" d="m316.60498 298.8819l63.7323 0" fill-rule="evenodd"/><path fill="#6db1dc" stroke="#6db1dc" stroke-width="1.0" stroke-linecap="butt" d="m380.33728 300.53363l4.538086 -1.6517334l-4.538086 -1.6517334z" fill-rule="evenodd"/><path fill="#000000" fill-opacity="0.0" d="m405.88846 298.88977l81.480316 0" fill-rule="evenodd"/><path stroke="#6db1dc" stroke-width="1.0" stroke-linejoin="round" stroke-linecap="butt" d="m405.88846 298.88977l75.480316 0" fill-rule="evenodd"/><path fill="#6db1dc" stroke="#6db1dc" stroke-width="1.0" stroke-linecap="butt" d="m481.36877 300.5415l4.538086 -1.6517334l-4.538086 -1.6517334z" fill-rule="evenodd"/><path fill="#000000" fill-opacity="0.0" d="m506.92914 298.88846l69.7323 0" fill-rule="evenodd"/><path stroke="#6db1dc" stroke-width="1.0" stroke-linejoin="round" stroke-linecap="butt" d="m506.92914 298.88846l63.7323 0" fill-rule="evenodd"/><path fill="#6db1dc" stroke="#6db1dc" stroke-width="1.0" stroke-linecap="butt" d="m570.66144 300.5402l4.538086 -1.6517334l-4.538086 -1.6517334z" fill-rule="evenodd"/><path fill="#000000" fill-opacity="0.0" d="m596.2113 298.88058l71.49603 0" fill-rule="evenodd"/><path stroke="#6db1dc" stroke-width="1.0" stroke-linejoin="round" stroke-linecap="butt" d="m596.2113 298.88058l65.49603 0" fill-rule="evenodd"/><path fill="#6db1dc" stroke="#6db1dc" stroke-width="1.0" stroke-linecap="butt" d="m661.70734 300.53232l4.538086 -1.6517334l-4.538086 -1.6517334z" fill-rule="evenodd"/><path fill="#000000" fill-opacity="0.0" d="m687.27295 298.88058l71.49609 0" fill-rule="evenodd"/><path stroke="#6db1dc" stroke-width="1.0" stroke-linejoin="round" stroke-linecap="butt" d="m687.27295 298.88058l65.49609 0" fill-rule="evenodd"/><path fill="#6db1dc" stroke="#6db1dc" stroke-width="1.0" stroke-linecap="butt" d="m752.76904 300.53232l4.538086 -1.6517334l-4.538086 -1.6517334z" fill-rule="evenodd"/><path fill="#000000" fill-opacity="0.0" d="m311.96457 373.063l76.944885 0" fill-rule="evenodd"/><path stroke="#6db1dc" stroke-width="1.0" stroke-linejoin="round" stroke-linecap="butt" d="m311.96457 373.063l70.944885 0" fill-rule="evenodd"/><path fill="#6db1dc" stroke="#6db1dc" stroke-width="1.0" stroke-linecap="butt" d="m382.90945 374.71472l4.538086 -1.6517334l-4.538086 -1.6517334z" fill-rule="evenodd"/><path fill="#000000" fill-opacity="0.0" d="m408.46457 373.063l75.1496 0" fill-rule="evenodd"/><path stroke="#6db1dc" stroke-width="1.0" stroke-linejoin="round" stroke-linecap="butt" d="m408.46457 373.063l69.1496 0" fill-rule="evenodd"/><path fill="#6db1dc" stroke="#6db1dc" stroke-width="1.0" stroke-linecap="butt" d="m477.61417 374.71472l4.5381165 -1.6517334l-4.5381165 -1.6517334z" fill-rule="evenodd"/><path fill="#000000" fill-opacity="0.0" d="m503.18634 373.06168l69.921265 0" fill-rule="evenodd"/><path stroke="#6db1dc" stroke-width="1.0" stroke-linejoin="round" stroke-linecap="butt" d="m503.18634 373.06168l63.921265 0" fill-rule="evenodd"/><path fill="#6db1dc" stroke="#6db1dc" stroke-width="1.0" stroke-linecap="butt" d="m567.1076 374.7134l4.538086 -1.6517334l-4.538086 -1.6517334z" fill-rule="evenodd"/><path fill="#000000" fill-opacity="0.0" d="m155.11812 231.31233l73.291336 0l0 24.37796l-73.291336 0z" fill-rule="evenodd"/><path fill="#404040" d="m165.915 245.17484l0 1.359375l-1.25 0l0 -1.078125q0 -0.875 0.203125 -1.265625q0.265625 -0.515625 0.859375 -0.78125l0.296875 0.453125q-0.359375 0.15625 -0.53125 0.453125q-0.171875 0.296875 -0.1875 0.859375l0.609375 0zm2.015625 0l0 1.359375l-1.25 0l0 -1.078125q0 -0.875 0.203125 -1.265625q0.28125 -0.515625 0.859375 -0.78125l0.296875 0.453125q-0.359375 0.15625 -0.53125 0.453125q-0.171875 0.296875 -0.1875 0.859375l0.609375 0zm1.4852448 7.9375l0 -9.546875l1.171875 0l0 9.546875l-1.171875 0zm4.89859 0l-2.625 -6.90625l1.234375 0l1.484375 4.140625q0.234375 0.65625 0.4375 1.390625q0.15625 -0.546875 0.4375 -1.3125l1.53125 -4.21875l1.21875 0l-2.625 6.90625l-1.09375 0zm4.2734375 -2.0625l1.15625 -0.1875q0.109375 0.703125 0.546875 1.078125q0.453125 0.359375 1.25 0.359375q0.8125 0 1.203125 -0.328125q0.390625 -0.328125 0.390625 -0.765625q0 -0.390625 -0.359375 -0.625q-0.234375 -0.15625 -1.1875 -0.390625q-1.296875 -0.328125 -1.796875 -0.5625q-0.484375 -0.25 -0.75 -0.65625q-0.25 -0.421875 -0.25 -0.9375q0 -0.453125 0.203125 -0.84375q0.21875 -0.40625 0.578125 -0.671875q0.28125 -0.1875 0.75 -0.328125q0.46875 -0.140625 1.015625 -0.140625q0.8125 0 1.421875 0.234375q0.609375 0.234375 0.90625 0.640625q0.296875 0.390625 0.40625 1.0625l-1.140625 0.15625q-0.078125 -0.53125 -0.453125 -0.828125q-0.375 -0.3125 -1.0625 -0.3125q-0.8125 0 -1.15625 0.265625q-0.34375 0.265625 -0.34375 0.625q0 0.234375 0.140625 0.421875q0.15625 0.1875 0.453125 0.3125q0.171875 0.0625 1.03125 0.296875q1.25 0.328125 1.734375 0.546875q0.5 0.203125 0.78125 0.609375q0.28125 0.40625 0.28125 1.0q0 0.59375 -0.34375 1.109375q-0.34375 0.515625 -1.0 0.796875q-0.640625 0.28125 -1.453125 0.28125q-1.34375 0 -2.046875 -0.5625q-0.703125 -0.5625 -0.90625 -1.65625zm6.6796875 -0.796875l0 -1.1875l3.59375 0l0 1.1875l-3.59375 0zm7.4539948 1.8125l0.171875 1.03125q-0.5 0.109375 -0.890625 0.109375q-0.640625 0 -1.0 -0.203125q-0.34375 -0.203125 -0.484375 -0.53125q-0.140625 -0.328125 -0.140625 -1.390625l0 -3.96875l-0.859375 0l0 -0.90625l0.859375 0l0 -1.71875l1.171875 -0.703125l0 2.421875l1.171875 0l0 0.90625l-1.171875 0l0 4.046875q0 0.5 0.046875 0.640625q0.0625 0.140625 0.203125 0.234375q0.140625 0.078125 0.40625 0.078125q0.203125 0 0.515625 -0.046875zm5.8748627 -1.171875l1.203125 0.140625q-0.28125 1.0625 -1.0625 1.65625q-0.765625 0.578125 -1.96875 0.578125q-1.515625 0 -2.40625 -0.9375q-0.890625 -0.9375 -0.890625 -2.609375q0 -1.75 0.890625 -2.703125q0.90625 -0.96875 2.34375 -0.96875q1.390625 0 2.265625 0.9375q0.875 0.9375 0.875 2.65625q0 0.109375 0 0.3125l-5.15625 0q0.0625 1.140625 0.640625 1.75q0.578125 0.59375 1.4375 0.59375q0.65625 0 1.109375 -0.328125q0.453125 -0.34375 0.71875 -1.078125zm-3.84375 -1.90625l3.859375 0q-0.078125 -0.859375 -0.4375 -1.296875q-0.5625 -0.6875 -1.453125 -0.6875q-0.8125 0 -1.359375 0.546875q-0.546875 0.53125 -0.609375 1.4375zm6.0531006 2.0625l1.15625 -0.1875q0.109375 0.703125 0.546875 1.078125q0.453125 0.359375 1.25 0.359375q0.8125 0 1.203125 -0.328125q0.390625 -0.328125 0.390625 -0.765625q0 -0.390625 -0.359375 -0.625q-0.234375 -0.15625 -1.1875 -0.390625q-1.296875 -0.328125 -1.796875 -0.5625q-0.484375 -0.25 -0.75 -0.65625q-0.25 -0.421875 -0.25 -0.9375q0 -0.453125 0.203125 -0.84375q0.21875 -0.40625 0.578125 -0.671875q0.28125 -0.1875 0.75 -0.328125q0.46875 -0.140625 1.015625 -0.140625q0.8125 0 1.421875 0.234375q0.609375 0.234375 0.90625 0.640625q0.296875 0.390625 0.40625 1.0625l-1.140625 0.15625q-0.078125 -0.53125 -0.453125 -0.828125q-0.375 -0.3125 -1.0625 -0.3125q-0.8125 0 -1.15625 0.265625q-0.34375 0.265625 -0.34375 0.625q0 0.234375 0.140625 0.421875q0.15625 0.1875 0.453125 0.3125q0.171875 0.0625 1.03125 0.296875q1.25 0.328125 1.734375 0.546875q0.5 0.203125 0.78125 0.609375q0.28125 0.40625 0.28125 1.0q0 0.59375 -0.34375 1.109375q-0.34375 0.515625 -1.0 0.796875q-0.640625 0.28125 -1.453125 0.28125q-1.34375 0 -2.046875 -0.5625q-0.703125 -0.5625 -0.90625 -1.65625zm9.6953125 1.015625l0.171875 1.03125q-0.5 0.109375 -0.890625 0.109375q-0.640625 0 -1.0 -0.203125q-0.34375 -0.203125 -0.484375 -0.53125q-0.140625 -0.328125 -0.140625 -1.390625l0 -3.96875l-0.859375 0l0 -0.90625l0.859375 0l0 -1.71875l1.171875 -0.703125l0 2.421875l1.171875 0l0 0.90625l-1.171875 0l0 4.046875q0 0.5 0.046875 0.640625q0.0625 0.140625 0.203125 0.234375q0.140625 0.078125 0.40625 0.078125q0.203125 0 0.515625 -0.046875zm0.8279877 -7.234375l0 -1.359375l1.265625 0l0 1.078125q0 0.875 -0.203125 1.25q-0.28125 0.53125 -0.875 0.796875l-0.28125 -0.453125q0.34375 -0.15625 0.515625 -0.453125q0.171875 -0.3125 0.1875 -0.859375l-0.609375 0zm2.015625 0l0 -1.359375l1.265625 0l0 1.078125q0 0.875 -0.203125 1.25q-0.28125 0.53125 -0.875 0.796875l-0.28125 -0.453125q0.34375 -0.15625 0.515625 -0.453125q0.171875 -0.3125 0.203125 -0.859375l-0.625 0z" fill-rule="nonzero"/><path fill="#000000" fill-opacity="0.0" d="m211.52501 181.71483l73.291336 -0.03149414l0 24.377945l-73.291336 0.03149414z" fill-rule="evenodd"/><path fill="#404040" d="m222.32188 195.5727l0 1.359375l-1.25 5.340576E-4l0 -1.078125q0 -0.875 0.203125 -1.2657166q0.265625 -0.5157318 0.859375 -0.7816162l0.296875 0.45300293q-0.359375 0.15640259 -0.53125 0.45335388q-0.171875 0.29693604 -0.1875 0.8594513l0.609375 -2.593994E-4zm2.015625 -8.69751E-4l0 1.359375l-1.25 5.340576E-4l0 -1.078125q0 -0.875 0.203125 -1.2657166q0.28125 -0.5157471 0.859375 -0.7816162l0.296875 0.45300293q-0.359375 0.15640259 -0.53125 0.45335388q-0.171875 0.2969513 -0.1875 0.8594513l0.609375 -2.593994E-4zm6.0164948 7.0755463q-0.65625 0.56277466 -1.265625 0.79740906q-0.59375 0.2190094 -1.28125 0.21929932q-1.140625 4.8828125E-4 -1.75 -0.54611206q-0.609375 -0.5622406 -0.609375 -1.4372406q0 -0.5 0.21875 -0.92196655q0.234375 -0.4219818 0.609375 -0.67214966q0.375 -0.2501526 0.84375 -0.39097595q0.34375 -0.07827759 1.046875 -0.17233276q1.421875 -0.17248535 2.09375 -0.40715027q0 -0.234375 0 -0.296875q0 -0.71875 -0.328125 -1.0154877q-0.453125 -0.39042664 -1.34375 -0.39004517q-0.8125 3.5095215E-4 -1.21875 0.29740906q-0.390625 0.28141785 -0.578125 1.0158691l-1.140625 -0.15576172q0.15625 -0.73443604 0.515625 -1.1877289q0.359375 -0.4532776 1.03125 -0.6879425q0.671875 -0.25028992 1.5625 -0.2506714q0.890625 -3.8146973E-4 1.4375 0.20251465q0.5625 0.20288086 0.8125 0.53089905q0.265625 0.3123932 0.375 0.79670715q0.046875 0.29685974 0.046875 1.0781097l0 1.5625q0 1.625 0.078125 2.0624695q0.078125 0.43746948 0.296875 0.8280029l-1.21875 5.187988E-4q-0.1875 -0.3592987 -0.234375 -0.8592682zm-0.09375 -2.6093445q-0.640625 0.26589966 -1.921875 0.43832397q-0.71875 0.109695435 -1.015625 0.2504425q-0.296875 0.12512207 -0.46875 0.37519836q-0.15625 0.25006104 -0.15625 0.54693604q0 0.46875 0.34375 0.7811127q0.359375 0.3123474 1.046875 0.31204224q0.671875 -2.89917E-4 1.203125 -0.2973938q0.53125 -0.29710388 0.78125 -0.8128357q0.1875 -0.3907013 0.1875 -1.1719513l0 -0.421875zm2.9749603 3.4674683l0 -6.90625l1.0625 -4.5776367E-4l0 1.046875q0.40625 -0.73454285 0.734375 -0.9690552q0.34375 -0.23452759 0.765625 -0.2347107q0.59375 -2.593994E-4 1.203125 0.3744812l-0.40625 1.0783081q-0.4375 -0.2498169 -0.859375 -0.24963379q-0.390625 1.6784668E-4 -0.703125 0.23468018q-0.296875 0.23449707 -0.421875 0.6408081q-0.203125 0.6250763 -0.203125 1.3594513l0 3.625l-1.171875 5.0354004E-4zm7.0164948 -1.049881l0.171875 1.0311737q-0.5 0.10958862 -0.890625 0.10975647q-0.640625 2.746582E-4 -1.0 -0.20269775q-0.34375 -0.20297241 -0.484375 -0.5310364q-0.140625 -0.32806396 -0.140625 -1.390564l0 -3.96875l-0.859375 3.6621094E-4l0 -0.90625l0.859375 -3.6621094E-4l0 -1.71875l1.171875 -0.70362854l0 2.421875l1.171875 -5.0354004E-4l0 0.90625l-1.171875 5.0354004E-4l0 4.046875q0 0.5 0.046875 0.6405945q0.0625 0.14060974 0.203125 0.2342987q0.140625 0.078063965 0.40625 0.077941895q0.203125 -7.6293945E-5 0.515625 -0.047088623zm1.1561127 -7.1411285l0 -1.359375l1.171875 -5.0354004E-4l0 1.359375l-1.171875 5.0354004E-4zm0 8.1875l0 -6.90625l1.171875 -5.0354004E-4l0 6.90625l-1.171875 5.0354004E-4zm7.46109 -2.5344543l1.15625 0.15576172q-0.1875 1.1875763 -0.96875 1.859787q-0.78125 0.6722107 -1.921875 0.672699q-1.40625 6.1035156E-4 -2.28125 -0.92089844q-0.859375 -0.9371338 -0.859375 -2.6558838q0 -1.125 0.375 -1.9689026q0.375 -0.84391785 1.125 -1.2504883q0.765625 -0.42219543 1.65625 -0.42259216q1.125 -4.7302246E-4 1.84375 0.5773468q0.71875 0.56217957 0.921875 1.6089783l-1.140625 0.17236328q-0.171875 -0.7030487 -0.59375 -1.0466309q-0.40625 -0.3591919 -0.984375 -0.35894775q-0.890625 3.8146973E-4 -1.453125 0.6412506q-0.546875 0.6408539 -0.546875 2.000229q0 1.40625 0.53125 2.0310364q0.546875 0.62475586 1.40625 0.62438965q0.6875 -2.89917E-4 1.140625 -0.42236328q0.46875 -0.42207336 0.59375 -1.2971344zm2.1328125 2.5303345l0 -9.546875l1.171875 -5.0354004E-4l0 9.546875l-1.171875 5.0354004E-4zm7.7111053 -2.2220612l1.203125 0.1401062q-0.28125 1.0626221 -1.0625 1.6567078q-0.765625 0.57844543 -1.96875 0.57896423q-1.5156403 6.5612793E-4 -2.4062653 -0.9364624q-0.890625 -0.93711853 -0.890625 -2.6089935q0 -1.75 0.890625 -2.7035065q0.90625 -0.96913147 2.3437653 -0.9697571q1.390625 -5.950928E-4 2.265625 0.93652344q0.875 0.9371338 0.875 2.6558838q0 0.109375 0 0.3125l-5.1562653 0.0022125244q0.0625 1.1405945 0.640625 1.7497253q0.57814026 0.59350586 1.4375153 0.5931244q0.65625 -2.746582E-4 1.109375 -0.32859802q0.453125 -0.34394836 0.71875 -1.0784302zm-3.8437653 -1.904602l3.8593903 -0.001663208q-0.078125 -0.8593292 -0.4375 -1.2966766q-0.5625 -0.68725586 -1.453125 -0.6868744q-0.8125 3.5095215E-4 -1.3593903 0.54745483q-0.546875 0.5314789 -0.609375 1.4377594zm6.209366 -4.1589203l0 -1.359375l1.265625 -5.340576E-4l0 1.078125q0 0.875 -0.203125 1.2500763q-0.28125 0.5313721 -0.875 0.79725647l-0.28125 -0.45300293q0.34375 -0.15640259 0.515625 -0.45335388q0.171875 -0.3125763 0.1875 -0.8594513l-0.609375 2.593994E-4zm2.015625 -8.69751E-4l0 -1.359375l1.265625 -5.340576E-4l0 1.078125q0 0.875 -0.203125 1.2500763q-0.28125 0.5313721 -0.875 0.79725647l-0.28125 -0.45300293q0.34375 -0.15640259 0.515625 -0.45333862q0.171875 -0.3125763 0.203125 -0.85946655l-0.625 2.593994E-4z" fill-rule="nonzero"/><path fill="#000000" fill-opacity="0.0" d="m254.92412 231.54375l73.291336 -0.06298828l0 24.37796l-73.291336 0.06298828z" fill-rule="evenodd"/><path fill="#404040" d="m265.72098 245.39697l0 1.359375l-1.25 0.001083374l0 -1.078125q0 -0.875 0.203125 -1.2658081q0.265625 -0.5158539 0.859375 -0.7819824l0.296875 0.4528656q-0.359375 0.15655518 -0.53125 0.45358276q-0.171875 0.2970276 -0.1875 0.85954285l0.609375 -5.340576E-4zm2.015625 -0.0017242432l0 1.359375l-1.25 0.0010681152l0 -1.078125q0 -0.875 0.203125 -1.2657928q0.28125 -0.51586914 0.859375 -0.7819977l0.296875 0.45288086q-0.359375 0.15655518 -0.53125 0.4535675q-0.171875 0.2970276 -0.1875 0.85954285l0.609375 -5.187988E-4zm6.01651 7.0729523q-0.65625 0.5630646 -1.265625 0.7979584q-0.59375 0.2192688 -1.28125 0.21984863q-1.140625 9.918213E-4 -1.75 -0.5453644q-0.609375 -0.5619812 -0.609375 -1.4369812q0 -0.5 0.21875 -0.9220581q0.234375 -0.42207336 0.609375 -0.6723938q0.375 -0.2503357 0.84375 -0.39135742q0.34375 -0.07841492 1.046875 -0.17277527q1.421875 -0.1730957 2.09375 -0.40805054q0 -0.234375 0 -0.296875q0 -0.71875 -0.328125 -1.0153351q-0.453125 -0.39024353 -1.34375 -0.3894806q-0.8125 7.019043E-4 -1.21875 0.29792786q-0.390625 0.2815857 -0.578125 1.0161285l-1.140625 -0.15527344q0.15625 -0.7345123 0.515625 -1.1879425q0.359375 -0.45344543 1.03125 -0.688385q0.671875 -0.25057983 1.5625 -0.25134277q0.890625 -7.7819824E-4 1.4375 0.20188904q0.5625 0.20263672 0.8125 0.5305481q0.265625 0.31227112 0.375 0.79655457q0.046875 0.29682922 0.046875 1.0780792l0 1.5625q0 1.625 0.078125 2.062439q0.078125 0.4374237 0.296875 0.8278656l-1.21875 0.0010528564q-0.1875 -0.3592224 -0.234375 -0.85917664zm-0.09375 -2.6092987q-0.640625 0.26617432 -1.921875 0.43914795q-0.71875 0.11000061 -1.015625 0.250885q-0.296875 0.12524414 -0.46875 0.37539673q-0.15625 0.25013733 -0.15625 0.5470123q0 0.46875 0.34375 0.7809601q0.359375 0.31217957 1.046875 0.31159973q0.671875 -5.79834E-4 1.203125 -0.2979126q0.53125 -0.29733276 0.78125 -0.8131714q0.1875 -0.39079285 0.1875 -1.1720428l0 -0.421875zm7.5218506 3.4622955l0 -1.015625q-0.8125 1.1725616 -2.1875 1.1737518q-0.609375 5.187988E-4 -1.140625 -0.23339844q-0.53125 -0.23391724 -0.796875 -0.57743835q-0.25 -0.35916138 -0.359375 -0.8746948q-0.0625 -0.34368896 -0.0625 -1.093689l0 -4.28125l1.171875 -0.0010070801l0 3.828125q0 0.921875 0.0625 1.234314q0.109375 0.46865845 0.46875 0.7339783q0.359375 0.24969482 0.890625 0.24923706q0.515625 -4.4250488E-4 0.984375 -0.2664795q0.46875 -0.26602173 0.65625 -0.7349396q0.1875 -0.4689026 0.1875 -1.3439026l0 -3.7031403l1.171875 -0.0010070801l0 6.9062653l-1.046875 9.0026855E-4zm5.4437256 -1.0515594l0.171875 1.0310974q-0.5 0.109802246 -0.890625 0.11013794q-0.640625 5.645752E-4 -1.0 -0.20225525q-0.34375 -0.20283508 -0.484375 -0.530838q-0.140625 -0.32800293 -0.140625 -1.3905029l0 -3.96875l-0.859375 7.324219E-4l0 -0.90625l0.859375 -7.324219E-4l0 -1.71875l1.171875 -0.7041321l0 2.421875l1.171875 -0.0010070801l0 0.90625l-1.171875 0.0010070801l0 4.046875q0 0.5 0.046875 0.6405792q0.0625 0.14057922 0.203125 0.23420715q0.140625 0.07800293 0.40625 0.07777405q0.203125 -1.6784668E-4 0.515625 -0.047317505zm1.1404724 1.0458984l0 -9.546875l1.171875 -0.0010223389l0 3.4218903q0.828125 -0.93821716 2.078125 -0.9392853q0.765625 -6.713867E-4 1.328125 0.2957306q0.5625 0.29638672 0.8125 0.8430481q0.25 0.5310364 0.25 1.5466614l0 4.375l-1.171875 0.0010070801l0 -4.375q0 -0.890625 -0.390625 -1.2809143q-0.375 -0.40592957 -1.078125 -0.4053192q-0.515625 4.4250488E-4 -0.984375 0.28208923q-0.453125 0.26602173 -0.65625 0.7349396q-0.1875 0.45329285 -0.1875 1.2657928l0 3.78125l-1.171875 0.0010070801zm6.9749756 -3.4591217q0 -1.921875 1.078125 -2.8446808q0.890625 -0.76638794 2.171875 -0.7674866q1.421875 -0.0012207031 2.328125 0.9355011q0.90625 0.92108154 0.90625 2.5773468q0 1.328125 -0.40625 2.0940857q-0.390625 0.7659607 -1.15625 1.1885071q-0.765625 0.42253113 -1.671875 0.42330933q-1.453125 0.0012512207 -2.359375 -0.9198456q-0.890625 -0.93673706 -0.890625 -2.686737zm1.203125 -0.0010375977q0 1.328125 0.578125 1.9838715q0.59375 0.65574646 1.46875 0.6549988q0.875 -7.6293945E-4 1.453125 -0.6575012q0.578125 -0.67237854 0.578125 -2.0317535q0 -1.28125 -0.59375 -1.9369812q-0.578125 -0.6557617 -1.4375 -0.65501404q-0.875 7.4768066E-4 -1.46875 0.6575012q-0.578125 0.65675354 -0.578125 1.9848785zm6.6312256 3.4474335l0 -6.9062653l1.0625 -9.0026855E-4l0 1.046875q0.40625 -0.73472595 0.734375 -0.96939087q0.34375 -0.23466492 0.765625 -0.23503113q0.59375 -5.0354004E-4 1.203125 0.3739624l-0.40625 1.078476q-0.4375 -0.24961853 -0.859375 -0.24925232q-0.390625 3.3569336E-4 -0.703125 0.2349701q-0.296875 0.2346344 -0.421875 0.6409912q-0.203125 0.62516785 -0.203125 1.3595428l0 3.6250153l-1.171875 0.0010070801zm4.1414795 -8.284821l0 -1.359375l1.265625 -0.001083374l0 1.078125q0 0.875 -0.203125 1.2501678q-0.28125 0.53149414 -0.875 0.79763794l-0.28125 -0.45289612q0.34375 -0.15653992 0.515625 -0.4535675q0.171875 -0.31263733 0.1875 -0.8595276l-0.609375 5.187988E-4zm2.015625 -0.0017242432l0 -1.359375l1.265625 -0.0010986328l0 1.078125q0 0.875 -0.203125 1.2501831q-0.28125 0.53149414 -0.875 0.7976227l-0.28125 -0.45288086q0.34375 -0.15653992 0.515625 -0.4535675q0.171875 -0.3126526 0.203125 -0.8595581l-0.625 5.493164E-4z" fill-rule="nonzero"/><path fill="#000000" fill-opacity="0.0" d="m254.9408 258.52133l73.25983 -0.06298828l0 24.409454l-73.25983 0.06298828z" fill-rule="evenodd"/><path fill="#404040" d="m265.73767 272.37454l0 1.359375l-1.25 0.0010986328l0 -1.078125q0 -0.875 0.203125 -1.2658081q0.265625 -0.51586914 0.859375 -0.7819824l0.296875 0.45285034q-0.359375 0.15655518 -0.53125 0.45358276q-0.171875 0.2970276 -0.1875 0.8595581l0.609375 -5.493164E-4zm2.015625 -0.0017089844l0 1.359375l-1.25 0.0010681152l0 -1.078125q0 -0.875 0.203125 -1.2658081q0.28125 -0.51586914 0.859375 -0.7819824l0.296875 0.45285034q-0.359375 0.1565857 -0.53125 0.45358276q-0.171875 0.2970276 -0.1875 0.8595581l0.609375 -5.187988E-4zm6.0164795 7.072937q-0.65625 0.56307983 -1.265625 0.79797363q-0.59375 0.2192688 -1.28125 0.21984863q-1.140625 9.765625E-4 -1.75 -0.54537964q-0.609375 -0.5619812 -0.609375 -1.4369812q0 -0.5 0.21875 -0.9220581q0.234375 -0.4220581 0.609375 -0.6723938q0.375 -0.2503357 0.84375 -0.39135742q0.34375 -0.07839966 1.046875 -0.17276001q1.421875 -0.1730957 2.09375 -0.40805054q0 -0.234375 0 -0.296875q0 -0.71875 -0.328125 -1.0153503q-0.453125 -0.39022827 -1.34375 -0.38946533q-0.8125 7.019043E-4 -1.21875 0.2979126q-0.390625 0.2815857 -0.578125 1.0161133l-1.140625 -0.15524292q0.15625 -0.7345276 0.515625 -1.1879578q0.359375 -0.45343018 1.03125 -0.688385q0.671875 -0.25057983 1.5625 -0.25134277q0.890625 -7.6293945E-4 1.4375 0.20187378q0.5625 0.20266724 0.8125 0.5305786q0.265625 0.31225586 0.375 0.7965393q0.046875 0.29684448 0.046875 1.0780945l0 1.5625q0 1.625 0.078125 2.062439q0.078125 0.43740845 0.296875 0.82785034l-1.21875 0.0010681152q-0.1875 -0.3592224 -0.234375 -0.8591919zm-0.09375 -2.6092834q-0.640625 0.26617432 -1.921875 0.43914795q-0.71875 0.10998535 -1.015625 0.250885q-0.296875 0.12524414 -0.46875 0.37539673q-0.15625 0.25012207 -0.15625 0.5469971q0 0.46875 0.34375 0.7809448q0.359375 0.31219482 1.046875 0.311615q0.671875 -5.79834E-4 1.203125 -0.2979126q0.53125 -0.29733276 0.78125 -0.8131714q0.1875 -0.3907776 0.1875 -1.1720276l0 -0.421875zm7.4749756 3.4623108l0 -0.875q-0.65625 1.0318298 -1.9375 1.0329285q-0.8125 7.019043E-4 -1.515625 -0.45184326q-0.6875 -0.45251465 -1.078125 -1.264679q-0.375 -0.8278198 -0.375 -1.8903198q0 -1.03125 0.34375 -1.8752747q0.34375 -0.8440552 1.03125 -1.282135q0.703125 -0.45373535 1.546875 -0.45446777q0.625 -5.493164E-4 1.109375 0.26467896q0.5 0.24957275 0.796875 0.6711731l0 -3.421875l1.171875 -0.0010070801l0 9.546875l-1.09375 9.460449E-4zm-3.703125 -3.4499512q0 1.3281555 0.5625 1.9839172q0.5625 0.6557617 1.328125 0.65509033q0.765625 -6.4086914E-4 1.296875 -0.62609863q0.53125 -0.62545776 0.53125 -1.9067078q0 -1.421875 -0.546875 -2.0776672q-0.546875 -0.67141724 -1.34375 -0.67071533q-0.78125 6.713867E-4 -1.3125 0.64175415q-0.515625 0.62542725 -0.515625 2.0004272zm6.6312256 3.4474487l0 -6.90625l1.046875 -9.1552734E-4l0 0.96875q0.328125 -0.51589966 0.859375 -0.8132324q0.546875 -0.31298828 1.234375 -0.31356812q0.78125 -6.713867E-4 1.265625 0.31140137q0.484375 0.31210327 0.6875 0.89004517q0.828125 -1.2038269 2.140625 -1.204956q1.03125 -8.8500977E-4 1.578125 0.5767517q0.5625 0.5620117 0.5625 1.7338867l0 4.7500305l-1.171875 0.0010070801l0 -4.359375q0 -0.703125 -0.125 -0.99990845q-0.109375 -0.31240845 -0.40625 -0.4996643q-0.296875 -0.18722534 -0.703125 -0.18688965q-0.71875 6.4086914E-4 -1.203125 0.4854126q-0.484375 0.48480225 -0.484375 1.5473022l0 4.015625l-1.171875 0.0010070801l0 -4.484375q0 -0.78125 -0.296875 -1.1716309q-0.28125 -0.39038086 -0.921875 -0.38983154q-0.5 4.272461E-4 -0.921875 0.26641846q-0.421875 0.2503662 -0.609375 0.7505188q-0.1875 0.5001831 -0.1875 1.4533081l0 3.578125l-1.171875 0.0010070801zm11.118042 -8.1970825l0 -1.359375l1.171875 -0.0010070801l0 1.359375l-1.171875 0.0010070801zm0 8.1875l0 -6.90625l1.171875 -0.0010070801l0 6.90625l-1.171875 0.0010070801zm2.945465 -0.002532959l0 -6.90625l1.0625 -9.1552734E-4l0 0.984375q0.75 -1.1412659 2.1875 -1.1424866q0.625 -5.493164E-4 1.15625 0.21774292q0.53125 0.21829224 0.78125 0.5930786q0.265625 0.35916138 0.375 0.8590698q0.0625 0.32806396 0.0625 1.140564l0 4.25l-1.171875 0.0010070801l0 -4.203125q0 -0.71875 -0.140625 -1.0623779q-0.140625 -0.35925293 -0.484375 -0.56207275q-0.34375 -0.21847534 -0.8125 -0.21807861q-0.75 6.713867E-4 -1.296875 0.46987915q-0.546875 0.46920776 -0.546875 1.7973328l0 3.78125l-1.171875 0.0010070801zm7.0999756 -8.2873535l0 -1.359375l1.265625 -0.0010681152l0 1.078125q0 0.875 -0.203125 1.2501526q-0.28125 0.53149414 -0.875 0.79763794l-0.28125 -0.45288086q0.34375 -0.15655518 0.515625 -0.45358276q0.171875 -0.31262207 0.1875 -0.8595276l-0.609375 5.187988E-4zm2.015625 -0.0017089844l0 -1.3594055l1.265625 -0.0010681152l0 1.078125q0 0.875 -0.203125 1.2501831q-0.28125 0.53149414 -0.875 0.7976074l-0.28125 -0.45288086q0.34375 -0.15655518 0.515625 -0.45355225q0.171875 -0.3126526 0.203125 -0.8595581l-0.625 5.493164E-4z" fill-rule="nonzero"/><path fill="#000000" fill-opacity="0.0" d="m219.11482 309.10736l73.291336 -0.03149414l0 24.37796l-73.291336 0.03149414z" fill-rule="evenodd"/><path fill="#404040" d="m229.9117 322.96524l0 1.359375l-1.25 5.187988E-4l0 -1.078125q0 -0.875 0.203125 -1.265686q0.265625 -0.5157471 0.859375 -0.7816467l0.296875 0.45300293q-0.359375 0.15640259 -0.53125 0.45336914q-0.171875 0.29693604 -0.1875 0.85943604l0.609375 -2.4414062E-4zm2.015625 -8.8500977E-4l0 1.359375l-1.25 5.493164E-4l0 -1.078125q0 -0.875 0.203125 -1.2657166q0.28125 -0.5157471 0.859375 -0.7816162l0.296875 0.45300293q-0.359375 0.15640259 -0.53125 0.45333862q-0.171875 0.29696655 -0.1875 0.85946655l0.609375 -2.746582E-4zm1.5946198 7.9368286l0 -9.546875l1.265625 -5.493164E-4l0 4.734375l4.734375 -4.7364197l1.71875 -7.324219E-4l-4.0 3.8767395l4.171875 5.6700745l-1.65625 7.019043E-4l-3.40625 -4.82666l-1.5625 1.5162964l0 3.3125l-1.265625 5.493164E-4zm8.96788 -0.0038452148l0 -9.546875l6.90625 -0.0029907227l0 1.125l-5.640625 0.0024414062l0 2.921875l5.28125 -0.0022888184l0 1.125l-5.28125 0.0022888184l0 3.25l5.859375 -0.002532959l0 1.125l-7.125 0.0030822754zm11.56163 -0.0049743652l0 -4.046875l-3.6875 -5.498413l1.546875 -6.713867E-4l1.875 2.8742065q0.515625 0.81225586 0.96875 1.6245728q0.4375 -0.7501831 1.046875 -1.6879578l1.84375 -2.8132935l1.46875 -6.1035156E-4l-3.796875 5.5016174l0 4.046875l-1.265625 5.493164E-4zm5.7335205 -8.283722l0 -1.359375l1.265625 -5.493164E-4l0 1.078125q0 0.875 -0.203125 1.2500916q-0.28125 0.5313721 -0.875 0.7972412l-0.28125 -0.45300293q0.34375 -0.15637207 0.515625 -0.45333862q0.171875 -0.31256104 0.1875 -0.85943604l-0.609375 2.4414062E-4zm2.015625 -8.544922E-4l0 -1.359375l1.265625 -5.493164E-4l0 1.078125q0 0.875 -0.203125 1.2500916q-0.28125 0.5313721 -0.875 0.7972412l-0.28125 -0.45300293q0.34375 -0.15640259 0.515625 -0.45333862q0.171875 -0.31259155 0.203125 -0.85946655l-0.625 2.746582E-4z" fill-rule="nonzero"/><path fill="#000000" fill-opacity="0.0" d="m335.5504 131.66333l28.881897 0l0 24.377945l-28.881897 0z" fill-rule="evenodd"/><path fill="#404040" d="m349.51917 153.46332l-1.171875 0l0 -7.46875q-0.421875 0.40625 -1.109375 0.8125q-0.6875 0.40625 -1.234375 0.609375l0 -1.140625q0.984375 -0.453125 1.71875 -1.109375q0.734375 -0.671875 1.03125 -1.28125l0.765625 0l0 9.578125z" fill-rule="nonzero"/><path fill="#000000" fill-opacity="0.0" d="m431.15936 131.66333l28.881866 0l0 24.377945l-28.881866 0z" fill-rule="evenodd"/><path fill="#404040" d="m446.8625 152.33832l0 1.125l-6.296875 0q-0.015625 -0.421875 0.140625 -0.8125q0.234375 -0.640625 0.765625 -1.265625q0.53125 -0.625 1.53125 -1.453125q1.5625 -1.265625 2.109375 -2.015625q0.546875 -0.75 0.546875 -1.40625q0 -0.703125 -0.5 -1.171875q-0.5 -0.484375 -1.296875 -0.484375q-0.859375 0 -1.375 0.515625q-0.5 0.5 -0.5 1.390625l-1.203125 -0.109375q0.125 -1.359375 0.921875 -2.0625q0.8125 -0.703125 2.171875 -0.703125q1.375 0 2.171875 0.765625q0.8125 0.75 0.8125 1.875q0 0.578125 -0.234375 1.140625q-0.234375 0.546875 -0.78125 1.15625q-0.546875 0.609375 -1.8125 1.671875q-1.046875 0.890625 -1.359375 1.21875q-0.296875 0.3125 -0.484375 0.625l4.671875 0z" fill-rule="nonzero"/><path fill="#000000" fill-opacity="0.0" d="m499.68765 131.66405l176.37796 0l0 32.755905l-176.37796 0z" fill-rule="evenodd"/><path fill="#404040" d="m512.92126 150.60466l0 -1.1875l3.59375 0l0 1.1875l-3.59375 0zm8.9852295 2.859375l-1.171875 0l0 -7.46875q-0.421875 0.40625 -1.109375 0.8125q-0.6875 0.40625 -1.234375 0.609375l0 -1.140625q0.984375 -0.453125 1.71875 -1.109375q0.734375 -0.671875 1.03125 -1.28125l0.765625 0l0 9.578125zm6.5217285 -3.984375q0.5 -0.015625 0.8125 -0.265625q0.3125 -0.265625 0.421875 -0.703125q0.109375 -0.453125 0.109375 -1.53125q0 -1.09375 0.03125 -1.4375q0.0625 -0.546875 0.21875 -0.875q0.171875 -0.34375 0.40625 -0.53125q0.234375 -0.203125 0.59375 -0.3125q0.25 -0.0625 0.8125 -0.0625l0.359375 0l0 1.015625l-0.203125 0q-0.671875 0 -0.90625 0.25q-0.21875 0.25 -0.21875 1.09375q0 1.703125 -0.0625 2.15625q-0.125 0.6875 -0.40625 1.078125q-0.28125 0.375 -0.890625 0.65625q0.71875 0.296875 1.03125 0.921875q0.328125 0.609375 0.328125 2.015625q0 1.265625 0.03125 1.5q0.046875 0.453125 0.25 0.625q0.21875 0.171875 0.84375 0.171875l0.203125 0l0 1.03125l-0.359375 0q-0.640625 0 -0.9375 -0.109375q-0.40625 -0.15625 -0.6875 -0.5q-0.265625 -0.328125 -0.359375 -0.84375q-0.078125 -0.5 -0.078125 -1.671875q0 -1.171875 -0.109375 -1.625q-0.109375 -0.453125 -0.421875 -0.703125q-0.3125 -0.265625 -0.8125 -0.28125l0 -1.0625zm4.498291 1.125l0 -1.1875l3.59375 0l0 1.1875l-3.59375 0zm8.9852295 2.859375l-1.171875 0l0 -7.46875q-0.421875 0.40625 -1.109375 0.8125q-0.6875 0.40625 -1.234375 0.609375l0 -1.140625q0.984375 -0.453125 1.71875 -1.109375q0.734375 -0.671875 1.03125 -1.28125l0.765625 0l0 9.578125zm3.6468506 -5.578125l0 -1.328125l1.328125 0l0 1.328125l-1.328125 0zm0 5.578125l0 -1.328125l1.328125 0l0 1.328125l-1.328125 0zm9.51532 1.375l0 -1.171875q-0.875 -0.109375 -1.421875 -0.390625q-0.546875 -0.28125 -0.953125 -0.90625q-0.390625 -0.640625 -0.46875 -1.5625l1.1875 -0.21875q0.140625 0.953125 0.484375 1.390625q0.484375 0.625 1.171875 0.703125l0 -3.734375q-0.71875 -0.140625 -1.46875 -0.5625q-0.5625 -0.3125 -0.875 -0.859375q-0.296875 -0.5625 -0.296875 -1.265625q0 -1.25 0.890625 -2.015625q0.59375 -0.53125 1.75 -0.640625l0 -0.5625l0.703125 0l0 0.5625q1.015625 0.09375 1.609375 0.59375q0.765625 0.640625 0.921875 1.75l-1.203125 0.1875q-0.109375 -0.6875 -0.4375 -1.046875q-0.328125 -0.375 -0.890625 -0.5l0 3.375q0.875 0.234375 1.171875 0.359375q0.546875 0.234375 0.890625 0.578125q0.34375 0.34375 0.515625 0.828125q0.1875 0.46875 0.1875 1.015625q0 1.21875 -0.78125 2.03125q-0.765625 0.8125 -1.984375 0.875l0 1.1875l-0.703125 0zm0 -10.265625q-0.671875 0.109375 -1.078125 0.5625q-0.390625 0.4375 -0.390625 1.046875q0 0.59375 0.328125 1.0q0.34375 0.390625 1.140625 0.640625l0 -3.25zm0.703125 8.109375q0.671875 -0.09375 1.109375 -0.59375q0.453125 -0.515625 0.453125 -1.265625q0 -0.640625 -0.3125 -1.015625q-0.3125 -0.390625 -1.25 -0.703125l0 3.578125zm9.006226 -1.4375l1.203125 0.140625q-0.28125 1.0625 -1.0625 1.65625q-0.765625 0.578125 -1.96875 0.578125q-1.515625 0 -2.40625 -0.9375q-0.890625 -0.9375 -0.890625 -2.609375q0 -1.75 0.890625 -2.703125q0.90625 -0.96875 2.34375 -0.96875q1.390625 0 2.265625 0.9375q0.875 0.9375 0.875 2.65625q0 0.109375 0 0.3125l-5.15625 0q0.0625 1.140625 0.640625 1.75q0.578125 0.59375 1.4375 0.59375q0.65625 0 1.109375 -0.328125q0.453125 -0.34375 0.71875 -1.078125zm-3.84375 -1.90625l3.859375 0q-0.078125 -0.859375 -0.4375 -1.296875q-0.5625 -0.6875 -1.453125 -0.6875q-0.8125 0 -1.359375 0.546875q-0.546875 0.53125 -0.609375 1.4375zm10.928101 6.78125l0 -3.390625q-0.265625 0.390625 -0.765625 0.640625q-0.484375 0.25 -1.046875 0.25q-1.21875 0 -2.109375 -0.984375q-0.890625 -0.984375 -0.890625 -2.6875q0 -1.046875 0.359375 -1.875q0.359375 -0.828125 1.046875 -1.25q0.6875 -0.421875 1.515625 -0.421875q1.28125 0 2.015625 1.078125l0 -0.921875l1.046875 0l0 9.5625l-1.171875 0zm-3.609375 -6.125q0 1.328125 0.5625 2.0q0.5625 0.65625 1.34375 0.65625q0.75 0 1.28125 -0.625q0.546875 -0.640625 0.546875 -1.9375q0 -1.375 -0.578125 -2.0625q-0.5625 -0.703125 -1.328125 -0.703125q-0.765625 0 -1.296875 0.65625q-0.53125 0.640625 -0.53125 2.015625zm5.5374756 6.125l0 -0.859375l7.765625 0l0 0.859375l-7.765625 0zm11.053101 -3.703125l0.171875 1.03125q-0.5 0.109375 -0.890625 0.109375q-0.640625 0 -1.0 -0.203125q-0.34375 -0.203125 -0.484375 -0.53125q-0.140625 -0.328125 -0.140625 -1.390625l0 -3.96875l-0.859375 0l0 -0.90625l0.859375 0l0 -1.71875l1.171875 -0.703125l0 2.421875l1.171875 0l0 0.90625l-1.171875 0l0 4.046875q0 0.5 0.046875 0.640625q0.0625 0.140625 0.203125 0.234375q0.140625 0.078125 0.40625 0.078125q0.203125 0 0.515625 -0.046875zm1.0936279 3.703125l-0.125 -1.09375q0.375 0.109375 0.65625 0.109375q0.390625 0 0.625 -0.140625q0.234375 -0.125 0.390625 -0.359375q0.109375 -0.171875 0.359375 -0.875q0.03125 -0.09375 0.109375 -0.28125l-2.625 -6.921875l1.265625 0l1.4375 4.0q0.28125 0.765625 0.5 1.59375q0.203125 -0.796875 0.46875 -1.578125l1.484375 -4.015625l1.171875 0l-2.625 7.015625q-0.421875 1.140625 -0.65625 1.578125q-0.3125 0.578125 -0.71875 0.84375q-0.40625 0.28125 -0.96875 0.28125q-0.328125 0 -0.75 -0.15625zm6.7109375 0l0 -9.5625l1.078125 0l0 0.890625q0.375 -0.53125 0.84375 -0.78125q0.484375 -0.265625 1.15625 -0.265625q0.875 0 1.546875 0.453125q0.6875 0.453125 1.03125 1.28125q0.34375 0.828125 0.34375 1.828125q0 1.046875 -0.375 1.90625q-0.375 0.84375 -1.109375 1.296875q-0.71875 0.453125 -1.53125 0.453125q-0.578125 0 -1.046875 -0.25q-0.46875 -0.25 -0.765625 -0.625l0 3.375l-1.171875 0zm1.0625 -6.078125q0 1.34375 0.53125 1.984375q0.546875 0.625 1.3125 0.625q0.78125 0 1.34375 -0.65625q0.5625 -0.65625 0.5625 -2.046875q0 -1.3125 -0.546875 -1.96875q-0.546875 -0.671875 -1.296875 -0.671875q-0.75 0 -1.328125 0.703125q-0.578125 0.703125 -0.578125 2.03125zm11.084351 1.203125l1.203125 0.140625q-0.28125 1.0625 -1.0625 1.65625q-0.765625 0.578125 -1.96875 0.578125q-1.515625 0 -2.40625 -0.9375q-0.890625 -0.9375 -0.890625 -2.609375q0 -1.75 0.890625 -2.703125q0.90625 -0.96875 2.34375 -0.96875q1.390625 0 2.265625 0.9375q0.875 0.9375 0.875 2.65625q0 0.109375 0 0.3125l-5.15625 0q0.0625 1.140625 0.640625 1.75q0.578125 0.59375 1.4375 0.59375q0.65625 0 1.109375 -0.328125q0.453125 -0.34375 0.71875 -1.078125zm-3.84375 -1.90625l3.859375 0q-0.078125 -0.859375 -0.4375 -1.296875q-0.5625 -0.6875 -1.453125 -0.6875q-0.8125 0 -1.359375 0.546875q-0.546875 0.53125 -0.609375 1.4375zm8.771851 6.9375q-0.984375 -1.234375 -1.65625 -2.875q-0.65625 -1.640625 -0.65625 -3.390625q0 -1.546875 0.5 -2.96875q0.578125 -1.640625 1.8125 -3.28125l0.828125 0q-0.78125 1.359375 -1.03125 1.9375q-0.40625 0.890625 -0.625 1.875q-0.28125 1.21875 -0.28125 2.4375q0 3.140625 1.9375 6.265625l-0.828125 0zm2.2508545 -8.96875l-0.328125 -1.828125l0 -1.5625l1.34375 0l0 1.5625l-0.296875 1.828125l-0.71875 0zm2.15625 0l-0.328125 -1.828125l0 -1.5625l1.34375 0l0 1.5625l-0.3125 1.828125l-0.703125 0zm4.434387 6.15625l-2.625 -6.90625l1.234375 0l1.484375 4.140625q0.234375 0.65625 0.4375 1.390625q0.15625 -0.546875 0.4375 -1.3125l1.53125 -4.21875l1.21875 0l-2.625 6.90625l-1.09375 0zm10.9140625 -5.609375l-6.3125 0l0 -1.09375l6.3125 0l0 1.09375zm0 2.890625l-6.3125 0l0 -1.09375l6.3125 0l0 1.09375zm1.2833862 -1.984375q0 -1.6875 0.34375 -2.71875q0.359375 -1.03125 1.046875 -1.59375q0.6875 -0.5625 1.71875 -0.5625q0.78125 0 1.359375 0.3125q0.578125 0.296875 0.953125 0.890625q0.375 0.578125 0.59375 1.421875q0.21875 0.828125 0.21875 2.25q0 1.671875 -0.359375 2.703125q-0.34375 1.03125 -1.03125 1.59375q-0.671875 0.5625 -1.734375 0.5625q-1.375 0 -2.15625 -0.984375q-0.953125 -1.1875 -0.953125 -3.875zm1.203125 0q0 2.34375 0.546875 3.125q0.5625 0.78125 1.359375 0.78125q0.8125 0 1.359375 -0.78125q0.5625 -0.78125 0.5625 -3.125q0 -2.359375 -0.5625 -3.125q-0.546875 -0.78125 -1.359375 -0.78125q-0.8125 0 -1.296875 0.6875q-0.609375 0.875 -0.609375 3.21875zm6.5999756 -1.453125l-0.328125 -1.828125l0 -1.5625l1.34375 0l0 1.5625l-0.296875 1.828125l-0.71875 0zm2.15625 0l-0.328125 -1.828125l0 -1.5625l1.34375 0l0 1.5625l-0.3125 1.828125l-0.703125 0zm3.2781372 8.96875l-0.828125 0q1.9375 -3.125 1.9375 -6.265625q0 -1.21875 -0.28125 -2.421875q-0.21875 -0.984375 -0.609375 -1.875q-0.265625 -0.59375 -1.046875 -1.953125l0.828125 0q1.234375 1.640625 1.8125 3.28125q0.5 1.421875 0.5 2.96875q0 1.75 -0.671875 3.390625q-0.671875 1.640625 -1.640625 2.875zm6.8758545 -6.796875l0 1.0625q-0.5 0.015625 -0.828125 0.28125q-0.3125 0.25 -0.421875 0.703125q-0.09375 0.4375 -0.109375 1.53125q0 1.078125 -0.03125 1.421875q-0.0625 0.5625 -0.21875 0.890625q-0.15625 0.328125 -0.390625 0.515625q-0.234375 0.203125 -0.59375 0.3125q-0.25 0.078125 -0.8125 0.078125l-0.359375 0l0 -1.03125l0.1875 0q0.6875 0 0.90625 -0.25q0.21875 -0.234375 0.21875 -1.09375q0 -1.625 0.0625 -2.0625q0.109375 -0.71875 0.421875 -1.140625q0.3125 -0.4375 0.875 -0.6875q-0.75 -0.359375 -1.0625 -0.9375q-0.296875 -0.59375 -0.296875 -2.0q0 -1.265625 -0.03125 -1.515625q-0.046875 -0.4375 -0.265625 -0.609375q-0.203125 -0.171875 -0.828125 -0.171875l-0.1875 0l0 -1.015625l0.359375 0q0.640625 0 0.921875 0.109375q0.421875 0.140625 0.6875 0.484375q0.28125 0.328125 0.359375 0.84375q0.078125 0.515625 0.078125 1.6875q0.015625 1.171875 0.109375 1.625q0.109375 0.4375 0.421875 0.703125q0.328125 0.25 0.828125 0.265625z" fill-rule="nonzero"/><path fill="#000000" fill-opacity="0.0" d="m338.16855 200.32211l28.881866 0l0 24.37796l-28.881866 0z" fill-rule="evenodd"/><path fill="#404040" d="m352.1373 222.12212l-1.171875 0l0 -7.46875q-0.421875 0.40625 -1.109375 0.8125q-0.6875 0.40625 -1.234375 0.609375l0 -1.140625q0.984375 -0.453125 1.71875 -1.109375q0.734375 -0.671875 1.03125 -1.28125l0.765625 0l0 9.578125z" fill-rule="nonzero"/><path fill="#000000" fill-opacity="0.0" d="m414.07898 200.33902l73.29132 -0.06298828l0 24.37796l-73.29132 0.06298828z" fill-rule="evenodd"/><path fill="#404040" d="m424.87585 214.19225l0 1.359375l-1.25 0.001083374l0 -1.078125q0 -0.875 0.203125 -1.2658081q0.265625 -0.5158539 0.859375 -0.7819824l0.296875 0.4528656q-0.359375 0.15655518 -0.53125 0.45358276q-0.171875 0.2970276 -0.1875 0.85954285l0.609375 -5.340576E-4zm2.015625 -0.0017242432l0 1.359375l-1.25 0.0010681152l0 -1.078125q0 -0.875 0.203125 -1.2657928q0.28125 -0.51586914 0.859375 -0.7819977l0.296875 0.45288086q-0.359375 0.15655518 -0.53125 0.45358276q-0.171875 0.29701233 -0.1875 0.8595276l0.609375 -5.187988E-4zm1.5946045 7.9361267l0 -9.546875l1.265625 -0.001083374l0 4.734375l4.734375 -4.738449l1.71875 -0.0014801025l-4.0 3.8784485l4.171875 5.668289l-1.65625 0.0014190674l-3.40625 -4.8251953l-1.5625 1.5169678l0 3.3125l-1.265625 0.001083374zm8.9678955 -0.0077056885l0 -9.546875l6.9062195 -0.005935669l0 1.125l-5.6405945 0.004852295l0 2.921875l5.2812195 -0.004547119l0 1.125l-5.2812195 0.004547119l0 3.25l5.8593445 -0.0050354004l0 1.125l-7.1249695 0.0061187744zm11.561615 -0.009933472l0 -4.046875l-3.6875 -5.4968414l1.546875 -0.0013275146l1.875 2.8733978q0.515625 0.8120575 0.96875 1.6241608q0.4375 -0.7503662 1.046875 -1.6884003l1.84375 -2.814087l1.46875 -0.0012512207l-3.796875 5.5032654l0 4.046875l-1.265625 0.001083374zm5.73349 -8.286179l0 -1.359375l1.265625 -0.0010986328l0 1.078125q0 0.875 -0.203125 1.2501831q-0.28125 0.53149414 -0.875 0.7976227l-0.28125 -0.45288086q0.34375 -0.15653992 0.515625 -0.4535675q0.171875 -0.3126526 0.1875 -0.85954285l-0.609375 5.340576E-4zm2.015625 -0.001739502l0 -1.359375l1.265625 -0.001083374l0 1.078125q0 0.875 -0.203125 1.2501678q-0.28125 0.53149414 -0.875 0.79763794l-0.28125 -0.45288086q0.34375 -0.15655518 0.515625 -0.45358276q0.171875 -0.31263733 0.203125 -0.85954285l-0.625 5.340576E-4z" fill-rule="nonzero"/><path fill="#000000" fill-opacity="0.0" d="m513.8757 200.33858l44.944885 0l0 24.37796l-44.944885 0z" fill-rule="evenodd"/><path fill="#404040" d="m523.29755 219.2792l0 -1.1875l3.59375 0l0 1.1875l-3.59375 0zm10.7196045 1.734375l0 1.125l-6.296875 0q-0.015625 -0.421875 0.140625 -0.8125q0.234375 -0.640625 0.765625 -1.265625q0.53125 -0.625 1.53125 -1.453125q1.5625 -1.265625 2.109375 -2.015625q0.546875 -0.75 0.546875 -1.40625q0 -0.703125 -0.5 -1.171875q-0.5 -0.484375 -1.296875 -0.484375q-0.859375 0 -1.375 0.515625q-0.5 0.5 -0.5 1.390625l-1.203125 -0.109375q0.125 -1.359375 0.921875 -2.0625q0.8125 -0.703125 2.171875 -0.703125q1.375 0 2.171875 0.765625q0.8125 0.75 0.8125 1.875q0 0.578125 -0.234375 1.140625q-0.234375 0.546875 -0.78125 1.15625q-0.546875 0.609375 -1.8125 1.671875q-1.046875 0.890625 -1.359375 1.21875q-0.296875 0.3125 -0.484375 0.625l4.671875 0z" fill-rule="nonzero"/><path fill="#000000" fill-opacity="0.0" d="m606.77203 200.30708l44.944824 0l0 24.37796l-44.944824 0z" fill-rule="evenodd"/><path fill="#404040" d="m616.1939 219.24771l0 -1.1875l3.59375 0l0 1.1875l-3.59375 0zm4.5789795 0.34375l1.171875 -0.15625q0.203125 1.0 0.6875 1.4375q0.484375 0.4375 1.171875 0.4375q0.828125 0 1.390625 -0.578125q0.578125 -0.578125 0.578125 -1.421875q0 -0.796875 -0.53125 -1.3125q-0.515625 -0.53125 -1.328125 -0.53125q-0.34375 0 -0.828125 0.125l0.125 -1.03125q0.125 0.015625 0.1875 0.015625q0.75 0 1.34375 -0.390625q0.609375 -0.390625 0.609375 -1.203125q0 -0.640625 -0.4375 -1.0625q-0.4375 -0.421875 -1.125 -0.421875q-0.6875 0 -1.140625 0.4375q-0.453125 0.421875 -0.59375 1.28125l-1.171875 -0.21875q0.21875 -1.171875 0.984375 -1.8125q0.765625 -0.65625 1.890625 -0.65625q0.78125 0 1.4375 0.34375q0.65625 0.328125 1.0 0.90625q0.359375 0.578125 0.359375 1.234375q0 0.609375 -0.34375 1.125q-0.328125 0.5 -0.96875 0.796875q0.84375 0.203125 1.3125 0.828125q0.46875 0.609375 0.46875 1.53125q0 1.25 -0.921875 2.125q-0.90625 0.859375 -2.296875 0.859375q-1.25 0 -2.09375 -0.75q-0.828125 -0.75 -0.9375 -1.9375z" fill-rule="nonzero"/><path fill="#000000" fill-opacity="0.0" d="m705.6486 200.30708l44.944885 0l0 24.37796l-44.944885 0z" fill-rule="evenodd"/><path fill="#404040" d="m715.2111 219.59146l1.171875 -0.15625q0.203125 1.0 0.6875 1.4375q0.484375 0.4375 1.171875 0.4375q0.828125 0 1.390625 -0.578125q0.578125 -0.578125 0.578125 -1.421875q0 -0.796875 -0.53125 -1.3125q-0.515625 -0.53125 -1.328125 -0.53125q-0.34375 0 -0.828125 0.125l0.125 -1.03125q0.125 0.015625 0.1875 0.015625q0.75 0 1.34375 -0.390625q0.609375 -0.390625 0.609375 -1.203125q0 -0.640625 -0.4375 -1.0625q-0.4375 -0.421875 -1.125 -0.421875q-0.6875 0 -1.140625 0.4375q-0.453125 0.421875 -0.59375 1.28125l-1.171875 -0.21875q0.21875 -1.171875 0.984375 -1.8125q0.765625 -0.65625 1.890625 -0.65625q0.78125 0 1.4375 0.34375q0.65625 0.328125 1.0 0.90625q0.359375 0.578125 0.359375 1.234375q0 0.609375 -0.34375 1.125q-0.328125 0.5 -0.96875 0.796875q0.84375 0.203125 1.3125 0.828125q0.46875 0.609375 0.46875 1.53125q0 1.25 -0.921875 2.125q-0.90625 0.859375 -2.296875 0.859375q-1.25 0 -2.09375 -0.75q-0.828125 -0.75 -0.9375 -1.9375z" fill-rule="nonzero"/><path fill="#000000" fill-opacity="0.0" d="m337.0268 268.9809l28.881897 0l0 24.37796l-28.881897 0z" fill-rule="evenodd"/><path fill="#404040" d="m346.5893 288.2653l1.171875 -0.15625q0.203125 1.0 0.6875 1.4375q0.484375 0.4375 1.171875 0.4375q0.828125 0 1.390625 -0.578125q0.578125 -0.578125 0.578125 -1.421875q0 -0.796875 -0.53125 -1.3125q-0.515625 -0.53125 -1.328125 -0.53125q-0.34375 0 -0.828125 0.125l0.125 -1.03125q0.125 0.015625 0.1875 0.015625q0.75 0 1.34375 -0.390625q0.609375 -0.390625 0.609375 -1.203125q0 -0.640625 -0.4375 -1.0625q-0.4375 -0.421875 -1.125 -0.421875q-0.6875 0 -1.140625 0.4375q-0.453125 0.421875 -0.59375 1.28125l-1.171875 -0.21875q0.21875 -1.171875 0.984375 -1.8125q0.765625 -0.65625 1.890625 -0.65625q0.78125 0 1.4375 0.34375q0.65625 0.328125 1.0 0.90625q0.359375 0.578125 0.359375 1.234375q0 0.609375 -0.34375 1.125q-0.328125 0.5 -0.96875 0.796875q0.84375 0.203125 1.3125 0.828125q0.46875 0.609375 0.46875 1.53125q0 1.25 -0.921875 2.125q-0.90625 0.859375 -2.296875 0.859375q-1.25 0 -2.09375 -0.75q-0.828125 -0.75 -0.9375 -1.9375z" fill-rule="nonzero"/><path fill="#000000" fill-opacity="0.0" d="m415.78107 269.01358l73.29135 -0.0630188l0 24.37796l-73.29135 0.06298828z" fill-rule="evenodd"/><path fill="#404040" d="m426.57794 282.8668l0 1.359375l-1.25 0.0010681152l0 -1.078125q0 -0.875 0.203125 -1.2657776q0.265625 -0.51586914 0.859375 -0.78201294l0.296875 0.45288086q-0.359375 0.15655518 -0.53125 0.45358276q-0.171875 0.2970276 -0.1875 0.8595276l0.609375 -5.187988E-4zm2.015625 -0.001739502l0 1.359375l-1.25 0.0010986328l0 -1.0781555q0 -0.875 0.203125 -1.2657776q0.28125 -0.51586914 0.859375 -0.7819824l0.296875 0.45285034q-0.359375 0.15655518 -0.53125 0.45358276q-0.171875 0.2970276 -0.1875 0.8595276l0.609375 -5.187988E-4zm1.594635 7.9361267l0 -9.546875l1.265625 -0.0010681152l0 4.734375l4.7343445 -4.7384644l1.71875 -0.0014648438l-3.9999695 3.8784485l4.1718445 5.668274l-1.65625 0.0014343262l-3.4062195 -4.8251953l-1.5625 1.5169678l0 3.3125l-1.265625 0.0010681152zm8.967865 -0.0076904297l0 -9.546875l6.90625 -0.0059509277l0 1.125l-5.640625 0.004852295l0 2.921875l5.28125 -0.004547119l0 1.125l-5.28125 0.004547119l0 3.25l5.859375 -0.0050354004l0 1.125l-7.125 0.006134033zm11.561615 -0.0099487305l0 -4.046875l-3.6875 -5.496826l1.546875 -0.0013427734l1.875 2.873413q0.515625 0.81204224 0.96875 1.6241455q0.4375 -0.7503662 1.046875 -1.688385l1.84375 -2.814087l1.46875 -0.0012512207l-3.796875 5.5032654l0 4.046875l-1.265625 0.0010681152zm5.7335205 -8.286163l0 -1.359375l1.265625 -0.0010986328l0 1.078125q0 0.875 -0.203125 1.2501831q-0.28125 0.53149414 -0.875 0.7976074l-0.28125 -0.45288086q0.34375 -0.15652466 0.515625 -0.45355225q0.171875 -0.3126526 0.1875 -0.8595276l-0.609375 5.187988E-4zm2.015625 -0.001739502l0 -1.359375l1.265625 -0.0010986328l0 1.078125q0 0.875 -0.203125 1.2501831q-0.28125 0.53149414 -0.875 0.79763794l-0.28125 -0.45288086q0.34375 -0.15655518 0.515625 -0.45358276q0.171875 -0.3126526 0.203125 -0.8595581l-0.625 5.493164E-4z" fill-rule="nonzero"/><path fill="#000000" fill-opacity="0.0" d="m514.3298 270.30972l44.944885 0l0 24.37793l-44.944885 0z" fill-rule="evenodd"/><path fill="#404040" d="m523.75165 289.25034l0 -1.1875l3.59375 0l0 1.1875l-3.59375 0zm8.3289795 2.859375l0 -2.28125l-4.140625 0l0 -1.078125l4.34375 -6.1875l0.96875 0l0 6.1875l1.28125 0l0 1.078125l-1.28125 0l0 2.28125l-1.171875 0zm0 -3.359375l0 -4.296875l-2.984375 4.296875l2.984375 0z" fill-rule="nonzero"/><path fill="#000000" fill-opacity="0.0" d="m609.49115 270.30972l44.944885 0l0 24.37793l-44.944885 0z" fill-rule="evenodd"/><path fill="#404040" d="m618.913 289.25034l0 -1.1875l3.59375 0l0 1.1875l-3.59375 0zm4.5634155 0.359375l1.234375 -0.109375q0.140625 0.90625 0.640625 1.359375q0.5 0.453125 1.203125 0.453125q0.84375 0 1.421875 -0.640625q0.59375 -0.640625 0.59375 -1.6875q0 -1.0 -0.5625 -1.578125q-0.5625 -0.59375 -1.484375 -0.59375q-0.5625 0 -1.015625 0.265625q-0.453125 0.25 -0.71875 0.671875l-1.09375 -0.15625l0.921875 -4.890625l4.75 0l0 1.109375l-3.8125 0l-0.515625 2.5625q0.859375 -0.59375 1.796875 -0.59375q1.25 0 2.109375 0.875q0.859375 0.859375 0.859375 2.21875q0 1.296875 -0.75 2.234375q-0.921875 1.15625 -2.5 1.15625q-1.3125 0 -2.140625 -0.71875q-0.8125 -0.734375 -0.9375 -1.9375z" fill-rule="nonzero"/><path fill="#000000" fill-opacity="0.0" d="m704.65125 270.30972l44.944885 0l0 24.37793l-44.944885 0z" fill-rule="evenodd"/><path fill="#404040" d="m714.0731 289.25034l0 -1.1875l3.59375 0l0 1.1875l-3.59375 0zm10.641541 -4.34375l-1.15625 0.09375q-0.15625 -0.6875 -0.4375 -1.0q-0.484375 -0.5 -1.171875 -0.5q-0.5625 0 -0.984375 0.3125q-0.5625 0.390625 -0.890625 1.171875q-0.3125 0.765625 -0.3125 2.203125q0.421875 -0.640625 1.03125 -0.953125q0.609375 -0.3125 1.28125 -0.3125q1.171875 0 1.984375 0.859375q0.828125 0.859375 0.828125 2.234375q0 0.890625 -0.390625 1.671875q-0.375 0.765625 -1.0625 1.171875q-0.671875 0.40625 -1.53125 0.40625q-1.46875 0 -2.390625 -1.0625q-0.921875 -1.078125 -0.921875 -3.5625q0 -2.765625 1.015625 -4.015625q0.90625 -1.09375 2.40625 -1.09375q1.125 0 1.84375 0.640625q0.71875 0.625 0.859375 1.734375zm-4.78125 4.109375q0 0.609375 0.25 1.171875q0.265625 0.546875 0.71875 0.84375q0.46875 0.28125 0.984375 0.28125q0.734375 0 1.265625 -0.59375q0.546875 -0.609375 0.546875 -1.640625q0 -0.984375 -0.53125 -1.546875q-0.53125 -0.578125 -1.328125 -0.578125q-0.796875 0 -1.359375 0.578125q-0.546875 0.5625 -0.546875 1.484375z" fill-rule="nonzero"/><path fill="#000000" fill-opacity="0.0" d="m330.13815 345.3622l44.944885 0l0 24.37793l-44.944885 0z" fill-rule="evenodd"/><path fill="#404040" d="m339.56003 364.30283l0 -1.1875l3.59375 0l0 1.1875l-3.59375 0zm8.3289795 2.859375l0 -2.28125l-4.140625 0l0 -1.078125l4.34375 -6.1875l0.96875 0l0 6.1875l1.28125 0l0 1.078125l-1.28125 0l0 2.28125l-1.171875 0zm0 -3.359375l0 -4.296875l-2.984375 4.296875l2.984375 0z" fill-rule="nonzero"/><path fill="#000000" fill-opacity="0.0" d="m422.28644 345.3622l44.944885 0l0 24.37793l-44.944885 0z" fill-rule="evenodd"/><path fill="#404040" d="m431.7083 364.30283l0 -1.1875l3.59375 0l0 1.1875l-3.59375 0zm4.563385 0.359375l1.234375 -0.109375q0.140625 0.90625 0.640625 1.359375q0.5 0.453125 1.203125 0.453125q0.84375 0 1.421875 -0.640625q0.59375 -0.640625 0.59375 -1.6875q0 -1.0 -0.5625 -1.578125q-0.5625 -0.59375 -1.484375 -0.59375q-0.5625 0 -1.015625 0.265625q-0.453125 0.25 -0.71875 0.671875l-1.09375 -0.15625l0.921875 -4.890625l4.75 0l0 1.109375l-3.8125 0l-0.515625 2.5625q0.859375 -0.59375 1.796875 -0.59375q1.25 0 2.109375 0.875q0.859375 0.859375 0.859375 2.21875q0 1.296875 -0.75 2.234375q-0.921875 1.15625 -2.5 1.15625q-1.3125 0 -2.140625 -0.71875q-0.8125 -0.734375 -0.9375 -1.9375z" fill-rule="nonzero"/><path fill="#000000" fill-opacity="0.0" d="m515.6696 345.3622l44.944885 0l0 24.37793l-44.944885 0z" fill-rule="evenodd"/><path fill="#404040" d="m525.0915 364.30283l0 -1.1875l3.59375 0l0 1.1875l-3.59375 0zm10.641541 -4.34375l-1.15625 0.09375q-0.15625 -0.6875 -0.4375 -1.0q-0.484375 -0.5 -1.171875 -0.5q-0.5625 0 -0.984375 0.3125q-0.5625 0.390625 -0.890625 1.171875q-0.3125 0.765625 -0.3125 2.203125q0.421875 -0.640625 1.03125 -0.953125q0.609375 -0.3125 1.28125 -0.3125q1.171875 0 1.984375 0.859375q0.828125 0.859375 0.828125 2.234375q0 0.890625 -0.390625 1.671875q-0.375 0.765625 -1.0625 1.171875q-0.671875 0.40625 -1.53125 0.40625q-1.46875 0 -2.390625 -1.0625q-0.921875 -1.078125 -0.921875 -3.5625q0 -2.765625 1.015625 -4.015625q0.90625 -1.09375 2.40625 -1.09375q1.125 0 1.84375 0.640625q0.71875 0.625 0.859375 1.734375zm-4.78125 4.109375q0 0.609375 0.25 1.171875q0.265625 0.546875 0.71875 0.84375q0.46875 0.28125 0.984375 0.28125q0.734375 0 1.265625 -0.59375q0.546875 -0.609375 0.546875 -1.640625q0 -0.984375 -0.53125 -1.546875q-0.53125 -0.578125 -1.328125 -0.578125q-0.796875 0 -1.359375 0.578125q-0.546875 0.5625 -0.546875 1.484375z" fill-rule="nonzero"/><path fill="#000000" fill-opacity="0.0" d="m723.0195 147.4252l71.49609 0l0 24.377945l-71.49609 0z" fill-rule="evenodd"/><path fill="#666666" d="m732.56635 166.86581l1.1875 -0.078125q0 0.515625 0.15625 0.875q0.15625 0.359375 0.578125 0.59375q0.421875 0.21875 0.96875 0.21875q0.78125 0 1.171875 -0.3125q0.390625 -0.3125 0.390625 -0.734375q0 -0.3125 -0.234375 -0.578125q-0.234375 -0.28125 -1.171875 -0.671875q-0.9375 -0.40625 -1.1875 -0.578125q-0.4375 -0.265625 -0.671875 -0.625q-0.21875 -0.359375 -0.21875 -0.828125q0 -0.8125 0.65625 -1.390625q0.65625 -0.59375 1.828125 -0.59375q1.296875 0 1.96875 0.609375q0.6875 0.59375 0.71875 1.578125l-1.15625 0.078125q-0.03125 -0.625 -0.453125 -0.984375q-0.40625 -0.375 -1.171875 -0.375q-0.609375 0 -0.953125 0.28125q-0.328125 0.28125 -0.328125 0.609375q0 0.3125 0.296875 0.5625q0.1875 0.171875 1.0 0.53125q1.359375 0.578125 1.703125 0.921875q0.5625 0.53125 0.5625 1.3125q0 0.515625 -0.3125 1.015625q-0.3125 0.484375 -0.96875 0.78125q-0.640625 0.296875 -1.515625 0.296875q-1.203125 0 -2.046875 -0.59375q-0.84375 -0.59375 -0.796875 -1.921875zm8.2265625 -5.84375l0.28125 -1.34375l1.171875 0l-0.28125 1.34375l-1.171875 0zm-1.71875 8.203125l1.453125 -6.90625l1.171875 0l-1.4375 6.90625l-1.1875 0zm2.9454956 0.625l1.1875 0.109375q0 0.40625 0.109375 0.609375q0.109375 0.203125 0.34375 0.3125q0.328125 0.140625 0.828125 0.140625q1.0625 0 1.53125 -0.546875q0.3125 -0.375 0.578125 -1.625l0.109375 -0.5625q-0.921875 0.9375 -1.953125 0.9375q-1.046875 0 -1.75 -0.765625q-0.703125 -0.78125 -0.703125 -2.1875q0 -1.171875 0.546875 -2.140625q0.5625 -0.984375 1.328125 -1.46875q0.765625 -0.5 1.578125 -0.5q1.359375 0 2.09375 1.28125l0.234375 -1.125l1.078125 0l-1.390625 6.671875q-0.21875 1.09375 -0.59375 1.703125q-0.375 0.625 -1.03125 0.953125q-0.65625 0.34375 -1.53125 0.34375q-0.828125 0 -1.4375 -0.21875q-0.59375 -0.203125 -0.890625 -0.625q-0.296875 -0.40625 -0.296875 -0.953125q0 -0.15625 0.03125 -0.34375zm1.46875 -3.6875q0 0.71875 0.140625 1.078125q0.203125 0.5 0.5625 0.765625q0.359375 0.25 0.796875 0.25q0.578125 0 1.140625 -0.40625q0.578125 -0.40625 0.9375 -1.25q0.359375 -0.859375 0.359375 -1.625q0 -0.859375 -0.484375 -1.359375q-0.46875 -0.515625 -1.15625 -0.515625q-0.4375 0 -0.84375 0.234375q-0.390625 0.234375 -0.75 0.703125q-0.34375 0.46875 -0.53125 1.140625q-0.171875 0.65625 -0.171875 0.984375zm6.0062256 3.0625l1.453125 -6.90625l1.0625 0l-0.25 1.203125q0.6875 -0.71875 1.296875 -1.03125q0.609375 -0.328125 1.234375 -0.328125q0.84375 0 1.3125 0.453125q0.484375 0.453125 0.484375 1.21875q0 0.375 -0.171875 1.203125l-0.875 4.1875l-1.171875 0l0.921875 -4.375q0.125 -0.640625 0.125 -0.953125q0 -0.34375 -0.234375 -0.546875q-0.234375 -0.21875 -0.6875 -0.21875q-0.90625 0 -1.609375 0.65625q-0.703125 0.640625 -1.03125 2.21875l-0.671875 3.21875l-1.1875 0zm9.084351 -8.203125l0.28125 -1.34375l1.171875 0l-0.28125 1.34375l-1.171875 0zm-1.71875 8.203125l1.453125 -6.90625l1.171875 0l-1.4375 6.90625l-1.1875 0zm3.0079346 0l1.453125 -6.90625l1.0625 0l-0.25 1.203125q0.6875 -0.71875 1.296875 -1.03125q0.609375 -0.328125 1.234375 -0.328125q0.84375 0 1.3125 0.453125q0.484375 0.453125 0.484375 1.21875q0 0.375 -0.171875 1.203125l-0.875 4.1875l-1.171875 0l0.921875 -4.375q0.125 -0.640625 0.125 -0.953125q0 -0.34375 -0.234375 -0.546875q-0.234375 -0.21875 -0.6875 -0.21875q-0.90625 0 -1.609375 0.65625q-0.703125 0.640625 -1.03125 2.21875l-0.671875 3.21875l-1.1875 0zm7.3499756 0.625l1.1875 0.109375q0 0.40625 0.109375 0.609375q0.109375 0.203125 0.34375 0.3125q0.328125 0.140625 0.828125 0.140625q1.0625 0 1.53125 -0.546875q0.3125 -0.375 0.578125 -1.625l0.109375 -0.5625q-0.921875 0.9375 -1.953125 0.9375q-1.046875 0 -1.75 -0.765625q-0.703125 -0.78125 -0.703125 -2.1875q0 -1.171875 0.546875 -2.140625q0.5625 -0.984375 1.328125 -1.46875q0.765625 -0.5 1.578125 -0.5q1.359375 0 2.09375 1.28125l0.234375 -1.125l1.078125 0l-1.390625 6.671875q-0.21875 1.09375 -0.59375 1.703125q-0.375 0.625 -1.03125 0.953125q-0.65625 0.34375 -1.53125 0.34375q-0.828125 0 -1.4375 -0.21875q-0.59375 -0.203125 -0.890625 -0.625q-0.296875 -0.40625 -0.296875 -0.953125q0 -0.15625 0.03125 -0.34375zm1.46875 -3.6875q0 0.71875 0.140625 1.078125q0.203125 0.5 0.5625 0.765625q0.359375 0.25 0.796875 0.25q0.578125 0 1.140625 -0.40625q0.578125 -0.40625 0.9375 -1.25q0.359375 -0.859375 0.359375 -1.625q0 -0.859375 -0.484375 -1.359375q-0.46875 -0.515625 -1.15625 -0.515625q-0.4375 0 -0.84375 0.234375q-0.390625 0.234375 -0.75 0.703125q-0.34375 0.46875 -0.53125 1.140625q-0.171875 0.65625 -0.171875 0.984375z" fill-rule="nonzero"/><path fill="#000000" fill-opacity="0.0" d="m764.28723 251.72704l71.49603 0l0 24.377945l-71.49603 0z" fill-rule="evenodd"/><path fill="#666666" d="m773.8341 271.16766l1.1875 -0.078125q0 0.515625 0.15625 0.875q0.15625 0.359375 0.578125 0.59375q0.421875 0.21875 0.96875 0.21875q0.78125 0 1.171875 -0.3125q0.390625 -0.3125 0.390625 -0.734375q0 -0.3125 -0.234375 -0.578125q-0.234375 -0.28125 -1.171875 -0.671875q-0.9375 -0.40625 -1.1875 -0.578125q-0.4375 -0.265625 -0.671875 -0.625q-0.21875 -0.359375 -0.21875 -0.828125q0 -0.8125 0.65625 -1.390625q0.65625 -0.59375 1.828125 -0.59375q1.296875 0 1.96875 0.609375q0.6875 0.59375 0.71875 1.578125l-1.15625 0.078125q-0.03125 -0.625 -0.453125 -0.984375q-0.40625 -0.375 -1.171875 -0.375q-0.609375 0 -0.953125 0.28125q-0.328125 0.28125 -0.328125 0.609375q0 0.3125 0.296875 0.5625q0.1875 0.171875 1.0 0.53125q1.359375 0.578125 1.703125 0.921875q0.5625 0.53125 0.5625 1.3125q0 0.515625 -0.3125 1.015625q-0.3125 0.484375 -0.96875 0.78125q-0.640625 0.296875 -1.515625 0.296875q-1.203125 0 -2.046875 -0.59375q-0.84375 -0.59375 -0.796875 -1.921875zm8.2265625 -5.84375l0.28125 -1.34375l1.171875 0l-0.28125 1.34375l-1.171875 0zm-1.71875 8.203125l1.453125 -6.90625l1.171875 0l-1.4375 6.90625l-1.1875 0zm2.9454346 0.625l1.1875 0.109375q0 0.40625 0.109375 0.609375q0.109375 0.203125 0.34375 0.3125q0.328125 0.140625 0.828125 0.140625q1.0625 0 1.53125 -0.546875q0.3125 -0.375 0.578125 -1.625l0.109375 -0.5625q-0.921875 0.9375 -1.953125 0.9375q-1.046875 0 -1.75 -0.765625q-0.703125 -0.78125 -0.703125 -2.1875q0 -1.171875 0.546875 -2.140625q0.5625 -0.984375 1.328125 -1.46875q0.765625 -0.5 1.578125 -0.5q1.359375 0 2.09375 1.28125l0.234375 -1.125l1.078125 0l-1.390625 6.671875q-0.21875 1.09375 -0.59375 1.703125q-0.375 0.625 -1.03125 0.953125q-0.65625 0.34375 -1.53125 0.34375q-0.828125 0 -1.4375 -0.21875q-0.59375 -0.203125 -0.890625 -0.625q-0.296875 -0.40625 -0.296875 -0.953125q0 -0.15625 0.03125 -0.34375zm1.46875 -3.6875q0 0.71875 0.140625 1.078125q0.203125 0.5 0.5625 0.765625q0.359375 0.25 0.796875 0.25q0.578125 0 1.140625 -0.40625q0.578125 -0.40625 0.9375 -1.25q0.359375 -0.859375 0.359375 -1.625q0 -0.859375 -0.484375 -1.359375q-0.46875 -0.515625 -1.15625 -0.515625q-0.4375 0 -0.84375 0.234375q-0.390625 0.234375 -0.75 0.703125q-0.34375 0.46875 -0.53125 1.140625q-0.171875 0.65625 -0.171875 0.984375zm6.0062256 3.0625l1.453125 -6.90625l1.0625 0l-0.25 1.203125q0.6875 -0.71875 1.296875 -1.03125q0.609375 -0.328125 1.234375 -0.328125q0.84375 0 1.3125 0.453125q0.484375 0.453125 0.484375 1.21875q0 0.375 -0.171875 1.203125l-0.875 4.1875l-1.171875 0l0.921875 -4.375q0.125 -0.640625 0.125 -0.953125q0 -0.34375 -0.234375 -0.546875q-0.234375 -0.21875 -0.6875 -0.21875q-0.90625 0 -1.609375 0.65625q-0.703125 0.640625 -1.03125 2.21875l-0.671875 3.21875l-1.1875 0zm9.084351 -8.203125l0.28125 -1.34375l1.171875 0l-0.28125 1.34375l-1.171875 0zm-1.71875 8.203125l1.453125 -6.90625l1.171875 0l-1.4375 6.90625l-1.1875 0zm3.0079956 0l1.453125 -6.90625l1.0625 0l-0.25 1.203125q0.6875 -0.71875 1.296875 -1.03125q0.609375 -0.328125 1.234375 -0.328125q0.84375 0 1.3125 0.453125q0.484375 0.453125 0.484375 1.21875q0 0.375 -0.171875 1.203125l-0.875 4.1875l-1.171875 0l0.921875 -4.375q0.125 -0.640625 0.125 -0.953125q0 -0.34375 -0.234375 -0.546875q-0.234375 -0.21875 -0.6875 -0.21875q-0.90625 0 -1.609375 0.65625q-0.703125 0.640625 -1.03125 2.21875l-0.671875 3.21875l-1.1875 0zm7.3499756 0.625l1.1875 0.109375q0 0.40625 0.109375 0.609375q0.109375 0.203125 0.34375 0.3125q0.328125 0.140625 0.828125 0.140625q1.0625 0 1.53125 -0.546875q0.3125 -0.375 0.578125 -1.625l0.109375 -0.5625q-0.921875 0.9375 -1.953125 0.9375q-1.046875 0 -1.75 -0.765625q-0.703125 -0.78125 -0.703125 -2.1875q0 -1.171875 0.546875 -2.140625q0.5625 -0.984375 1.328125 -1.46875q0.765625 -0.5 1.578125 -0.5q1.359375 0 2.09375 1.28125l0.234375 -1.125l1.078125 0l-1.390625 6.671875q-0.21875 1.09375 -0.59375 1.703125q-0.375 0.625 -1.03125 0.953125q-0.65625 0.34375 -1.53125 0.34375q-0.828125 0 -1.4375 -0.21875q-0.59375 -0.203125 -0.890625 -0.625q-0.296875 -0.40625 -0.296875 -0.953125q0 -0.15625 0.03125 -0.34375zm1.46875 -3.6875q0 0.71875 0.140625 1.078125q0.203125 0.5 0.5625 0.765625q0.359375 0.25 0.796875 0.25q0.578125 0 1.140625 -0.40625q0.578125 -0.40625 0.9375 -1.25q0.359375 -0.859375 0.359375 -1.625q0 -0.859375 -0.484375 -1.359375q-0.46875 -0.515625 -1.15625 -0.515625q-0.4375 0 -0.84375 0.234375q-0.390625 0.234375 -0.75 0.703125q-0.34375 0.46875 -0.53125 1.140625q-0.171875 0.65625 -0.171875 0.984375z" fill-rule="nonzero"/><path fill="#000000" fill-opacity="0.0" d="m685.43567 159.00131c41.559082 0 83.118164 30.078735 83.118164 60.157486" fill-rule="evenodd"/><path stroke="#999999" stroke-width="1.0" stroke-linejoin="round" stroke-linecap="butt" d="m691.4322 159.20773l0.81500244 0.058532715c0.32366943 0.024993896 0.6472168 0.051727295 0.9706421 0.08018494c2.5873413 0.22766113 5.1644897 0.56544495 7.7213135 1.0060577c5.1137695 0.8812103 10.146301 2.1736603 15.0164795 3.8185883c9.7404175 3.289856 18.83142 7.98967 26.62378 13.629425c15.584656 11.279526 25.974426 26.318893 25.974426 41.358276" fill-rule="evenodd"/><path fill="#999999" stroke="#999999" stroke-width="1.0" stroke-linecap="butt" d="m691.48895 157.55698l-4.592224 1.4946289l4.4785767 1.8068695z" fill-rule="evenodd"/><path fill="#000000" fill-opacity="0.0" d="m768.55383 289.10892l0 -50.393692" fill-rule="evenodd"/><path stroke="#999999" stroke-width="1.0" stroke-linejoin="round" stroke-linecap="butt" d="m768.55383 289.10892l0 -44.393692" fill-rule="evenodd"/><path fill="#999999" stroke="#999999" stroke-width="1.0" stroke-linecap="butt" d="m770.20557 244.71523l-1.6517334 -4.538101l-1.6517334 4.538101z" fill-rule="evenodd"/><path fill="#000000" fill-opacity="0.0" d="m592.6562 373.06168c87.95276 0 175.90552 -32.204712 175.90552 -64.409454" fill-rule="evenodd"/><path stroke="#999999" stroke-width="1.0" stroke-linejoin="round" stroke-linecap="butt" d="m592.6562 373.06168c43.97638 0 87.95276 -8.051178 120.935 -20.12796c16.49115 -6.0383606 30.233765 -13.08316 39.853638 -20.631134c4.8099365 -3.7739868 8.589111 -7.6737976 11.1658325 -11.636475c1.2883911 -1.9813538 2.276184 -3.978424 2.9418335 -5.9833374l0.035461426 -0.11010742" fill-rule="evenodd"/><path fill="#999999" stroke="#999999" stroke-width="1.0" stroke-linecap="butt" d="m769.2177 314.84076l-0.89331055 -4.746002l-2.366333 4.209839z" fill-rule="evenodd"/><path fill="#000000" fill-opacity="0.0" d="m613.94073 336.0551l71.49609 0l0 24.37796l-71.49609 0z" fill-rule="evenodd"/><path fill="#666666" d="m623.4876 355.49573l1.1875 -0.078125q0 0.515625 0.15625 0.875q0.15625 0.359375 0.578125 0.59375q0.421875 0.21875 0.96875 0.21875q0.78125 0 1.171875 -0.3125q0.390625 -0.3125 0.390625 -0.734375q0 -0.3125 -0.234375 -0.578125q-0.234375 -0.28125 -1.171875 -0.671875q-0.9375 -0.40625 -1.1875 -0.578125q-0.4375 -0.265625 -0.671875 -0.625q-0.21875 -0.359375 -0.21875 -0.828125q0 -0.8125 0.65625 -1.390625q0.65625 -0.59375 1.828125 -0.59375q1.296875 0 1.96875 0.609375q0.6875 0.59375 0.71875 1.578125l-1.15625 0.078125q-0.03125 -0.625 -0.453125 -0.984375q-0.40625 -0.375 -1.171875 -0.375q-0.609375 0 -0.953125 0.28125q-0.328125 0.28125 -0.328125 0.609375q0 0.3125 0.296875 0.5625q0.1875 0.171875 1.0 0.53125q1.359375 0.578125 1.703125 0.921875q0.5625 0.53125 0.5625 1.3125q0 0.515625 -0.3125 1.015625q-0.3125 0.484375 -0.96875 0.78125q-0.640625 0.296875 -1.515625 0.296875q-1.203125 0 -2.046875 -0.59375q-0.84375 -0.59375 -0.796875 -1.921875zm8.2265625 -5.84375l0.28125 -1.34375l1.171875 0l-0.28125 1.34375l-1.171875 0zm-1.71875 8.203125l1.453125 -6.90625l1.171875 0l-1.4375 6.90625l-1.1875 0zm2.9454956 0.625l1.1875 0.109375q0 0.40625 0.109375 0.609375q0.109375 0.203125 0.34375 0.3125q0.328125 0.140625 0.828125 0.140625q1.0625 0 1.53125 -0.546875q0.3125 -0.375 0.578125 -1.625l0.109375 -0.5625q-0.921875 0.9375 -1.953125 0.9375q-1.046875 0 -1.75 -0.765625q-0.703125 -0.78125 -0.703125 -2.1875q0 -1.171875 0.546875 -2.140625q0.5625 -0.984375 1.328125 -1.46875q0.765625 -0.5 1.578125 -0.5q1.359375 0 2.09375 1.28125l0.234375 -1.125l1.078125 0l-1.390625 6.671875q-0.21875 1.09375 -0.59375 1.703125q-0.375 0.625 -1.03125 0.953125q-0.65625 0.34375 -1.53125 0.34375q-0.828125 0 -1.4375 -0.21875q-0.59375 -0.203125 -0.890625 -0.625q-0.296875 -0.40625 -0.296875 -0.953125q0 -0.15625 0.03125 -0.34375zm1.46875 -3.6875q0 0.71875 0.140625 1.078125q0.203125 0.5 0.5625 0.765625q0.359375 0.25 0.796875 0.25q0.578125 0 1.140625 -0.40625q0.578125 -0.40625 0.9375 -1.25q0.359375 -0.859375 0.359375 -1.625q0 -0.859375 -0.484375 -1.359375q-0.46875 -0.515625 -1.15625 -0.515625q-0.4375 0 -0.84375 0.234375q-0.390625 0.234375 -0.75 0.703125q-0.34375 0.46875 -0.53125 1.140625q-0.171875 0.65625 -0.171875 0.984375zm6.0062256 3.0625l1.453125 -6.90625l1.0625 0l-0.25 1.203125q0.6875 -0.71875 1.296875 -1.03125q0.609375 -0.328125 1.234375 -0.328125q0.84375 0 1.3125 0.453125q0.484375 0.453125 0.484375 1.21875q0 0.375 -0.171875 1.203125l-0.875 4.1875l-1.171875 0l0.921875 -4.375q0.125 -0.640625 0.125 -0.953125q0 -0.34375 -0.234375 -0.546875q-0.234375 -0.21875 -0.6875 -0.21875q-0.90625 0 -1.609375 0.65625q-0.703125 0.640625 -1.03125 2.21875l-0.671875 3.21875l-1.1875 0zm9.084351 -8.203125l0.28125 -1.34375l1.171875 0l-0.28125 1.34375l-1.171875 0zm-1.71875 8.203125l1.453125 -6.90625l1.171875 0l-1.4375 6.90625l-1.1875 0zm3.0079346 0l1.453125 -6.90625l1.0625 0l-0.25 1.203125q0.6875 -0.71875 1.296875 -1.03125q0.609375 -0.328125 1.234375 -0.328125q0.84375 0 1.3125 0.453125q0.484375 0.453125 0.484375 1.21875q0 0.375 -0.171875 1.203125l-0.875 4.1875l-1.171875 0l0.921875 -4.375q0.125 -0.640625 0.125 -0.953125q0 -0.34375 -0.234375 -0.546875q-0.234375 -0.21875 -0.6875 -0.21875q-0.90625 0 -1.609375 0.65625q-0.703125 0.640625 -1.03125 2.21875l-0.671875 3.21875l-1.1875 0zm7.3499756 0.625l1.1875 0.109375q0 0.40625 0.109375 0.609375q0.109375 0.203125 0.34375 0.3125q0.328125 0.140625 0.828125 0.140625q1.0625 0 1.53125 -0.546875q0.3125 -0.375 0.578125 -1.625l0.109375 -0.5625q-0.921875 0.9375 -1.953125 0.9375q-1.046875 0 -1.75 -0.765625q-0.703125 -0.78125 -0.703125 -2.1875q0 -1.171875 0.546875 -2.140625q0.5625 -0.984375 1.328125 -1.46875q0.765625 -0.5 1.578125 -0.5q1.359375 0 2.09375 1.28125l0.234375 -1.125l1.078125 0l-1.390625 6.671875q-0.21875 1.09375 -0.59375 1.703125q-0.375 0.625 -1.03125 0.953125q-0.65625 0.34375 -1.53125 0.34375q-0.828125 0 -1.4375 -0.21875q-0.59375 -0.203125 -0.890625 -0.625q-0.296875 -0.40625 -0.296875 -0.953125q0 -0.15625 0.03125 -0.34375zm1.46875 -3.6875q0 0.71875 0.140625 1.078125q0.203125 0.5 0.5625 0.765625q0.359375 0.25 0.796875 0.25q0.578125 0 1.140625 -0.40625q0.578125 -0.40625 0.9375 -1.25q0.359375 -0.859375 0.359375 -1.625q0 -0.859375 -0.484375 -1.359375q-0.46875 -0.515625 -1.15625 -0.515625q-0.4375 0 -0.84375 0.234375q-0.390625 0.234375 -0.75 0.703125q-0.34375 0.46875 -0.53125 1.140625q-0.171875 0.65625 -0.171875 0.984375z" fill-rule="nonzero"/></g></svg>